<svg xmlns="http://www.w3.org/2000/svg" viewBox="0 0 945 444"><defs><style>.cls-1{fill:#fff;}</style></defs><title>Asset 1</title><g id="Layer_2" data-name="Layer 2"><g id="Layer_1-2" data-name="Layer 1"><path class="cls-1" d="M0,444V0H945V444ZM841.08,120.85c-1,2.08-2.7,4.14-2.74,6.23-.25,12.48-.16,25-.08,37.44,0,5.71,2.49,8.22,8.25,8.24q35.45.09,70.9,0c5.51,0,7.78-2.42,7.82-8.05q.12-19,0-37.94c0-5.69-2.22-7.84-7.89-7.86-23.63-.06-47.26-.09-70.9,0-1.85,0-3.7,1.37-5.55,2.1ZM573,243.42c-.73,1.92-2.05,3.82-2.08,5.75-.19,12.48-.14,25-.08,37.45,0,6.35,2.13,8.47,8.33,8.5q19.47.07,38.95,0c6.24,0,8.51-2.22,8.55-8.37q.11-18.48,0-37c0-6.32-2.44-8.63-8.87-8.65-12.82-.06-25.63-.12-38.45,0-2,0-4,1.21-5.94,1.85A5.42,5.42,0,0,1,573,243.42ZM441.45,363.81v-.08q-72.2,0-144.4,0c-7.44,0-9.22,1.76-9.24,9.05q-.06,21.49,0,43c0,8.58,1.67,10.26,10.17,10.26l287.8,0c7.22,0,9.29-2,9.3-9.11q0-21.49,0-43c0-8.76-1.35-10.08-10.21-10.08ZM10.92,9.88l-.35,1.63c1.63.46,3.26,1.3,4.89,1.31,13.77.1,27.55.16,41.32,0,16.75-.18,33.49-.58,50.23-.87,10.31-.18,20.61-.44,30.92-.46,11.72,0,23.45.36,35.17.29,12.6-.07,25.2-.61,37.81-.67,8.93,0,17.86.6,26.79.56,14.94-.07,29.87-.39,44.81-.7,6.64-.14,13.28-.67,19.93-.74,5.56-.06,11.12.35,16.68.41,2.31,0,4.63-.5,6.95-.48,14.08.11,28.16.32,42.23.46,8.78.09,17.57.11,26.35.15,4.16,0,8.31,0,12.47,0l0-.91ZM806.84,395h0c0,7.48,0,15,0,22.45,0,6.22,2.2,8.44,8.36,8.47q19.46.08,38.92,0c5.91,0,8.38-2.24,8.43-8q.19-22.95,0-45.9c0-6-2.38-8.09-8.26-8.12q-19.71-.07-39.42,0c-5.83,0-8,2.22-8,8.21C806.79,379.71,806.84,387.36,806.84,395ZM63.5,234.15c11.67,0,23.33,0,35,0,6.12,0,8.42-2.34,8.46-8.52q.12-18.5,0-37c0-6.37-2.42-8.67-8.87-8.68q-35-.06-70,0c-6.1,0-8.36,2.34-8.39,8.55q-.09,18.5,0,37c0,6.44,2.25,8.61,8.8,8.63C40.17,234.18,51.83,234.14,63.5,234.15ZM637.78,426c9,0,18,0,27,0,6.32,0,8.58-2.1,8.64-8.26q.21-22.72.11-45.44c0-6.27-2.26-8.38-8.46-8.4q-27.22-.07-54.44,0c-6.21,0-8.44,2.2-8.47,8.39q-.1,22.72,0,45.45c0,5.77,2.48,8.23,8.2,8.28C619.47,426,628.62,426,637.78,426ZM86.86,356.31v0H144.8c7.83,0,9.63-1.74,9.66-9.78.05-11.82,0-23.64,0-35.46,0-6.69-2.22-9-9-9Q87,302,28.53,302c-6.62,0-8.88,2.4-8.9,9.15q0,17.73,0,35.46c0,7.82,1.88,9.65,9.77,9.65Zm771.23-.18v0c19.64,0,39.29,0,58.93,0,6.07,0,8.1-2.11,8.13-8.11q.07-18.73,0-37.45c0-5.91-2.26-8.32-8.06-8.33q-58.93-.08-117.86,0c-6.13,0-8.35,2.3-8.38,8.51-.07,12,0,24,0,36,0,7.77,1.67,9.47,9.32,9.48Q829.13,356.16,858.09,356.13Zm15.92-61c14.16,0,28.32,0,42.48,0,6.59,0,8.6-2.06,8.62-8.68q.06-18.24,0-36.48c0-6.47-2.24-8.75-8.65-8.76q-42.48,0-85,0c-6.68,0-9,2.24-9,9-.07,12-.1,24,0,36,.06,7,2.08,8.88,9,8.89C845.69,295.11,859.85,295.08,874,295.09ZM145.82,394.37h0c0,7.82-.06,15.65,0,23.47.06,5.79,2.42,8.17,8.23,8.2q19.73.11,39.45,0c5.56,0,8.16-2.37,8.22-7.77q.23-23.47,0-46.94c0-5.28-2.53-7.55-7.83-7.58q-20.23-.11-40.45,0c-5.34,0-7.54,2.28-7.62,7.64C145.73,379.05,145.82,386.71,145.82,394.37Zm98.93-30.62v0c-9.15,0-18.31,0-27.46,0-6.32,0-8.51,2.12-8.53,8.31q-.08,23,0,45.93c0,5.58,2.34,8,7.81,8q27.71.11,55.42,0c5.57,0,8-2.41,8.05-7.85q.12-23.22,0-46.43c0-5.62-2.3-7.9-7.87-8C263.05,363.68,253.9,363.74,244.75,363.74Zm-169,31h0c0-7.33,0-14.65,0-22,0-6.87-2.23-9.1-8.88-9.12q-19.23,0-38.47,0c-6.57,0-8.66,2.08-8.68,8.7q-.09,22.48,0,45c0,6.46,2.32,8.67,8.78,8.69q19.23.06,38.47,0c6.39,0,8.7-2.31,8.79-8.77C75.79,409.78,75.71,402.28,75.71,394.79Zm7.12-.13h0c0,7.49,0,15,0,22.48,0,6.55,2.19,8.87,8.53,8.91q19.48.1,39,0c5.83,0,8.44-2.41,8.48-8.09q.18-23.23,0-46.46c0-5.23-2.51-7.74-7.66-7.77q-20.48-.14-41,0c-5,0-7.23,2.32-7.3,7.4C82.75,379,82.83,386.83,82.83,394.66ZM71.77,241c-14.48,0-29,0-43.44,0-6.25,0-8.57,2.27-8.61,8.33q-.12,18.73,0,37.45c0,6.25,2.23,8.43,8.46,8.44q42.95,0,85.89,0c6.71,0,8.92-2.26,9-9q.09-18,0-36c0-7-2.32-9.22-9.3-9.23Q92.75,241,71.77,241Zm196.68-61v0c-6.83,0-13.65-.08-20.48,0-5.4.08-7.93,2.58-8,8q-.12,19.23,0,38.46c0,5.15,2.55,7.62,7.77,7.65q20.23.14,40.46,0c5.21,0,7.68-2.5,7.72-7.71q.15-19.23,0-38.46c0-5.4-2.57-7.83-8.05-7.91C281.44,179.91,274.94,180,268.45,180ZM179.82,76.1v0c-7,0-14-.06-21,0-6,.07-8.61,2.61-8.69,8.45q-.14,9.24,0,18.48c.09,6.1,2.36,8.44,8.55,8.49q20.73.17,41.46,0c5.93,0,8.29-2.31,8.44-8.13q.25-9.48,0-19c-.15-6-2.62-8.23-8.81-8.3C193.14,76,186.48,76.1,179.82,76.1ZM680.76,394.81c0,7.82-.07,15.64,0,23.47.07,5.21,2.44,7.62,7.66,7.65q20,.13,39.94,0c5.59,0,8-2.3,8.07-7.84q.17-23.21,0-46.43c0-5.67-2.29-7.78-8-7.81q-20-.09-39.94,0c-5.63,0-7.68,2.16-7.74,8C680.71,379.5,680.77,387.15,680.76,394.81Zm-539-160.7c6.83,0,13.67.08,20.5,0,5.16-.08,7.66-2.51,7.7-7.72q.15-19.25,0-38.5c0-5.29-2.41-7.82-7.57-7.87q-20.5-.19-41,0c-4.85,0-7.4,2.6-7.44,7.49q-.18,19.5,0,39c0,5.15,2.6,7.54,7.81,7.61C128.48,234.18,135.15,234.12,141.81,234.11Zm62.67,0v0c6.49,0,13,0,19.48,0s8.91-2.28,8.94-8.58q.11-18.48,0-37c0-6.1-2.44-8.56-8.44-8.59q-19.48-.11-39,0c-6.18,0-8.57,2.34-8.6,8.35q-.1,18.73,0,37.47c0,6,2.41,8.3,8.6,8.36S198.16,234.16,204.49,234.16Zm126.37,0v0c6.82,0,13.64,0,20.46,0,4.6,0,7.4-2.55,7.47-7,.2-13.31.13-26.62,0-39.93-.05-4.52-2.72-7.12-7.28-7.15-13.81-.09-27.62-.1-41.43,0-4.52,0-7.12,2.58-7.14,7.22-.07,13-.11,26,0,38.93,0,5.49,2.49,7.83,8,7.9C317.55,234.18,324.2,234.11,330.86,234.11ZM111.15,118.75v-.06c-6.66,0-13.33-.06-20,0-6.2.07-8.32,2.22-8.35,8.53q-.09,18.49,0,37c0,6.16,2.33,8.63,8.34,8.68q19.74.14,39.48,0c5.39,0,8.17-2.65,8.22-7.91q.17-19.24,0-38.48c-.06-5.53-2.41-7.66-8.15-7.75C124.14,118.67,117.64,118.75,111.15,118.75Zm-63.47,0c-6.5,0-13-.05-19.5,0-6.2.07-8.32,2.21-8.34,8.51q-.08,18.75,0,37.5c0,5.55,2.4,8.08,7.84,8.12q20,.16,40,0c5.65,0,8.17-2.64,8.22-8.39q.14-19,0-38c0-5.13-2.55-7.62-7.71-7.73C61.34,118.62,54.51,118.74,47.68,118.74ZM770.94,234v0c6.82,0,13.65.08,20.47,0,4.88-.07,7.47-2.51,7.52-7.34q.18-19.47,0-38.94c0-5.14-2.55-7.6-7.76-7.64q-20-.14-39.94,0c-5.68,0-8.05,2.55-8.08,8.38q-.09,18.47,0,36.94c0,6.36,2.3,8.57,8.82,8.64C758.29,234.09,764.61,234,770.94,234ZM174.5,118.73v0c-7,0-14-.1-21,0-5,.09-7.45,2.48-7.49,7.36q-.16,19.49,0,39c0,5.13,2.61,7.74,7.73,7.79q20.24.18,40.48,0c5.39-.06,7.75-2.72,7.78-8.25q.1-19,0-38c0-5.48-2.46-7.81-8-7.89C187.5,118.66,181,118.73,174.5,118.73Zm628.49.11c-6.66,0-13.31-.06-20,0-5.46.07-7.85,2.46-7.87,8q-.09,19,0,37.94c0,5.49,2.44,7.94,8,8q20,.15,39.94,0c5.49-.05,7.84-2.53,7.87-8.08q.12-19,0-37.94c0-5.52-2.38-7.78-8-7.85C816.3,118.79,809.65,118.86,803,118.84Zm-62.64,54v0c6.66,0,13.32.09,20,0,5.22-.09,7.68-2.52,7.71-7.67q.12-19.22,0-38.45c0-5.6-2.26-7.74-8-7.77q-20-.1-39.95,0c-5.23,0-7.75,2.34-7.81,7.56q-.21,19.22,0,38.45c.05,5.45,2.6,7.83,8.12,7.91C727,172.89,733.69,172.81,740.35,172.81Zm-503.91-54v0c-6.49,0-13,0-19.47,0-6.23.06-8.31,2.14-8.35,8.49q-.11,18.72,0,37.44c0,5.7,2.44,8.17,8.29,8.21q19.72.14,39.44,0c5.52,0,8.1-2.43,8.15-7.85q.2-19.47,0-38.94c-.06-5-2.48-7.2-7.53-7.28C250.09,118.69,243.27,118.77,236.44,118.77Zm157,115.34v0c6.65,0,13.31.07,20,0,5.77-.08,8.16-2.4,8.21-8.23q.17-18.71,0-37.42c0-6.12-2.39-8.37-8.57-8.4q-19.46-.09-38.92,0c-6.09,0-8.32,2.26-8.36,8.51q-.11,18.71,0,37.42c0,5.9,2.28,8.08,8.18,8.16C380.43,234.17,386.92,234.11,393.4,234.11Zm62.83,0c6.83,0,13.66.09,20.49,0,5.25-.09,7.72-2.37,7.78-7.64q.24-19.24,0-38.48c-.06-5.53-2.57-7.86-8.1-7.89q-19.74-.13-39.48,0c-5.77,0-8.16,2.42-8.21,8.23q-.13,18.74-.06,37.48c0,6.12,2.3,8.29,8.56,8.36S449.9,234.09,456.23,234.08Zm126.28,0v0c6.83,0,13.66.09,20.48,0,5-.09,7.48-2.38,7.55-7.35q.26-19.48,0-39c-.06-5.25-2.55-7.59-7.83-7.63q-20.23-.14-40.47,0c-5,0-7.39,2.42-7.43,7.38q-.15,19.48,0,39c0,5.29,2.35,7.54,7.68,7.61C569.18,234.13,575.85,234.06,582.51,234.06Zm94.68-115.18v-.08c-6.66,0-13.32-.07-20,0-5.59.07-8,2.33-8,7.87q-.17,19.22,0,38.45c0,4.86,2.55,7.55,7.36,7.6q20.47.23,40.95,0c5.12-.06,7.48-2.71,7.51-7.93q.1-19,0-38c0-5.65-2.25-7.9-7.8-8C690.5,118.81,683.84,118.88,677.18,118.88Zm-62.84,0c-6.83,0-13.65-.08-20.48,0-5,.08-7.49,2.38-7.54,7.31q-.21,19.48,0,39c.06,5.12,2.7,7.62,7.87,7.66q20,.16,40,0c5.75-.05,8-2.51,8-8.46q.08-18.73,0-37.46c0-5.81-2.31-8-8.28-8C627.33,118.77,620.84,118.82,614.35,118.83Zm220,61.21c-6.66,0-13.31-.07-20,0-5.41.07-8,2.52-8,8q-.14,19,0,37.93c0,5.52,2.45,8,7.89,8q20,.13,39.93,0c5.55,0,7.86-2.39,7.89-7.93q.08-19,0-37.93c0-5.75-2.41-8-8.29-8.07C847.34,180,840.85,180,834.36,180ZM645.3,234c6.49,0,13,0,19.48,0s8.72-2.16,8.76-8.68q.12-18.48,0-37c0-5.88-2.33-8.29-8.13-8.33q-19.73-.14-39.46,0c-5.82,0-8.13,2.36-8.16,8.21q-.09,18.73,0,37.46c0,6.16,2.23,8.28,8.52,8.33S639,234.05,645.3,234ZM244.64,111.48c7,0,14,.12,21,0,5.65-.13,7.85-2.36,8-8,.15-6.32.12-12.65,0-19-.09-5.8-2.48-8.32-8.2-8.36q-21-.16-41.94,0c-5.76,0-8.17,2.54-8.29,8.31q-.19,9.23,0,18.47c.11,6.13,2.46,8.48,8.5,8.55C230.66,111.54,237.65,111.47,244.64,111.48Zm181.15,61.41v0c6.5,0,13,.08,19.5,0,5.74-.1,8.21-2.54,8.25-8.31q.13-18.75,0-37.49c0-5.94-2.31-8.18-8.2-8.21q-19.75-.11-39.49,0c-5.92,0-8.12,2.26-8.15,8.22q-.08,18.75,0,37.5c0,6,2.45,8.33,8.61,8.39C412.79,172.94,419.29,172.89,425.79,172.89Zm-63.29,0v0c6.48,0,13,.07,19.45,0,6-.09,8.3-2.33,8.33-8.08q.12-19,0-37.91c0-6-2.16-8.05-8.23-8.09q-19.7-.12-39.41,0c-5.74,0-8.12,2.14-8.18,7.7q-.21,19.2,0,38.41c.07,5.55,2.51,7.85,8,8C349.2,173,355.85,172.86,362.5,172.86ZM897.42,234v0c6.82,0,13.64.1,20.46,0,4.69-.09,7.14-2.44,7.18-7.07q.16-19.71,0-39.43c0-4.92-2.5-7.33-7.44-7.37q-20.21-.13-40.43,0c-5.23,0-7.76,2.39-7.81,7.61q-.2,19.21,0,38.43c.06,5.52,2.52,7.8,8.06,7.87C884.11,234.09,890.77,234,897.42,234ZM519.94,180c-6.83,0-13.66-.09-20.49,0-5.29.09-7.67,2.36-7.72,7.65q-.17,19.48,0,39c0,5,2.45,7.34,7.45,7.37q20.24.14,40.47,0c5.35,0,7.73-2.34,7.77-7.59q.17-19.23,0-38.47c0-5.52-2.51-7.84-8-7.92C532.93,180,526.43,180,519.94,180Zm188.4,54c6.66,0,13.32.07,20,0,5.73-.07,8-2.13,8.06-7.76q.18-19.22,0-38.45c-.06-5.6-2.35-7.7-8.07-7.73q-19.73-.11-39.45,0c-5.65,0-8,2.24-8,7.78q-.14,19.23,0,38.45c0,5.49,2.38,7.67,8.08,7.74C695.35,234.1,701.85,234,708.34,234Zm-593.92-158v0c-7.16,0-14.32-.08-21.48,0-5.13.08-7.91,2.38-8,6.92-.19,7.16-.15,14.32,0,21.48.09,4.34,2.63,6.93,6.92,7,14.65.14,29.31.16,44,0,5-.06,7.23-2.55,7.32-7.59.12-6.49.08-13,0-19.48-.07-5.73-2.47-8.18-8.21-8.27C128.08,76,121.25,76.09,114.42,76.09Zm390.69,35.36v-.07c7,0,14,.05,21,0,5.94-.06,8.31-2.25,8.42-8q.18-9.74-.09-19.49c-.15-5.26-2.5-7.62-7.78-7.66q-21.24-.17-42.49,0c-5.46,0-7.86,2.62-8,8.11-.11,6.16-.09,12.33,0,18.5.08,6.32,2.42,8.57,8.91,8.63C491.79,111.5,498.45,111.45,505.12,111.45Zm-456.33.1v0c7.16,0,14.33.11,21.49,0,5.52-.11,7.78-2.51,7.84-8.08.07-6.5.11-13,0-19.49-.09-5.13-2.54-7.74-7.69-7.79q-21.24-.21-42.48,0c-5.72,0-8,2.59-8.11,8.42-.08,6-.05,12,0,18,0,6.78,2.11,8.92,9,9C35.45,111.64,42.12,111.55,48.78,111.55ZM440,111.41c7.17,0,14.33.08,21.5,0,5.55-.08,7.9-2.4,8-8q.2-9.74,0-19.49c-.12-5.19-2.53-7.66-7.79-7.71q-21.24-.2-42.49,0c-5.5,0-7.89,2.57-8,8.05-.13,6.16-.06,12.33,0,18.5,0,6.32,2.36,8.62,8.82,8.68C426.67,111.45,433.34,111.41,440,111.41Zm-140.35,7.36v0c-6.65,0-13.31-.07-20,0-5.73.07-8.11,2.18-8.15,7.72q-.16,19.46.11,38.92c.07,5,2.44,7.38,7.44,7.43q20.46.2,40.92,0c4.95-.06,7.33-2.54,7.37-7.52q.16-19.46-.07-38.92c-.06-5.4-2.27-7.49-7.7-7.58C313,118.68,306.31,118.77,299.65,118.77Zm-79,176.42c6.83,0,13.65.08,20.48,0,5.16-.08,7.73-2.51,7.78-7.67q.19-19.23,0-38.46c0-5.4-2.6-7.93-8.06-8q-20-.15-40,0c-5.47,0-8,2.51-8,8q-.14,19.23,0,38.46c0,5.27,2.43,7.55,7.72,7.64C207.37,295.27,214,295.19,220.69,295.19Zm346.36,61c6.66,0,13.33.07,20,0,5.61-.08,7.91-2.33,7.95-7.92q.11-19,0-38c0-5.56-2.35-8-7.85-8.06q-20-.16-40,0c-5.51,0-8,2.5-8,8q-.15,19,0,38c0,5.6,2.4,7.91,7.94,8C553.72,356.24,560.39,356.16,567.05,356.17Zm-282.92-61v0c6.66,0,13.31.08,20,0,5.47-.08,7.88-2.47,7.91-8q.12-19,0-37.94c0-5.68-2.55-8.12-8.35-8.16q-19.72-.12-39.44,0c-5.43,0-8.12,2.54-8.17,7.86q-.16,19.22,0,38.44c.05,5.52,2.44,7.72,8.08,7.79C270.82,295.24,277.48,295.17,284.14,295.17Zm220,61c6.5,0,13,.05,19.5,0,6.16-.06,8.33-2.27,8.36-8.51q.07-18.5,0-37c0-6.12-2.36-8.5-8.44-8.53q-19.5-.09-39,0c-5.81,0-8.38,2.44-8.42,8.13q-.16,19,0,38c0,5.55,2.4,7.82,8,7.91C490.84,356.25,497.51,356.17,504.17,356.18Zm-346.38-61v0c6.66,0,13.33.06,20,0,5.89-.07,8.22-2.3,8.26-8.16q.13-19,0-38c0-5.47-2.53-8-7.94-8q-20-.13-40,0c-5.44,0-8.05,2.58-8.1,8q-.15,19.24,0,38.48c0,5.2,2.57,7.62,7.74,7.7C144.46,295.28,151.13,295.21,157.79,295.21Zm283.4,61c6.82,0,13.64.1,20.45,0,5-.1,7.37-2.44,7.41-7.38q.15-19.46,0-38.91c0-5-2.38-7.64-7.17-7.69-13.8-.15-27.61-.11-41.41,0-4.57,0-7.18,2.72-7.23,7.21q-.22,19.7,0,39.41c.05,4.92,2.6,7.26,7.53,7.36C427.55,356.26,434.37,356.17,441.19,356.17Zm-94.18-61c6.49,0,13,.06,19.47,0,6.08-.07,8.38-2.36,8.42-8.52q.1-18.47,0-36.94c0-6.12-2.45-8.59-8.4-8.63q-19.47-.11-38.93,0c-6.37,0-8.6,2.35-8.63,8.85q-.08,18.22,0,36.44c0,6.67,2.24,8.78,9.1,8.82C334.36,295.22,340.68,295.19,347,295.18Zm409.35,7v0c-6.66,0-13.32-.07-20,0-5.58.08-8.13,2.41-8.18,7.79q-.17,19.22,0,38.45c.05,5.24,2.54,7.64,7.72,7.67q20,.12,39.95,0c5.93,0,8.06-2.24,8.09-8.21q.09-18.73,0-37.45c0-5.9-2.56-8.27-8.66-8.3C769,302.12,762.68,302.15,756.35,302.15Zm-63,54c6.66,0,13.32.07,20,0,5.28-.08,7.62-2.36,7.66-7.64q.13-19.23,0-38.46c0-5.19-2.48-7.79-7.57-7.84q-20.23-.17-40.46,0c-5.15,0-7.68,2.57-7.72,7.74q-.17,19.23,0,38.46c0,5.45,2.54,7.69,8.15,7.76C680,356.21,686.7,356.16,693.36,356.14ZM551.5,118.85v-.07c-6.82,0-13.65,0-20.47,0-4.3,0-7.24,2-7.3,6.46-.19,13.48-.17,27-.07,40.44,0,4.6,2.77,7.08,7.3,7.11,13.65.1,27.3.13,40.94,0,4.91-.05,7.34-2.63,7.37-7.53q.14-19.47,0-38.95c0-5.31-2.29-7.37-7.78-7.44C564.81,118.79,558.15,118.85,551.5,118.85Zm78.92,237.3v0c6.49,0,13,.07,19.48,0,6-.08,8.13-2.19,8.16-8.12q.09-18.73,0-37.46c0-5.83-2.31-8.3-8.09-8.35q-20-.16-40,0c-5.1,0-7.69,2.58-7.75,7.75q-.19,19.23,0,38.46c.05,5.44,2.54,7.67,8.18,7.74C617.1,356.22,623.76,356.15,630.42,356.15Zm-220.9-61v0c6.82,0,13.64.09,20.45,0,5.12-.09,7.58-2.2,7.65-7.2q.3-19.7,0-39.4c-.06-4.93-2.65-7.35-7.56-7.39q-20.45-.18-40.9,0c-4.92,0-7.29,2.58-7.33,7.54q-.15,19.45,0,38.91c0,5.23,2.42,7.51,7.72,7.59C396.21,295.25,402.86,295.17,409.51,295.17Zm125.78,0v0c6.66,0,13.33.05,20,0,5.94-.06,8.24-2.23,8.29-8.11q.14-18.74,0-37.48c0-6.07-2.45-8.35-8.62-8.38q-19.24-.09-38.48,0c-6.44,0-8.68,2.27-8.7,8.74q-.06,18.49,0,37c0,6.2,2.17,8.26,8.51,8.31S529,295.16,535.29,295.16ZM488.56,118.83v0c-6.33,0-12.66,0-19,0-6.93,0-8.94,2-9,8.93q-.07,18,0,36c0,6.87,2.1,9.07,8.88,9.12q19.24.13,38.47,0c6,0,8.33-2.26,8.37-8.07q.15-19.23,0-38.47c0-5.36-2.24-7.37-7.76-7.44C501.89,118.77,495.22,118.83,488.56,118.83ZM472.84,295.16v0c6.67,0,13.33.08,20,0,5.19-.08,7.65-2.14,7.72-7.12q.28-19.74,0-39.49c-.06-4.85-2.72-7.33-7.61-7.37q-20.49-.18-41,0c-4.5,0-7.12,2.53-7.14,7.22,0,13.16-.1,26.33,0,39.49,0,5,2.44,7.22,7.49,7.3C459.17,295.24,466,295.16,472.84,295.16ZM189.25,356.22c6.82,0,13.65.09,20.47,0,5.38-.09,7.72-2.2,7.8-7.56q.26-19.47,0-38.94c-.06-5.12-2.74-7.58-7.91-7.62q-20.22-.13-40.45,0c-5,0-7.4,2.5-7.45,7.42q-.2,19.47-.07,38.95c0,5.31,2.33,7.61,7.62,7.73C175.94,356.34,182.6,356.23,189.25,356.22Zm63.12,0v0c6.66,0,13.32.07,20,0,5.68-.08,7.89-2.26,7.93-7.86q.12-19,0-38c0-5.86-2.4-8.26-8.12-8.29q-19.72-.1-39.45,0c-5.7,0-8.22,2.47-8.27,8.25q-.17,19,0,38c0,5.62,2.41,7.88,8,7.95C239.06,356.3,245.72,356.24,252.38,356.24Zm125.7,0v0c7,0,14,.05,21,0,4.57,0,7.23-2.38,7.25-7q.09-20,0-39.91c0-4.68-2.75-7-7.25-7.08-13.64-.1-27.27-.13-40.91,0-4.91,0-7.56,2.59-7.61,7.38q-.22,19.45,0,38.91c.07,5.6,2.47,7.72,8.15,7.8C365.1,356.32,371.59,356.25,378.08,356.25Zm346.4-61.15v0c6.66,0,13.31.06,20,0,5.66-.07,8.06-2.23,8.11-7.79q.18-19.22-.06-38.44c-.07-5.26-2.53-7.65-7.72-7.69q-20-.16-39.94,0c-5.61,0-8,2.38-8,7.88q-.12,19.22,0,38.44c0,5.32,2.29,7.52,7.65,7.6C711.16,295.18,717.82,295.1,724.48,295.1Zm-62.67,0v0c6.66,0,13.32.07,20,0,5.35-.07,7.74-2.2,7.81-7.54q.24-19.22,0-38.45c-.05-5.49-2.58-7.9-8.08-7.93q-19.72-.13-39.45,0c-5.88,0-8.19,2.33-8.22,8.19q-.11,19,0,38c0,5.58,2.29,7.75,8,7.82C648.49,295.19,655.15,295.13,661.81,295.13Zm-346,61.1v0c6.49,0,13,.07,19.46,0,5.72-.08,8.15-2.17,8.22-7.69q.24-19.21,0-38.42c-.06-5.5-2.55-7.9-8-8q-20-.17-39.91,0c-5.44,0-7.8,2.49-7.84,8.05q-.14,19,0,37.92c0,6,2.28,8.09,8.21,8.13C302.54,356.26,309.19,356.23,315.84,356.23ZM787.09,295.1c6.66,0,13.32.06,20,0,5.64-.07,7.9-2.29,7.93-7.87q.1-19,0-38c0-5.56-2.35-8-7.83-8.08q-20-.16-40,0c-5.48,0-8,2.49-8,8q-.15,19,0,38c0,5.71,2.49,8,8.4,8C774.1,295.15,780.59,295.1,787.09,295.1ZM700.67,111.33c7.16,0,14.31.1,21.47,0,5.23-.1,7.56-2.46,7.67-7.71.13-6.32.07-12.65,0-19-.06-5.76-2.44-8.37-8.13-8.41q-21-.17-41.93,0c-5.64,0-7.95,2.35-8,7.85q-.18,9.73,0,19.47c.09,5.63,2.22,7.7,8,7.77C686.69,111.4,693.68,111.33,700.67,111.33Zm65.15,0v0c7,0,14,.08,21,0,5.6-.08,7.94-2.36,8-7.84q.18-9.73,0-19.46c-.1-5.16-2.5-7.7-7.73-7.75q-21.46-.2-42.91,0c-5.18.05-7.37,2.56-7.46,7.92q-.15,9.48,0,19c.09,6,2.13,8.09,8.14,8.17C751.85,111.41,758.84,111.33,765.82,111.33Zm-131,0v0c7.32,0,14.65.13,22,0,5.11-.13,7.23-2.37,7.32-7.45.11-6.49.09-13,0-19.48-.07-5.82-2.31-8.12-8.25-8.16q-21-.14-42,0c-5.44,0-7.79,2.54-7.87,8.07q-.13,9.49,0,19c.08,5.78,2.37,8,8.3,8.09C621.19,111.44,628,111.37,634.84,111.37ZM771.29,425.94c6.83,0,13.66.07,20.5,0,5-.07,7.6-2.31,7.8-7.14.24-5.82.21-11.67,0-17.49-.17-4.44-2.58-7.19-7.26-7.2-13.66-.05-27.33-.09-41,0-5,0-7.31,2.38-7.42,7.38-.12,5.5-.11,11,0,16.5s2.33,7.88,7.9,7.95C758.29,426,764.79,425.95,771.29,425.94Zm125.69,0c6.66,0,13.32.05,20,0,5.82-.06,8.08-2.35,8.15-8.24.07-5.33.08-10.66,0-16s-2.41-7.56-7.73-7.6q-20-.13-40,0c-5.48,0-7.86,2.44-8,8q-.17,8,0,16c.13,5.53,2.47,7.79,8.06,7.86C884,426,890.49,425.94,897,425.94ZM309.84,111.45v0c6.82,0,13.64.06,20.46,0,6.6-.08,8.7-2.19,8.76-8.66q.08-9,0-18c0-6.31-2.38-8.69-8.81-8.73q-20.46-.1-40.92,0c-6.11,0-8.42,2.44-8.48,8.48s0,12,0,18c0,6.9,1.91,8.78,9,8.86C296.53,111.51,303.19,111.45,309.84,111.45Zm521.24-.16v0c7,0,14,.08,21,0,6-.08,8-2.17,8.05-8.23.07-6.32.08-12.64,0-19-.08-5.24-2.38-7.83-7.52-7.88q-21.45-.2-42.9,0c-5.12,0-7.52,2.65-7.6,7.83q-.15,9.73,0,19.46c.08,5.33,2.29,7.63,7.57,7.73C816.78,111.39,823.93,111.3,831.08,111.3Zm-260.58.12v-.07c7.16,0,14.32.06,21.47,0,4.62-.06,7.1-2.54,7.15-7.17.08-6.82.11-13.65,0-20.48-.08-4.88-2.5-7.43-7.43-7.47q-21.47-.18-43,0c-5.37.05-7.66,2.68-7.72,8.25q-.1,9.24,0,18.48c.06,6.12,2.33,8.39,8.51,8.46C556.52,111.48,563.51,111.42,570.5,111.42Zm-195.55,0v0c7.15,0,14.3.1,21.45,0,5.29-.1,7.58-2.44,7.66-7.67q.14-9.72,0-19.45c-.08-5.5-2.46-8-7.87-8.07q-21.2-.15-42.39,0c-5.44,0-7.85,2.63-7.92,8-.08,6.32-.06,12.64,0,19,.07,5.9,2.23,8.15,8.12,8.24C361,111.51,368,111.43,375,111.43Zm521.35-.11v0c7.15,0,14.3.12,21.44,0,5.09-.11,7.26-2.35,7.34-7.4q.17-10,0-19.95c-.08-5.13-2.53-7.63-7.73-7.67q-21.19-.15-42.39,0c-5.41,0-7.85,2.62-7.92,8q-.11,9.47,0,19c.08,5.82,2.29,8,8.28,8.07C882.34,111.38,889.32,111.32,896.31,111.32ZM513.25,9.86l.17-.28h-63v.28Z"/><path class="cls-1" d="M573,243.42a5.42,5.42,0,0,0,.39-.39c15-.24,29.93-.54,44.89-.7,4.64-.05,7,2.32,6.93,7.15-.1,12.49-.07,25,0,37.48,0,4.35-2.1,6.59-6.33,6.61q-20.24.1-40.48,0c-4,0-6.27-2.33-6.22-6.28C572.4,272.65,572.75,258,573,243.42Z"/><path d="M441.45,363.81h143.4c8.86,0,10.2,1.32,10.21,10.08q0,21.49,0,43c0,7.11-2.08,9.1-9.3,9.11L298,426c-8.5,0-10.16-1.68-10.17-10.26q0-21.49,0-43c0-7.29,1.8-9.05,9.24-9.05q72.2,0,144.4,0Zm.05,60.53q71.7,0,143.4,0c7.51,0,9-1.53,9-9.1q0-20.74,0-41.47c0-7.24-1.63-8.88-8.75-8.88q-143.9,0-287.8,0c-6.48,0-8.19,1.73-8.21,8.38,0,13.49,0,27,0,40.47,0,9.73.86,10.59,10.5,10.59Z"/><path d="M10.92,9.88H407.07l0,.91c-4.16,0-8.31,0-12.47,0-8.78,0-17.57-.06-26.35-.15-14.08-.14-28.15-.35-42.23-.46-2.31,0-4.63.5-6.95.48-5.56-.06-11.13-.47-16.68-.41-6.64.07-13.28.6-19.93.74-14.93.31-29.87.63-44.81.7-8.93,0-17.86-.6-26.79-.56-12.6.06-25.2.6-37.81.67-11.72.07-23.45-.3-35.17-.29-10.31,0-20.61.28-30.92.46-16.74.29-33.49.69-50.23.87-13.77.15-27.55.09-41.32,0-1.63,0-3.26-.85-4.89-1.31Z"/><path d="M806.84,395c0-7.65,0-15.3,0-23,.05-6,2.21-8.19,8-8.21q19.71-.05,39.42,0c5.88,0,8.21,2.17,8.26,8.12q.18,22.95,0,45.9c0,5.8-2.51,8-8.43,8q-19.46.08-38.92,0c-6.15,0-8.31-2.24-8.36-8.47-.05-7.48,0-15,0-22.45Zm1.3.7c0,7.93-.07,15.22,0,22.51.05,3.72,2,6,5.86,6,13.8.07,27.6.2,41.38-.18,1.91-.05,5.25-2.78,5.37-4.45.57-7.86.26-15.79.26-23.91Zm52.95-2.4c0-8.09.14-15.53-.06-23-.1-3.89-2.8-5.43-6.42-5.43q-20,0-39.9,0c-4.19,0-6.54,2.15-6.58,6.42-.06,6.15,0,12.3-.06,18.45,0,2.49.77,3.58,3.42,3.57C827.78,393.27,844.06,393.31,861.08,393.31Z"/><path d="M63.5,234.15c-11.67,0-23.33,0-35,0-6.55,0-8.78-2.19-8.8-8.63q-.08-18.5,0-37c0-6.22,2.29-8.54,8.39-8.55q35-.07,70,0c6.45,0,8.83,2.31,8.87,8.68q.12,18.5,0,37c0,6.17-2.34,8.48-8.46,8.52C86.83,234.2,75.17,234.15,63.5,234.15Zm-.56-1.69v0c11.66,0,23.32,0,35,0,5.87,0,7.47-1.62,7.5-7.42q.09-18,0-36c0-5.9-1.88-7.84-7.77-7.86q-34.48-.08-69,0c-5.62,0-7.51,2-7.55,7.56q-.1,18,0,36c0,6,1.78,7.68,7.84,7.72C40.28,232.51,51.61,232.46,62.94,232.46Z"/><path d="M637.78,426c-9.16,0-18.31.06-27.47,0-5.71,0-8.17-2.51-8.2-8.28q-.09-22.72,0-45.45c0-6.2,2.26-8.38,8.47-8.39q27.22,0,54.44,0c6.2,0,8.43,2.13,8.46,8.4q.1,22.72-.11,45.44c-.06,6.16-2.32,8.22-8.64,8.26C655.76,426,646.77,426,637.78,426Zm.22-1.65c9,0,18,.08,27,0,5.51-.06,7.08-1.69,7.11-7.27q.09-22.48,0-45c0-5.28-2-7.13-7.36-7.15q-26.73-.07-53.45,0c-5.77,0-7.56,1.72-7.58,7.36q-.1,22.23,0,44.46c0,6.05,1.58,7.53,7.85,7.57C620.35,424.36,629.18,424.31,638,424.31Z"/><path d="M840.89,121c1.85-.73,3.69-2.09,5.55-2.1,23.63-.13,47.26-.1,70.9,0,5.67,0,7.85,2.17,7.89,7.86q.13,19,0,37.94c0,5.63-2.3,8-7.82,8.05q-35.45.12-70.9,0c-5.76,0-8.22-2.52-8.25-8.24-.07-12.48-.17-25,.08-37.44,0-2.1,1.78-4.16,2.74-6.23-.45,2.08-1.26,4.17-1.28,6.25-.12,12.32-.1,24.64,0,37,0,5.42,1.69,7,7.35,7q34.72.08,69.44,0c5.74,0,7.4-1.74,7.43-7.52.06-11.66,0-23.31,0-35,0-7.16-1.56-8.68-8.88-8.69-21.65,0-43.29,0-64.94,0A82.56,82.56,0,0,0,840.89,121Z"/><path d="M86.86,356.31H29.41c-7.9,0-9.76-1.83-9.77-9.65q0-17.73,0-35.46c0-6.75,2.28-9.14,8.9-9.15q58.44,0,116.89,0c6.8,0,9,2.28,9,9,0,11.82.08,23.64,0,35.46,0,8-1.83,9.78-9.66,9.78H86.86Zm.36-1.62v0c19.32,0,38.64,0,58,0,6.14,0,7.83-1.68,7.86-7.62q.08-18,0-36c0-5.66-1.79-7.66-7.41-7.67q-58.45-.14-116.91-.05c-5.89,0-7.61,2-7.64,8-.05,11.49,0,23,0,34.47,0,7.32,1.53,8.88,8.73,8.89Q58.49,354.71,87.21,354.68Z"/><path d="M858.09,356.13q-29,0-57.93,0c-7.66,0-9.31-1.7-9.32-9.48,0-12,0-24,0-36,0-6.21,2.26-8.51,8.38-8.51q58.93-.05,117.86,0c5.8,0,8,2.42,8.06,8.33q.05,18.73,0,37.45c0,6-2.05,8.09-8.13,8.11-19.64.06-39.29,0-58.93,0Zm-.23-1.47c19,0,38,0,57,0,7.82,0,9.15-1.36,9.16-8.92,0-11.5,0-23,0-34.49,0-5.88-1.82-7.77-7.76-7.9-6.66-.14-13.33,0-20,0q-47.23,0-94.46,0c-8.13,0-9.64,1.45-9.65,9q0,16.49,0,33c0,8,1.31,9.35,9.27,9.36Q829.62,354.7,857.86,354.66Z"/><path d="M874,295.09c-14.16,0-28.32,0-42.48,0-6.94,0-9-1.93-9-8.89-.1-12-.08-24,0-36,0-6.8,2.31-9,9-9q42.48,0,85,0c6.41,0,8.64,2.29,8.65,8.76q0,18.24,0,36.48c0,6.62-2,8.66-8.62,8.68C902.33,295.12,888.17,295.09,874,295.09Zm0-1.42v0c14,0,28,0,42,0,6.3,0,7.91-1.73,7.94-8.1q.06-17.48,0-35c0-6.4-1.85-8.27-8.42-8.28q-41.71-.08-83.42,0c-6.44,0-8.13,1.85-8.15,8.48,0,11.16,0,22.31,0,33.47,0,8.23,1.18,9.42,9.64,9.44C847,293.69,860.54,293.66,874,293.66Z"/><path d="M145.82,394.37c0-7.66-.08-15.31,0-23,.08-5.36,2.28-7.6,7.62-7.64q20.23-.15,40.45,0c5.3,0,7.79,2.31,7.83,7.58q.2,23.47,0,46.94c-.05,5.4-2.66,7.74-8.22,7.77q-19.73.12-39.45,0c-5.81,0-8.16-2.41-8.23-8.2-.08-7.82,0-15.65,0-23.47Zm54.41.28h0c0-7.5.06-15,0-22.49-.06-5.37-1.89-7.24-7.24-7.27q-19.24-.11-38.48,0c-5.34,0-7.27,1.86-7.31,7.23q-.15,22.48,0,45c0,5.34,1.91,7.18,7.3,7.21q19.24.11,38.48,0c5.56,0,7.17-1.67,7.23-7.15C200.29,409.64,200.22,402.14,200.22,394.65Z"/><path d="M244.75,363.74c9.15,0,18.31-.07,27.46,0,5.57.06,7.84,2.34,7.87,8q.1,23.22,0,46.43c0,5.45-2.49,7.83-8.05,7.85q-27.71.1-55.42,0c-5.47,0-7.78-2.46-7.81-8q-.1-23,0-45.93c0-6.19,2.21-8.28,8.53-8.31,9.15,0,18.31,0,27.46,0Zm-.19,1.13c-8.83,0-17.66,0-26.49,0-6.08,0-7.9,1.74-7.93,7.62q-.09,22.24,0,44.49c0,5.45,1.83,7.29,7.19,7.31q27,.11,54,0c5.62,0,7.47-1.91,7.49-7.57q.09-22,0-44c0-6.09-1.94-7.84-8.25-7.87C261.89,364.85,253.22,364.88,244.56,364.88Z"/><path d="M75.71,394.79c0,7.49.08,15,0,22.48-.09,6.47-2.4,8.75-8.79,8.77q-19.23.08-38.47,0c-6.46,0-8.74-2.23-8.78-8.69q-.11-22.48,0-45c0-6.62,2.11-8.68,8.68-8.7q19.23-.08,38.47,0c6.65,0,8.83,2.24,8.88,9.12.05,7.33,0,14.65,0,22Zm-1.59-.11c0-7.5.06-15,0-22.49-.05-5.37-1.9-7.26-7.2-7.29q-19.25-.09-38.49,0c-5.39,0-7.31,1.87-7.34,7.18q-.12,22.49,0,45c0,5.44,1.81,7.17,7.27,7.2q19.24.13,38.49,0c5.7,0,7.23-1.71,7.27-7.63C74.15,409.35,74.11,402,74.12,394.68Z"/><path d="M82.83,394.66c0-7.83-.08-15.65,0-23.48.07-5.07,2.26-7.35,7.3-7.4q20.48-.17,41,0c5.15,0,7.63,2.54,7.66,7.77q.15,23.23,0,46.46c0,5.68-2.65,8.07-8.48,8.09q-19.48.09-39,0c-6.34,0-8.51-2.36-8.53-8.91,0-7.49,0-15,0-22.48Zm54.42-.16h0c0-7.33.05-14.66,0-22-.06-5.76-1.78-7.57-7.42-7.6q-19.25-.11-38.49,0c-5.14,0-7.12,1.81-7.16,6.84-.12,15.33-.07,30.66,0,46,0,4.22,2.17,6.54,6.47,6.54,13.33,0,26.66,0,40,0,4.57,0,6.68-2.25,6.65-6.79C137.21,409.83,137.25,402.17,137.25,394.5Z"/><path d="M71.77,241q21,0,41.95,0c7,0,9.28,2.27,9.3,9.23q.06,18,0,36c0,6.76-2.25,9-9,9q-42.95.07-85.89,0c-6.23,0-8.42-2.19-8.46-8.44q-.11-18.73,0-37.45c0-6.07,2.36-8.3,8.61-8.33C42.81,241,57.29,241,71.77,241Zm-.2,52.62v0c14.15,0,28.29.06,42.44,0,5.91,0,7.51-1.64,7.55-7.42q.13-18,0-35.95c0-6-1.78-7.87-7.74-7.89q-42.44-.13-84.88,0c-6.15,0-7.8,1.93-7.82,8.3q-.06,17.23,0,34.45c0,6.94,1.62,8.55,8.51,8.57C43.61,293.65,57.59,293.63,71.57,293.63Z"/><path d="M268.45,180c6.49,0,13-.07,19.48,0,5.48.08,8,2.51,8.05,7.91q.14,19.23,0,38.46c0,5.21-2.51,7.67-7.72,7.71q-20.23.15-40.46,0c-5.22,0-7.73-2.5-7.77-7.65q-.16-19.23,0-38.46c0-5.44,2.56-7.94,8-8,6.82-.1,13.65,0,20.48,0Zm-.71,52.43v0c6.5,0,13,.09,19.49,0,5.66-.1,7.23-1.62,7.27-7.13q.15-18.24,0-36.48c0-5.65-1.89-7.58-7.5-7.63q-19.24-.15-38.48,0c-5.07,0-7,2-7,7-.08,12.49,0,25,0,37.48,0,4.56,2.16,6.77,6.7,6.76C254.75,232.41,261.24,232.42,267.74,232.42Z"/><path d="M179.82,76.1c6.66,0,13.32-.05,20,0,6.19.06,8.66,2.31,8.81,8.3q.24,9.48,0,19c-.16,5.82-2.52,8.1-8.44,8.13q-20.73.12-41.46,0c-6.19,0-8.46-2.39-8.55-8.49s-.1-12.32,0-18.48c.09-5.84,2.71-8.38,8.69-8.45,7-.08,14,0,21,0Zm-.69,33.73c7.16,0,14.32,0,21.48,0,4.21,0,6.51-2.12,6.51-6.46q0-9.49,0-19c0-4.46-2-6.82-6.64-6.82-14,0-28-.11-42,0-5.11,0-6.67,1.83-6.74,7.18-.08,5.83-.06,11.65,0,17.48s1.6,7.5,7.36,7.6C165.8,109.91,172.46,109.82,179.12,109.83Z"/><path d="M680.77,394.81c0-7.66-.06-15.31,0-23,.06-5.83,2.11-8,7.74-8q20-.1,39.94,0c5.68,0,7.93,2.14,8,7.81q.17,23.21,0,46.43c0,5.54-2.48,7.81-8.07,7.84q-20,.11-39.94,0c-5.22,0-7.6-2.44-7.66-7.65C680.69,410.45,680.76,402.63,680.77,394.81Zm54.34.06c0-7.66.07-15.33,0-23-.06-5-2-6.94-7-7q-19.49-.12-39,0c-5,0-7,1.93-7,7q-.14,22.74,0,45.48c0,5.06,1.9,6.88,7.06,6.92q19.49.14,39,0c5.24,0,6.89-1.76,7-6.94C735.17,409.86,735.1,402.37,735.11,394.87Z"/><path d="M141.81,234.11c-6.67,0-13.33.07-20,0-5.21-.07-7.77-2.46-7.81-7.61q-.17-19.5,0-39c0-4.9,2.59-7.45,7.44-7.49q20.5-.17,41,0c5.16,0,7.53,2.58,7.57,7.87q.14,19.25,0,38.5c0,5.2-2.54,7.64-7.7,7.72C155.48,234.18,148.65,234.11,141.81,234.11Zm.19-1.69v0c6.16,0,12.33,0,18.49,0,6.47-.05,8.12-1.57,8.16-7.87q.12-17.74,0-35.48c0-6-1.87-7.86-7.78-7.91q-19-.16-38,0c-5.41,0-7.27,1.88-7.31,7.23q-.14,18.49,0,37c0,5.26,1.71,6.91,6.92,7C129,232.51,135.51,232.42,142,232.42Z"/><path d="M204.49,234.16c-6.33,0-12.66,0-19,0s-8.56-2.31-8.6-8.36q-.11-18.73,0-37.47c0-6,2.42-8.33,8.6-8.35q19.48-.08,39,0c6,0,8.4,2.5,8.44,8.59q.1,18.48,0,37c0,6.3-2.45,8.54-8.94,8.58s-13,0-19.48,0Zm.19-1.69v0c6.66,0,13.33,0,20,0,4.55,0,6.75-2.14,6.74-6.7,0-12.49-.08-25,0-37.48,0-4.85-2.41-7.08-7-7.1-13-.06-26,0-39,0-4.69,0-7.08,2.39-7.08,7.1,0,12.33-.09,24.65,0,37,0,5.36,1.91,7.11,7.35,7.2C192,232.54,198.35,232.46,204.68,232.46Z"/><path d="M330.86,234.11c-6.65,0-13.31.07-20,0-5.5-.07-8-2.42-8-7.9-.09-13,0-26,0-38.93,0-4.64,2.62-7.18,7.14-7.22,13.81-.12,27.62-.1,41.43,0,4.56,0,7.23,2.63,7.28,7.15.15,13.31.23,26.62,0,39.93-.07,4.44-2.87,7-7.47,7-6.82,0-13.64,0-20.46,0Zm.06-1.67c6.5,0,13,.08,19.49,0,5.22-.09,6.83-1.72,6.86-7q.11-18.49,0-37c0-5.3-1.91-7.22-7.27-7.27-12.83-.11-25.65,0-38.48,0-4.59,0-7.24,2.15-7.25,6.94q0,18.74,0,37.48c0,4.78,2.46,6.95,7.18,6.9C317.92,232.39,324.42,232.44,330.92,232.44Z"/><path d="M111.15,118.75c6.5,0,13-.07,19.49,0,5.74.09,8.09,2.22,8.15,7.75q.21,19.24,0,38.48c0,5.25-2.83,7.87-8.22,7.91q-19.74.13-39.48,0c-6,0-8.32-2.52-8.34-8.68q-.06-18.49,0-37c0-6.3,2.15-8.45,8.35-8.53,6.66-.08,13.33,0,20,0Zm-.5,52.38c6.5,0,13,.07,19.49,0,5.28-.08,7.06-1.71,7.1-6.79q.15-18.74,0-37.48c0-5-2-6.87-7.06-6.9q-19.49-.1-39,0c-5,0-6.92,1.94-7,7q-.15,18.49,0,37c0,5.3,1.95,7,7.41,7.11C98,171.18,104.31,171.12,110.64,171.12Z"/><path d="M47.68,118.74c6.83,0,13.67-.11,20.49,0,5.17.11,7.67,2.6,7.71,7.73q.16,19,0,38c0,5.75-2.56,8.34-8.22,8.39q-20,.15-40,0c-5.44,0-7.81-2.57-7.84-8.12q-.1-18.75,0-37.5c0-6.3,2.15-8.45,8.34-8.51C34.68,118.69,41.18,118.74,47.68,118.74Zm-.18,52.39v0c6.33,0,12.66,0,19,0s7.81-1.54,7.83-7.58q.07-18,0-36c0-5.72-1.75-7.57-7.38-7.6q-19.23-.12-38.47,0c-5.26,0-7.13,1.94-7.17,7.38q-.15,18.24,0,36.47c.05,5.62,1.88,7.25,7.73,7.31C35.18,171.17,41.34,171.12,47.5,171.12Z"/><path d="M770.94,234c-6.32,0-12.65,0-19,0-6.52-.06-8.8-2.28-8.82-8.64q-.07-18.47,0-36.94c0-5.83,2.4-8.34,8.08-8.38q20-.12,39.94,0c5.21,0,7.72,2.5,7.76,7.64q.14,19.47,0,38.94c0,4.83-2.63,7.26-7.52,7.34-6.82.1-13.65,0-20.47,0Zm-.06-1.63v0c6.66,0,13.32,0,20,0,4.17,0,6.77-1.84,6.8-6.19q.12-19.24,0-38.47c0-4.24-2.46-6.55-6.57-6.58q-20-.17-40,0c-4.12,0-6.47,2.21-6.46,6.57q0,19,0,38c0,4.6,2.24,6.7,6.75,6.68C757.89,232.38,764.38,232.4,770.88,232.4Z"/><path d="M174.5,118.73c6.5,0,13-.07,19.49,0,5.56.08,8,2.41,8,7.89q.13,19,0,38c0,5.53-2.39,8.19-7.78,8.25q-20.24.22-40.48,0c-5.12,0-7.69-2.66-7.73-7.79q-.16-19.49,0-39c0-4.88,2.52-7.27,7.49-7.36,7-.13,14,0,21,0Zm-.57,52.38v0c6.5,0,13,.07,19.49,0,5.27-.08,7.13-1.73,7.18-6.79q.18-18.49,0-37c-.06-5.52-1.89-7.35-7.17-7.38-13-.09-26,0-39,0-4.47,0-6.86,2-6.86,6.62q0,19,0,38c0,4.56,2.32,6.65,6.85,6.61C160.94,171.06,167.43,171.11,173.93,171.11Z"/><path d="M803,118.85c6.66,0,13.31-.06,20,0,5.62.07,8,2.33,8,7.85q.12,19,0,37.94c0,5.54-2.38,8-7.87,8.08q-20,.19-39.94,0c-5.53,0-7.93-2.49-8-8q-.14-19,0-37.94c0-5.53,2.41-7.92,7.87-8C789.67,118.78,796.33,118.84,803,118.85Zm.45,1.06c-6.33,0-12.66,0-19,0-6.14,0-7.77,1.62-7.79,7.67q-.08,18,0,36c0,5.85,1.64,7.52,7.39,7.55q19,.1,38,0c5.85,0,7.61-1.66,7.67-7.35q.17-18.23,0-36.47c-.05-5.49-2.09-7.3-7.77-7.35C815.77,119.87,809.6,119.91,803.44,119.91Z"/><path d="M740.35,172.81c-6.66,0-13.32.08-20,0-5.51-.09-8.06-2.47-8.12-7.91q-.18-19.22,0-38.45c.06-5.22,2.58-7.54,7.81-7.56q20-.08,39.95,0c5.71,0,7.93,2.16,8,7.77q.13,19.22,0,38.45c0,5.15-2.5,7.58-7.71,7.67-6.66.12-13.32,0-20,0Zm-.35-1.69c6.66,0,13.33,0,20,0,4.56,0,6.86-2.21,6.87-6.67,0-12.66.05-25.32,0-38,0-4.15-2.25-6.53-6.54-6.54q-20,0-40,0c-4.27,0-6.48,2.16-6.49,6.46,0,12.66,0,25.32,0,38,0,4.55,2.2,6.75,6.73,6.73C727,171.09,733.5,171.11,740,171.12Z"/><path d="M236.44,118.77c6.82,0,13.65-.08,20.47,0,5.05.08,7.47,2.26,7.53,7.28q.24,19.47,0,38.94c-.06,5.41-2.64,7.8-8.15,7.85q-19.72.15-39.44,0c-5.85,0-8.26-2.51-8.29-8.21q-.08-18.72,0-37.44c0-6.34,2.12-8.43,8.35-8.49,6.49-.06,13,0,19.47,0Zm0,52.35c6.5,0,13,.07,19.5,0,5.38-.07,7.15-1.85,7.18-7.25q.08-18.25,0-36.49c0-5.43-1.86-7.36-7.11-7.4q-19.5-.13-39,0c-4.95,0-6.89,2-6.93,7.07q-.13,18.5,0,37c0,5.36,1.86,7,7.37,7.1C223.74,171.17,230.08,171.12,236.41,171.12Z"/><path d="M393.4,234.11c-6.49,0-13,.06-19.46,0-5.91-.07-8.15-2.26-8.18-8.16q-.12-18.71,0-37.42c0-6.25,2.26-8.49,8.36-8.51q19.46-.07,38.92,0c6.18,0,8.53,2.28,8.57,8.4q.13,18.71,0,37.42c-.05,5.83-2.44,8.15-8.21,8.23-6.65.09-13.31,0-20,0Zm.29-1.62v-.06c6.5,0,13,.09,19.49,0,5.24-.09,6.88-1.74,6.91-6.95q.12-18.49,0-37c0-5.3-1.93-7.23-7.29-7.27q-19.24-.16-38.48,0c-5.25,0-7.2,2.08-7.24,7.38q-.13,18.24,0,36.48c0,5.61,1.85,7.36,7.6,7.43C381,232.55,387.36,232.49,393.69,232.49Z"/><path d="M456.23,234.08c-6.33,0-12.66.06-19,0s-8.54-2.25-8.56-8.36q-.07-18.74.06-37.48c0-5.81,2.44-8.2,8.21-8.23q19.74-.08,39.48,0c5.53,0,8,2.37,8.1,7.89q.21,19.24,0,38.48c-.07,5.28-2.54,7.56-7.78,7.64C469.89,234.16,463.06,234.08,456.23,234.08Zm.27-1.65v0c6.66,0,13.33,0,20,0,4.51,0,6.66-2.23,6.64-6.82-.07-12.33,0-24.65,0-37,0-5.34-1.93-7.38-7.17-7.43q-19.49-.17-39,0c-5,.05-6.85,2.14-6.88,7.2q-.12,18.49,0,37c0,5.07,1.85,6.92,6.95,7C443.51,232.54,450,232.43,456.5,232.43Z"/><path d="M582.51,234.06c-6.66,0-13.32.07-20,0-5.34-.08-7.65-2.32-7.68-7.61q-.12-19.48,0-39c0-5,2.42-7.34,7.43-7.38q20.23-.16,40.47,0c5.29,0,7.77,2.38,7.83,7.63q.21,19.48,0,39c-.07,5-2.59,7.26-7.55,7.35-6.83.12-13.66,0-20.48,0Zm.16-1.63v0c6.5,0,13,.09,19.49,0,5.25-.1,6.95-1.77,7-6.9q.11-18.49,0-37c0-5.28-1.93-7.29-7.26-7.34q-19.24-.18-38.48,0c-5.34,0-7.26,2-7.29,7.33q-.13,18.49,0,37c0,5.13,1.81,6.82,7,6.92C569.67,232.52,576.17,232.43,582.66,232.43Z"/><path d="M677.18,118.88c6.66,0,13.32-.07,20,0,5.55.07,7.77,2.33,7.8,8q.1,19,0,38c0,5.23-2.38,7.88-7.51,7.93q-20.47.22-40.95,0c-4.81-.05-7.32-2.74-7.36-7.6q-.15-19.22,0-38.45c0-5.54,2.46-7.8,8-7.87,6.66-.09,13.32,0,20,0ZM677,171.12c6.5,0,13,.07,19.49,0,5.4-.08,7.2-1.79,7.25-7.27q.17-18.24,0-36.48c-.05-5.56-2-7.39-7.68-7.42q-19-.11-38,0c-5.52,0-7.34,1.72-7.38,7.07q-.12,18.49,0,37c0,5.43,1.74,7,7.3,7.12C664.34,171.18,670.67,171.11,677,171.12Z"/><path d="M614.35,118.83c6.49,0,13-.05,19.48,0,6,.06,8.25,2.23,8.28,8q.1,18.73,0,37.46c0,5.94-2.23,8.4-8,8.46q-20,.19-40,0c-5.16,0-7.81-2.54-7.87-7.66q-.22-19.47,0-39c.05-4.93,2.57-7.23,7.54-7.31C600.7,118.76,607.52,118.83,614.35,118.83Zm.15,52.26v0c6.5,0,13,.1,19.49,0,5.09-.1,6.89-1.93,6.92-7.06q.12-18.24,0-36.48c0-5.62-2-7.57-7.5-7.6q-19.24-.1-38.48,0c-5.18,0-7,1.8-7.06,6.87-.09,12.49,0,25-.06,37.48,0,4.56,2.18,6.78,6.69,6.79Z"/><path d="M834.36,180c6.49,0,13,0,19.47,0,5.88.06,8.26,2.32,8.29,8.07q.11,19,0,37.93c0,5.54-2.34,7.9-7.89,7.93q-20,.11-39.93,0c-5.44,0-7.85-2.5-7.89-8q-.14-19,0-37.93c0-5.45,2.59-7.9,8-8C821.05,180,827.71,180,834.36,180Zm-.2,52.37h20c4.44,0,6.82-2.07,6.81-6.68,0-12.5,0-25-.05-37.49,0-4.88-2.12-7-7.07-7.06q-19.49-.18-39,0c-5,0-6.91,2-6.95,7.07q-.11,18.49,0,37c0,5.45,1.69,7.07,7.26,7.15C821.5,232.5,827.84,232.42,834.17,232.42Z"/><path d="M645.3,234c-6.33,0-12.65,0-19,0s-8.5-2.17-8.52-8.33q-.08-18.73,0-37.46c0-5.85,2.34-8.19,8.16-8.21q19.73-.08,39.46,0c5.8,0,8.11,2.45,8.13,8.33q.08,18.48,0,37c0,6.52-2.23,8.62-8.76,8.68S651.79,234,645.3,234Zm.2-1.62c6.5,0,13,.08,19.49,0,5.48-.09,7.09-1.73,7.12-7.28q.09-18.24,0-36.48c0-5.34-1.87-7.42-7.11-7.47q-19.49-.18-39,0c-5,.05-6.89,2.15-6.92,7.17q-.1,18.49,0,37c0,5.14,1.82,7,6.9,7C632.5,232.52,639,232.42,645.5,232.43Z"/><path d="M244.64,111.48c-7,0-14,.06-21,0-6-.07-8.4-2.42-8.5-8.55s-.12-12.32,0-18.47c.12-5.77,2.53-8.26,8.29-8.31q21-.16,41.94,0c5.72,0,8.11,2.56,8.2,8.36.1,6.32.13,12.65,0,19-.13,5.62-2.33,7.84-8,8C258.63,111.6,251.63,111.48,244.64,111.48Zm-.17-1.63v0c7,0,14,0,21,0,4.48,0,6.74-2.19,6.69-6.78-.07-6.32,0-12.65,0-19,0-4.27-2.17-6.5-6.46-6.5q-21.22,0-42.44,0c-4.25,0-6.45,2.21-6.44,6.51,0,6.16-.06,12.32,0,18.48.06,5.39,1.8,7.19,7.21,7.28C230.82,109.93,237.65,109.84,244.47,109.84Z"/><path d="M425.79,172.89c-6.5,0-13,.05-19.5,0-6.15-.06-8.57-2.37-8.61-8.39q-.11-18.75,0-37.5c0-6,2.23-8.19,8.15-8.22q19.75-.08,39.49,0c5.89,0,8.16,2.27,8.2,8.21q.14,18.75,0,37.49c0,5.78-2.51,8.22-8.25,8.31-6.5.11-13,0-19.5,0Zm-.6-1.76c6.5,0,13,.07,19.5,0,5.77-.08,7.4-1.74,7.42-7.53q.07-18,0-36c0-5.74-1.75-7.61-7.35-7.65q-19.25-.12-38.49,0c-5.25,0-7.16,2-7.19,7.32q-.11,18.25,0,36.49c0,5.58,1.86,7.31,7.64,7.37C412.86,171.19,419,171.14,425.19,171.13Z"/><path d="M362.5,172.86c-6.65,0-13.3.1-20,0-5.51-.1-8-2.4-8-8q-.24-19.2,0-38.41c.06-5.56,2.44-7.67,8.18-7.7q19.7-.1,39.41,0c6.06,0,8.19,2.1,8.23,8.09q.12,19,0,37.91c0,5.75-2.37,8-8.33,8.08-6.48.1-13,0-19.45,0Zm-.27-1.74c6.67,0,13.33,0,20,0,4.51,0,6.81-2.14,6.8-6.7,0-12.67,0-25.33,0-38,0-4.26-2.26-6.48-6.52-6.49q-20,0-40,0c-4.24,0-6.51,2.15-6.52,6.46,0,12.67,0,25.33,0,38,0,4.55,2.25,6.74,6.77,6.73C349.24,171.1,355.74,171.11,362.24,171.12Z"/><path d="M897.42,234c-6.65,0-13.31.06-20,0-5.54-.07-8-2.35-8.06-7.87q-.2-19.21,0-38.43c.06-5.22,2.58-7.58,7.81-7.61q20.21-.12,40.43,0c4.94,0,7.4,2.44,7.44,7.37q.16,19.71,0,39.43c0,4.63-2.48,7-7.18,7.07-6.82.13-13.64,0-20.46,0Zm-.2-1.58v0c6.5,0,13,.08,19.49,0,5.44-.09,7.16-1.81,7.2-7.26q.11-18,0-36c0-6.07-2-7.94-8.23-8q-18.49-.11-37,0c-6,0-7.81,1.85-7.84,7.73q-.09,18,0,36c0,6,1.67,7.54,7.87,7.58S891.06,232.45,897.22,232.45Z"/><path d="M519.94,180c6.5,0,13-.06,19.49,0,5.52.07,8,2.39,8,7.92q.16,19.23,0,38.47c0,5.25-2.42,7.55-7.77,7.59q-20.23.15-40.47,0c-5,0-7.4-2.39-7.45-7.37q-.18-19.48,0-39c0-5.29,2.42-7.56,7.72-7.65C506.28,179.92,513.11,180,519.94,180Zm-.73,52.39c6.83,0,13.66,0,20.49,0,4.29,0,6.4-2.23,6.4-6.54q0-19,0-38c0-4.29-2.27-6.6-6.43-6.64q-20-.19-40-.06c-4.38,0-6.69,2.43-6.68,7,0,12.49,0,25,.06,37.48,0,5,1.92,6.71,7.16,6.79C506.55,232.49,512.88,232.42,519.21,232.41Z"/><path d="M708.34,234c-6.49,0-13,.06-19.48,0-5.7-.07-8-2.25-8.08-7.74q-.12-19.23,0-38.45c0-5.54,2.37-7.75,8-7.78q19.73-.08,39.45,0c5.72,0,8,2.14,8.07,7.73q.21,19.22,0,38.45c-.05,5.63-2.33,7.69-8.06,7.76C721.66,234.11,715,234,708.34,234Zm.12-1.63v0c6.5,0,13,.07,19.5,0,5.46-.08,7.11-1.75,7.14-7.29q.09-18.25,0-36.49c0-5.37-1.84-7.39-7.11-7.44q-19.49-.19-39,0c-5,0-6.88,2.09-6.92,7.14q-.12,18.5,0,37c0,5.18,1.78,7,6.9,7.05C695.46,232.5,702,232.41,708.46,232.41Z"/><path d="M114.42,76.09c6.83,0,13.66-.08,20.48,0,5.74.08,8.15,2.53,8.21,8.27.07,6.49.11,13,0,19.48-.09,5-2.28,7.52-7.32,7.59-14.65.18-29.31.16-44,0-4.29,0-6.83-2.63-6.92-7-.15-7.16-.2-14.33,0-21.48.12-4.55,2.91-6.85,8-6.92,7.16-.11,14.32,0,21.48,0Zm.08,33.74v0H135c4.47,0,6.84-2.17,6.85-6.7q0-9.25,0-18.49c0-4.63-2.16-7.1-7-7.08-13.83.06-27.65,0-41.48,0-5.13,0-6.94,1.81-7.05,6.91-.13,6-.12,12,0,18,.12,5.63,1.87,7.27,7.71,7.34C100.84,109.89,107.67,109.83,114.5,109.83Z"/><path d="M505.12,111.45c-6.66,0-13.33.05-20,0-6.5-.06-8.83-2.32-8.91-8.63-.08-6.16-.1-12.33,0-18.5.1-5.48,2.5-8.06,8-8.11q21.24-.19,42.49,0c5.28,0,7.62,2.4,7.78,7.66q.28,9.74.09,19.49c-.11,5.78-2.47,8-8.42,8-7,.07-14,0-21,0Zm0-1.6v0c7,0,14,.09,21,0,5.21-.09,6.91-1.82,7-6.93.09-6.16,0-12.32,0-18.48.05-4.57-2.13-6.82-6.64-6.82q-21,0-42,0c-4.45,0-6.8,2.1-6.76,6.72.06,6.16-.07,12.32,0,18.48.09,5.37,1.87,7.07,7.34,7.12C491.8,109.9,498.46,109.85,505.12,109.85Z"/><path d="M48.78,111.55c-6.66,0-13.33.08-20,0-6.88-.11-9-2.25-9-9,0-6-.06-12,0-18,.08-5.83,2.39-8.38,8.11-8.42q21.24-.17,42.48,0c5.14.05,7.59,2.66,7.69,7.79.12,6.5.08,13,0,19.49-.06,5.57-2.32,8-7.84,8.08-7.16.14-14.33,0-21.49,0Zm.36-34v-.07c-6.83,0-13.66-.05-20.49,0-5.45.06-7.26,1.75-7.38,7.15-.14,6-.11,12,0,18,.11,5.39,1.84,7.14,7.35,7.18q20.49.15,41,0c5.31,0,7.1-1.93,7.19-7.35.1-5.83.11-11.66,0-17.49-.11-5.6-1.92-7.33-7.67-7.41C62.48,77.47,55.81,77.54,49.15,77.54Z"/><path d="M440,111.41c-6.67,0-13.33,0-20,0-6.46-.06-8.79-2.36-8.82-8.68,0-6.17-.11-12.33,0-18.5.12-5.49,2.51-8,8-8.05q21.24-.18,42.49,0c5.26,0,7.67,2.52,7.79,7.71q.22,9.74,0,19.49c-.12,5.57-2.47,7.89-8,8C454.34,111.49,447.17,111.41,440,111.41Zm.43-1.57c7,0,14,0,21,0,4.15,0,6.65-1.92,6.67-6.31,0-6.66.07-13.32,0-20-.06-3.79-2.19-5.9-6-5.93-14.32-.09-28.63-.08-43-.08-4.32,0-6.39,2.28-6.38,6.55,0,6.16-.05,12.32,0,18.48.06,5.46,1.72,7.16,7.19,7.24C426.78,109.91,433.61,109.83,440.44,109.84Z"/><path d="M299.65,118.77c6.65,0,13.31-.09,20,0,5.43.1,7.64,2.18,7.7,7.58q.22,19.46.07,38.92c0,5-2.42,7.47-7.37,7.52q-20.46.23-40.92,0c-5,0-7.37-2.42-7.44-7.43q-.27-19.46-.11-38.92c0-5.54,2.42-7.64,8.15-7.72,6.65-.09,13.31,0,20,0Zm0,52.36c6.33,0,12.67.05,19,0,5.7-.06,7.36-1.74,7.39-7.55q.08-18,0-36c0-5.83-1.92-7.62-7.93-7.64q-18.75-.06-37.49,0c-5.8,0-7.59,1.71-7.62,7.36q-.11,18.25,0,36.49c0,5.45,1.79,7.23,7.17,7.32C286.67,171.21,293.17,171.13,299.67,171.12Z"/><path d="M220.69,295.19c-6.66,0-13.32.08-20,0-5.29-.09-7.67-2.37-7.72-7.64q-.18-19.23,0-38.46c0-5.49,2.52-8,8-8q20-.14,40,0c5.46,0,8,2.56,8.06,8q.16,19.23,0,38.46c-.05,5.17-2.62,7.6-7.78,7.67C234.34,295.27,227.52,295.19,220.69,295.19Zm.43-1.59c6,0,12,0,18,0,6.93-.07,8.32-1.38,8.36-8.1q.09-17.74,0-35.47c0-5.73-1.77-7.67-7.38-7.72q-19.23-.18-38.47.06c-5.42.07-7.07,1.87-7.11,7.42q-.15,18.24,0,36.47c0,5.47,1.75,7.22,7.18,7.33C208.13,293.7,214.63,293.6,221.13,293.59Z"/><path d="M567.05,356.16c-6.66,0-13.33.07-20,0-5.54-.08-7.91-2.4-7.94-8q-.13-19,0-38c0-5.5,2.49-8,8-8q20-.15,40,0c5.51,0,7.82,2.5,7.85,8.06q.1,19,0,38c0,5.59-2.34,7.84-7.95,7.92C580.38,356.24,573.72,356.17,567.05,356.16Zm-.08-1.53h20c4.55,0,6.79-2.4,6.81-6.8.05-12.49,0-25,0-37.47,0-4.41-2.18-6.91-6.69-6.93q-19.73-.1-39.47-.07c-4.6,0-7,2.25-6.94,7.13.12,12.32,0,24.65.06,37,0,5.41,1.66,7,7.28,7.15C554.32,354.74,560.65,354.64,567,354.63Z"/><path d="M284.14,295.17c-6.66,0-13.31.06-20,0-5.64-.07-8-2.28-8.08-7.79q-.18-19.22,0-38.44c0-5.32,2.74-7.83,8.17-7.86q19.72-.09,39.44,0c5.8,0,8.31,2.47,8.35,8.16q.13,19,0,37.94c0,5.52-2.44,7.91-7.91,8-6.66.1-13.31,0-20,0Zm-.23-1.55c6.5,0,13,.09,19.48,0,5.44-.09,7.22-1.81,7.27-7.27q.17-18.23,0-36.47c0-5.39-1.83-7.4-7.16-7.48-13-.18-26-.1-39-.08-4.7,0-7,2.36-7,7.14.07,12.32,0,24.65.06,37,0,5.42,1.76,7.11,7.27,7.2C271.25,293.72,277.58,293.64,283.9,293.62Z"/><path d="M504.17,356.17c-6.67,0-13.33.08-20,0-5.62-.09-8-2.36-8-7.91q-.14-19,0-38c0-5.68,2.62-8.1,8.42-8.13q19.5-.08,39,0c6.08,0,8.42,2.4,8.44,8.53q.06,18.5,0,37c0,6.24-2.2,8.44-8.36,8.51C517.17,356.23,510.67,356.18,504.17,356.17Zm-.13-1.48c6.33,0,12.66.06,19,0,5.88-.07,7.75-2,7.77-7.85q.07-17.49,0-35c0-6.75-1.75-8.47-8.72-8.52q-18.24-.11-36.48,0c-6.26,0-7.84,1.71-7.87,8.14q-.08,17.74,0,35.48c0,6,1.7,7.62,7.82,7.69S497.89,354.68,504,354.69Z"/><path d="M157.79,295.21c-6.66,0-13.33.07-20,0-5.17-.07-7.69-2.49-7.74-7.7q-.18-19.24,0-38.48c0-5.39,2.66-7.93,8.1-8q20-.13,40,0c5.41,0,7.9,2.58,7.94,8q.13,19,0,38c0,5.86-2.37,8.09-8.26,8.16-6.66.08-13.33,0-20,0Zm.2-1.57c6.5,0,13,.1,19.49,0,5.37-.11,7.21-1.91,7.25-7.34q.15-18.24,0-36.49c-.05-5.37-1.94-7.4-7.2-7.46-13-.15-26-.07-39,0-4.7,0-6.94,2.42-6.91,7.19.08,12.33,0,24.66.07,37,0,5.42,1.71,7,7.31,7.13C145.33,293.71,151.66,293.63,158,293.64Z"/><path d="M441.19,356.17c-6.82,0-13.64.09-20.45,0-4.93-.09-7.47-2.44-7.53-7.36q-.22-19.7,0-39.41c.05-4.49,2.67-7.18,7.23-7.21,13.8-.11,27.61-.15,41.41,0,4.79.05,7.14,2.69,7.17,7.69q.14,19.46,0,38.91c0,4.95-2.43,7.29-7.41,7.38C454.83,356.27,448,356.17,441.19,356.17Zm.07-1.52h19.49c4.68,0,7.12-2.25,7.11-7q0-18.49,0-37c0-4.67-2.2-7.26-6.91-7.28q-19.74-.08-39.49,0c-4.4,0-6.74,2.14-6.71,6.79.08,12.5,0,25,0,37.49,0,5.15,1.76,6.87,7,7C428.26,354.76,434.76,354.66,441.26,354.65Z"/><path d="M347,295.19c-6.32,0-12.65,0-19,0-6.86,0-9.07-2.15-9.1-8.82q-.07-18.22,0-36.44c0-6.51,2.26-8.82,8.63-8.85q19.47-.1,38.93,0c6,0,8.37,2.51,8.4,8.63q.11,18.47,0,36.94c0,6.16-2.34,8.45-8.42,8.52C360,295.24,353.5,295.18,347,295.19Zm-.3-1.55c6.33,0,12.66.06,19,0,6.06-.07,7.66-1.7,7.68-7.77q.06-17.74,0-35.48c0-6.25-1.74-8.06-8-8.1q-18.49-.12-37,0c-6.27,0-8,1.84-8.07,8.11q-.1,17.74,0,35.48c0,6,1.75,7.62,7.86,7.73S340.54,293.62,346.7,293.63Z"/><path d="M756.35,302.15c6.33,0,12.65,0,19,0,6.1,0,8.64,2.4,8.66,8.3q.08,18.73,0,37.45c0,6-2.16,8.17-8.09,8.21q-20,.12-39.95,0c-5.18,0-7.67-2.44-7.72-7.67q-.19-19.22,0-38.45c0-5.38,2.6-7.71,8.18-7.79,6.66-.1,13.32,0,20,0Zm-.15,52.52v0c6.5,0,13,0,19.49,0,4.7,0,7.12-2.23,7.12-7q0-18.49,0-37c0-4.68-2.21-7.29-6.9-7.3q-20-.07-40,.1c-4.31,0-6.24,2.46-6.22,6.72,0,12.49,0,25,0,37.48,0,5.15,1.76,6.87,7,7C743.21,354.76,749.71,354.66,756.21,354.66Z"/><path d="M693.36,356.15c-6.66,0-13.32.06-20,0-5.61-.06-8.1-2.31-8.15-7.76q-.18-19.23,0-38.46c0-5.17,2.58-7.7,7.72-7.74q20.23-.15,40.46,0c5.09,0,7.54,2.65,7.57,7.84q.11,19.23,0,38.46c0,5.28-2.38,7.56-7.66,7.64C706.68,356.22,700,356.14,693.36,356.15Zm-.16-1.5v0c6.5,0,13,.1,19.49,0,5.16-.1,7-1.88,7.09-6.92.11-12.32,0-24.65.06-37,0-4.68-2.17-7.29-6.86-7.32q-19.74-.14-39.47,0c-4.69,0-6.84,2.52-6.79,7.29.11,12.32,0,24.65.06,37,0,5.15,1.75,6.89,6.94,7C680.21,354.76,686.71,354.65,693.2,354.65Z"/><path d="M551.5,118.85c6.66,0,13.32-.07,20,0,5.49.07,7.74,2.13,7.78,7.44q.16,19.47,0,38.95c0,4.9-2.46,7.48-7.37,7.53-13.65.14-27.3.11-40.94,0-4.53,0-7.27-2.52-7.3-7.11-.1-13.48-.12-27,.07-40.44.06-4.42,3-6.44,7.3-6.46,6.82,0,13.65,0,20.47,0Zm-.12,52.26v0c6.5,0,13,.06,19.49,0,5.4-.07,7.14-1.82,7.17-7.28q.1-18.24,0-36.48c0-5.36-1.92-7.35-7.15-7.39q-19.49-.13-39,0c-5,0-6.88,2-6.91,7.07q-.12,18.49,0,37c0,5.32,1.84,7,7.38,7.08C538.71,171.18,545,171.11,551.37,171.11Z"/><path d="M630.42,356.15c-6.66,0-13.32.07-20,0-5.64-.07-8.13-2.31-8.18-7.74q-.19-19.23,0-38.46c.05-5.17,2.65-7.72,7.75-7.75q20-.15,40,0c5.78,0,8.07,2.51,8.09,8.35q.07,18.73,0,37.46c0,5.94-2.16,8-8.16,8.12-6.49.09-13,0-19.48,0Zm0-1.48c6.16,0,12.33.05,18.49,0s8-1.79,8-8.12q.07-17.49,0-35c0-6.15-1.86-8.2-8-8.25q-19-.17-38,.1c-5.5.07-7,1.81-7.08,7.38q-.1,18.24,0,36.48c0,5.65,1.75,7.3,7.59,7.38C617.73,354.73,624.06,354.67,630.39,354.67Z"/><path d="M409.51,295.17c-6.65,0-13.3.08-20,0-5.3-.08-7.68-2.35-7.72-7.59q-.14-19.45,0-38.91c0-5,2.41-7.49,7.33-7.54q20.45-.2,40.9,0c4.91,0,7.49,2.46,7.56,7.39q.26,19.7,0,39.4c-.08,5-2.54,7.11-7.65,7.2-6.82.12-13.63,0-20.45,0Zm-.32-1.56c6.83,0,13.66,0,20.49,0,4.19,0,6.53-2,6.52-6.43q0-19,0-38c0-4.56-2.31-6.84-6.72-6.86q-19.74-.1-39.48,0c-4.7,0-6.92,2.55-6.9,7.26.05,12.16,0,24.33,0,36.49,0,5.64,1.88,7.45,7.55,7.53C396.86,293.69,403,293.62,409.19,293.61Z"/><path d="M535.29,295.16c-6.33,0-12.66,0-19,0s-8.48-2.12-8.51-8.31q-.09-18.49,0-37c0-6.47,2.27-8.72,8.7-8.74q19.24-.06,38.48,0c6.17,0,8.57,2.31,8.62,8.38q.14,18.74,0,37.48c0,5.88-2.35,8-8.29,8.11-6.66.07-13.33,0-20,0Zm.3-1.54c6,0,12,0,18,0,7.15-.07,8.54-1.46,8.56-8.43q0-17.24,0-34.48c0-6.68-1.46-8.29-8.22-8.36q-18.49-.21-37,0c-6,0-7.83,1.94-7.86,7.78q-.08,18,0,36c0,5.66,1.8,7.45,7.5,7.55C522.92,293.72,529.26,293.64,535.59,293.62Z"/><path d="M488.56,118.83c6.66,0,13.32-.06,20,0,5.53.07,7.72,2.08,7.76,7.44q.17,19.23,0,38.47c0,5.81-2.41,8-8.37,8.07q-19.24.12-38.47,0c-6.78,0-8.85-2.24-8.88-9.12q-.08-18,0-36c0-6.93,2-8.88,9-8.93,6.33,0,12.66,0,19,0Zm-.42,52.29c6.67,0,13.33.09,20,0,5.23-.1,6.91-1.78,6.94-7q.1-18.5,0-37c0-5.31-1.91-7.13-7.31-7.16q-19.25-.11-38.49,0c-5.32,0-7.17,1.89-7.2,7.29q-.12,18.25,0,36.49c0,5.64,1.8,7.31,7.61,7.37C475.81,171.17,482,171.11,488.14,171.12Z"/><path d="M472.84,295.16c-6.83,0-13.66.08-20.49,0-5.06-.08-7.45-2.3-7.49-7.3-.12-13.16-.05-26.33,0-39.49,0-4.7,2.63-7.18,7.14-7.22q20.49-.19,41,0c4.89,0,7.55,2.53,7.61,7.37q.25,19.74,0,39.49c-.07,5-2.53,7-7.72,7.12-6.66.1-13.33,0-20,0Zm0-1.54c6.5,0,13,.12,19.5,0,5.17-.12,6.8-1.87,6.82-7.09q.09-18.25,0-36.49c0-5.68-1.82-7.65-7.39-7.7q-19.24-.17-38.49,0c-5.33.06-7.09,2-7.13,7.43q-.14,18.25,0,36.49c0,5.43,1.84,7.25,7.21,7.35C459.83,293.73,466.33,293.63,472.83,293.62Z"/><path d="M189.25,356.23c-6.66,0-13.32.11-20,0-5.29-.11-7.59-2.42-7.62-7.73q-.12-19.47.07-38.95c.05-4.92,2.49-7.37,7.45-7.42q20.22-.19,40.45,0c5.18,0,7.85,2.49,7.91,7.62q.24,19.47,0,38.94c-.07,5.35-2.42,7.46-7.8,7.56C202.9,356.31,196.08,356.22,189.25,356.23Zm.07-1.55c6.5,0,13,.09,19.49,0,5.55-.1,7.24-1.75,7.28-7.18q.12-18.49,0-37c0-5-1.93-7.08-6.93-7.14q-19.49-.22-39,0c-5.33.07-7.07,2.06-7.1,7.49q-.11,18.24,0,36.48c0,5.34,1.9,7.21,7.25,7.32C176.66,354.77,183,354.68,189.32,354.68Z"/><path d="M252.38,356.24c-6.66,0-13.32.07-20,0-5.55-.07-7.91-2.33-8-7.95q-.16-19,0-38c.05-5.78,2.58-8.22,8.27-8.25q19.72-.09,39.45,0c5.73,0,8.09,2.43,8.12,8.29q.1,19,0,38c0,5.61-2.25,7.78-7.93,7.86-6.66.1-13.32,0-20,0Zm.23-1.57v0c6.65,0,13.3.05,20,0,4.19,0,6.49-2.14,6.49-6.48,0-12.64,0-25.27,0-37.91,0-4.57-2.41-6.82-6.74-6.85-13.13-.09-26.27,0-39.4,0-4.65,0-7,2.27-7,7.08.06,12.3,0,24.61,0,36.91,0,5.44,1.77,7.18,7.2,7.29C239.64,354.77,246.12,354.67,252.61,354.67Z"/><path d="M378.08,356.25c-6.49,0-13,.07-19.46,0-5.68-.08-8.08-2.2-8.15-7.8q-.24-19.45,0-38.91c.05-4.79,2.7-7.33,7.61-7.38,13.63-.12,27.27-.09,40.91,0,4.5,0,7.22,2.39,7.25,7.08q.11,20,0,39.91c0,4.66-2.67,7-7.25,7-7,.07-14,0-21,0Zm.19-1.58c6.5,0,13,.09,19.49,0,5.45-.09,7.21-1.86,7.23-7.26q.1-18.24,0-36.49c0-5.41-1.78-7.45-7.07-7.51-13-.16-26-.07-39,0-4.63,0-7,2.26-7,7.1.07,12.33,0,24.66,0,37,0,5.36,1.86,7.12,7.31,7.2C365.6,354.73,371.93,354.66,378.26,354.67Z"/><path d="M724.48,295.1c-6.66,0-13.31.07-20,0-5.36-.08-7.62-2.28-7.65-7.6q-.13-19.22,0-38.44c0-5.51,2.38-7.85,8-7.88q20-.13,39.94,0c5.19,0,7.65,2.43,7.72,7.69q.24,19.22.06,38.44c-.05,5.56-2.46,7.72-8.11,7.79-6.66.08-13.31,0-20,0Zm-.11-1.47v0c6.33,0,12.66.08,19,0,6.14-.11,7.77-1.73,7.79-7.72q.07-18,0-36c0-5.63-1.84-7.58-7.45-7.63q-19-.18-38,0c-5.72.06-7.58,2-7.61,7.53q-.12,18.24,0,36.48c0,5.34,1.87,7.17,7.27,7.29C711.71,293.74,718,293.63,724.37,293.63Z"/><path d="M573,243.42c-.29,14.62-.64,29.23-.82,43.85,0,3.95,2.18,6.26,6.22,6.28q20.24.1,40.48,0c4.23,0,6.35-2.26,6.33-6.61-.06-12.49-.08-25,0-37.48,0-4.83-2.3-7.2-6.93-7.15-15,.16-29.93.46-44.89.7,2-.65,4-1.83,5.94-1.85,12.81-.16,25.63-.1,38.45,0,6.43,0,8.83,2.33,8.87,8.65q.12,18.48,0,37c0,6.14-2.31,8.34-8.55,8.37q-19.47.09-38.95,0c-6.19,0-8.29-2.15-8.33-8.5-.06-12.48-.11-25,.08-37.45C571,247.24,572.31,245.34,573,243.42Z"/><path d="M661.81,295.13c-6.66,0-13.32.06-20,0-5.67-.07-7.93-2.24-8-7.82q-.11-19,0-38c0-5.86,2.34-8.16,8.22-8.19q19.72-.11,39.45,0c5.5,0,8,2.44,8.08,7.93q.19,19.22,0,38.45c-.07,5.34-2.45,7.47-7.81,7.54-6.66.09-13.32,0-20,0Zm-.12-1.49v0c6.66,0,13.33,0,20,0,4.19,0,6.52-2,6.51-6.44,0-12.66,0-25.32,0-38,0-4.63-2.4-6.84-6.72-6.87-13.16-.1-26.32-.06-39.48,0-4.7,0-6.92,2.6-6.9,7.28,0,12.33-.05,24.66.06,37,0,5.07,2,6.92,7,7C648.69,293.73,655.19,293.63,661.69,293.63Z"/><path d="M315.84,356.23c-6.65,0-13.31,0-20,0-5.92,0-8.16-2.14-8.21-8.13q-.14-19,0-37.92c0-5.56,2.4-8,7.84-8.05q20-.14,39.91,0c5.5,0,8,2.45,8,8q.22,19.21,0,38.42c-.07,5.52-2.49,7.62-8.22,7.69-6.49.09-13,0-19.46,0Zm-.21-1.58c6.5,0,13,.12,19.49,0,5.22-.13,7-1.9,7-7,.08-12.33,0-24.65,0-37,0-4.74-2.16-7.23-6.86-7.25q-19.74-.09-39.48,0c-4.41,0-6.77,2.25-6.77,6.81,0,12.49-.06,25,0,37.48,0,5.09,1.88,6.85,7.05,7C302.63,354.76,309.13,354.66,315.63,354.65Z"/><path d="M787.09,295.1c-6.49,0-13,0-19.48,0-5.91-.05-8.36-2.3-8.4-8q-.13-19,0-38c0-5.47,2.52-7.93,8-8q20-.13,40,0c5.48,0,7.8,2.51,7.83,8.08q.09,19,0,38c0,5.57-2.29,7.8-7.93,7.87C800.4,295.16,793.74,295.1,787.09,295.1Zm0-1.44v0c6.5,0,13,.11,19.49,0,5.45-.12,7.18-1.86,7.22-7.32q.14-18.24,0-36.49c0-5.5-2-7.46-7.69-7.51q-19-.17-38,0c-5.62.06-7.34,2-7.37,7.71q-.1,18,0,36c0,6,1.74,7.59,7.85,7.65S780.91,293.65,787.07,293.65Z"/><path d="M700.67,111.33c-7,0-14,.07-21,0-5.8-.08-7.94-2.14-8-7.77q-.15-9.73,0-19.47c.1-5.5,2.4-7.81,8-7.85q21-.15,41.93,0c5.7,0,8.07,2.65,8.13,8.41.07,6.32.13,12.65,0,19-.11,5.25-2.44,7.62-7.67,7.71C715,111.43,707.83,111.33,700.67,111.33Zm.46-1.5h20.48c4.48,0,6.81-2.12,6.78-6.71,0-6.16,0-12.32,0-18.48-.08-5.39-1.8-7.13-7.32-7.15q-20.23-.07-40.46.06c-5.85,0-7.47,1.67-7.54,7.41s-.07,11.66,0,17.48c.07,5.59,1.85,7.32,7.63,7.38C687.48,109.89,694.31,109.84,701.14,109.82Z"/><path d="M765.82,111.33c-7,0-14,.07-21,0-6-.08-8-2.14-8.14-8.17q-.14-9.48,0-19c.09-5.36,2.28-7.87,7.46-7.92q21.45-.23,42.91,0c5.23,0,7.63,2.59,7.73,7.75q.18,9.73,0,19.46c-.1,5.48-2.44,7.76-8,7.84-7,.1-14,0-21,0ZM766,77.48v.09c-7.16,0-14.32,0-21.47,0-4.26,0-6.44,2.25-6.45,6.53,0,6.33,0,12.65,0,19,0,4.54,2.33,6.74,6.79,6.75q21,0,41.95,0c4.52,0,6.7-2.29,6.67-6.82,0-6,.06-12,0-18-.07-5.72-1.75-7.44-7.5-7.52C779.27,77.41,772.61,77.48,766,77.48Z"/><path d="M634.84,111.37c-6.83,0-13.65.07-20.48,0-5.94-.08-8.22-2.31-8.3-8.09q-.13-9.49,0-19c.08-5.53,2.43-8,7.87-8.07q21-.15,42,0c5.93,0,8.18,2.33,8.25,8.16.08,6.49.1,13,0,19.48-.09,5.08-2.2,7.32-7.32,7.45-7.32.18-14.65,0-22,0Zm.55-33.83v0c-7,0-14,0-21,0-4.44,0-6.9,2-6.91,6.6,0,6.33,0,12.66,0,19,0,4.55,2.3,6.75,6.77,6.76q21,0,42,0c4.44,0,6.76-2.26,6.74-6.82,0-6,.05-12,0-18-.08-5.64-1.8-7.38-7.56-7.47C648.71,77.45,642,77.53,635.39,77.53Z"/><path d="M771.29,425.94c-6.5,0-13,.07-19.5,0-5.57-.07-7.81-2.33-7.9-7.95s-.11-11,0-16.5c.11-5,2.38-7.35,7.42-7.38,13.66-.1,27.33-.07,41,0,4.68,0,7.09,2.76,7.26,7.2.22,5.82.25,11.67,0,17.49-.2,4.83-2.8,7.08-7.8,7.14C785,426,778.12,425.94,771.29,425.94Zm.28-1.62v0c6.65,0,13.31,0,20,0,4.46,0,6.77-2.11,6.69-6.73-.09-5.15-.08-10.31,0-15.47.07-4.58-2.33-6.89-6.66-6.93-13.3-.11-26.61-.08-39.91,0-4.19,0-6.42,2.4-6.47,6.6-.06,5.16-.12,10.31,0,15.47.14,5.33,1.92,7,7.44,7C758.93,424.38,765.25,424.32,771.57,424.32Z"/><path d="M897,425.94c-6.5,0-13,.06-19.49,0-5.58-.07-7.92-2.33-8.06-7.86q-.19-8,0-16c.12-5.55,2.5-8,8-8q20-.1,40,0c5.32,0,7.61,2.35,7.73,7.6s.1,10.66,0,16c-.07,5.89-2.33,8.18-8.15,8.24C910.31,426,903.65,425.94,897,425.94Zm0-1.63c6.82,0,13.64,0,20.46,0,4.28,0,6.45-2.25,6.48-6.5,0-5.32,0-10.65,0-16,0-4.27-2.32-6.58-6.46-6.62q-20-.18-39.93,0c-4.36,0-6.75,2.3-6.69,6.88.07,4.82,0,9.65,0,14.47.07,6.17,1.59,7.73,7.64,7.79S890.81,424.33,897,424.31Z"/><path d="M309.84,111.45c-6.65,0-13.31.06-20,0-7.1-.08-9-2-9-8.86,0-6,0-12,0-18s2.37-8.44,8.48-8.48q20.46-.13,40.92,0c6.43,0,8.76,2.41,8.81,8.73q.07,9,0,18c-.06,6.48-2.16,8.59-8.76,8.66-6.82.08-13.64,0-20.46,0ZM310,77.52v0c-7,0-14,0-21,0-4.59,0-6.74,2.32-6.77,6.75,0,6.16,0,12.32,0,18.49,0,4.69,2.22,7.08,7,7.07q20.73,0,41.47,0c4.74,0,7.08-2.32,7.09-7,0-6,.11-12,0-18-.1-5.31-1.94-7.16-7.32-7.26C323.65,77.42,316.82,77.52,310,77.52Z"/><path d="M831.08,111.3c-7.15,0-14.3.1-21.45,0-5.28-.1-7.48-2.4-7.57-7.73q-.15-9.73,0-19.46c.08-5.18,2.48-7.79,7.6-7.83q21.45-.19,42.9,0c5.14,0,7.45,2.64,7.52,7.88.09,6.32.08,12.64,0,19-.07,6.06-2.08,8.15-8.05,8.23-7,.1-14,0-21,0Zm-.37-1.49v0c7,0,14,.09,21,0,5.41-.09,7.13-1.88,7.21-7.31.09-6,.1-12,0-18-.11-5-2-7-7-7-13.82-.08-27.64.07-41.45,0-4.91,0-7,2.49-7,7.08,0,6.16,0,12.32,0,18.48,0,4.51,2.32,6.73,6.81,6.73Z"/><path d="M570.5,111.42c-7,0-14,.06-21,0-6.18-.07-8.45-2.34-8.51-8.46s-.07-12.32,0-18.48c.06-5.57,2.35-8.2,7.72-8.25q21.47-.2,43,0c4.93,0,7.35,2.59,7.43,7.47.11,6.82.08,13.65,0,20.48-.05,4.63-2.53,7.12-7.15,7.17-7.16.09-14.32,0-21.47,0Zm0-33.89H549.06c-4.23,0-6.57,2-6.58,6.35q0,9.74,0,19.48c0,4.35,2.38,6.44,6.55,6.46q21.23.07,42.47,0c4.19,0,6.43-2.29,6.43-6.6,0-6,.09-12,0-18s-1.86-7.61-7.9-7.68C583.53,77.46,577,77.52,570.54,77.52Z"/><path d="M375,111.43c-7,0-14,.08-20.95,0-5.89-.09-8.05-2.34-8.12-8.24-.07-6.32-.09-12.64,0-19,.07-5.42,2.48-8,7.92-8q21.2-.17,42.39,0c5.41,0,7.79,2.57,7.87,8.07q.13,9.72,0,19.45c-.08,5.23-2.37,7.57-7.66,7.67-7.15.14-14.3,0-21.45,0Zm.27-33.9c-7,0-14-.09-21,0-5.06.09-6.89,1.94-7,7-.11,6.16,0,12.33,0,18.49,0,4.46,2.3,6.76,6.82,6.75h42c4.53,0,6.74-2.37,6.77-6.81,0-6,.11-12,0-18-.11-5.62-2-7.43-7.61-7.48C388.55,77.49,381.89,77.53,375.23,77.53Z"/><path d="M896.31,111.32c-7,0-14,.07-20.95,0-6-.08-8.2-2.24-8.28-8.07q-.13-9.47,0-19c.07-5.41,2.5-8,7.92-8q21.19-.15,42.39,0c5.2,0,7.65,2.54,7.73,7.67q.16,10,0,19.95c-.09,5-2.26,7.28-7.34,7.4-7.14.16-14.3,0-21.44,0ZM896,77.54v0c-6.82,0-13.65.1-20.47,0-4.84-.1-7.12,2.16-7.13,6.88,0,6.16,0,12.32,0,18.49,0,4.78,2.38,7,7.12,6.94,13.82,0,27.65.05,41.47,0,5,0,6.8-1.95,6.88-7.09q.14-9,0-18c-.09-5.25-2-7.08-7.38-7.16C909.69,77.46,902.87,77.54,896,77.54Z"/><path d="M513.25,9.86H450.43V9.58h63Z"/><path class="cls-1" d="M441.5,424.34H299.6c-9.64,0-10.5-.86-10.5-10.59,0-13.49,0-27,0-40.47,0-6.65,1.73-8.38,8.21-8.38q143.9,0,287.8,0c7.12,0,8.73,1.64,8.75,8.88q.06,20.74,0,41.47c0,7.57-1.49,9.09-9,9.1Q513.2,424.36,441.5,424.34Z"/><path class="cls-1" d="M808.13,395.7H861c0,8.13.32,16.05-.26,23.91-.12,1.67-3.45,4.39-5.37,4.45-13.78.39-27.59.26-41.38.18-3.82,0-5.81-2.32-5.86-6C808.06,410.93,808.13,403.64,808.13,395.7Z"/><path class="cls-1" d="M861.08,393.31c-17,0-33.31,0-49.59,0-2.66,0-3.46-1.08-3.42-3.57.1-6.15,0-12.3.06-18.45,0-4.28,2.39-6.41,6.58-6.42q19.95-.06,39.9,0c3.62,0,6.32,1.55,6.42,5.43C861.22,377.77,861.08,385.22,861.08,393.31Z"/><path class="cls-1" d="M62.94,232.46c-11.33,0-22.66,0-34,0-6.06,0-7.81-1.76-7.84-7.72q-.09-18,0-36c0-5.58,1.92-7.54,7.55-7.56q34.48-.12,69,0c5.89,0,7.74,2,7.77,7.86q.09,18,0,36c0,5.8-1.62,7.38-7.5,7.42-11.66.07-23.32,0-35,0Z"/><path class="cls-1" d="M638,424.31c-8.83,0-17.65,0-26.48,0-6.27,0-7.83-1.52-7.85-7.57q-.08-22.23,0-44.46c0-5.65,1.81-7.35,7.58-7.36q26.73-.06,53.45,0c5.39,0,7.33,1.87,7.36,7.15q.11,22.48,0,45c0,5.58-1.6,7.21-7.11,7.27C656,424.38,647,424.31,638,424.31Z"/><path class="cls-1" d="M840.89,121A82.56,82.56,0,0,1,850.2,120c21.65-.1,43.29-.07,64.94,0,7.32,0,8.87,1.52,8.88,8.69,0,11.66,0,23.31,0,35,0,5.77-1.69,7.5-7.43,7.52q-34.72.08-69.44,0c-5.66,0-7.32-1.6-7.35-7-.08-12.32-.1-24.64,0-37,0-2.09.83-4.17,1.28-6.25Z"/><path class="cls-1" d="M87.21,354.68q-28.73,0-57.46,0c-7.2,0-8.72-1.58-8.73-8.89,0-11.49,0-23,0-34.47,0-6,1.75-8,7.64-8q58.45-.09,116.91.05c5.62,0,7.39,2,7.41,7.67q.08,18,0,36c0,5.94-1.72,7.6-7.86,7.62-19.32.05-38.64,0-58,0Z"/><path class="cls-1" d="M857.86,354.66q-28.24,0-56.48,0c-8,0-9.26-1.36-9.27-9.36q0-16.49,0-33c0-7.58,1.52-9,9.65-9q47.23,0,94.46,0c6.66,0,13.33-.1,20,0,5.93.13,7.73,2,7.76,7.9.05,11.5,0,23,0,34.49,0,7.56-1.34,8.9-9.16,8.92C895.85,354.69,876.86,354.66,857.86,354.66Z"/><path class="cls-1" d="M874,293.66c-13.49,0-27,0-40.46,0-8.46,0-9.63-1.21-9.64-9.44,0-11.16,0-22.31,0-33.47,0-6.63,1.71-8.47,8.15-8.48q41.71-.08,83.42,0c6.57,0,8.4,1.88,8.42,8.28q.06,17.48,0,35c0,6.36-1.64,8.07-7.94,8.1-14,.07-28,0-42,0Z"/><path class="cls-1" d="M200.22,394.65c0,7.5.07,15,0,22.49-.06,5.49-1.67,7.12-7.23,7.15q-19.24.13-38.48,0c-5.39,0-7.28-1.87-7.3-7.21q-.12-22.49,0-45c0-5.37,2-7.2,7.31-7.23q19.24-.1,38.48,0c5.35,0,7.18,1.9,7.24,7.27.08,7.49,0,15,0,22.49Z"/><path class="cls-1" d="M244.56,364.88c8.66,0,17.33,0,26,0,6.31,0,8.22,1.78,8.25,7.87q.11,22,0,44c0,5.66-1.86,7.55-7.49,7.57q-27,.1-54,0c-5.36,0-7.16-1.86-7.19-7.31q-.12-22.24,0-44.49c0-5.88,1.85-7.59,7.93-7.62C226.9,364.84,235.73,364.88,244.56,364.88Z"/><path class="cls-1" d="M74.11,394.68c0,7.33,0,14.66,0,22,0,5.92-1.57,7.6-7.27,7.63q-19.25.11-38.49,0c-5.46,0-7.24-1.76-7.27-7.2q-.13-22.49,0-45c0-5.31,1.95-7.15,7.34-7.18q19.25-.1,38.49,0c5.3,0,7.15,1.92,7.2,7.29C74.17,379.69,74.12,387.18,74.11,394.68Z"/><path class="cls-1" d="M137.25,394.5c0,7.67,0,15.33,0,23,0,4.54-2.08,6.8-6.65,6.79-13.33,0-26.66,0-40,0-4.3,0-6.46-2.32-6.47-6.54,0-15.33-.09-30.66,0-46,0-5,2-6.81,7.16-6.84q19.25-.11,38.49,0c5.63,0,7.36,1.84,7.42,7.6.07,7.33,0,14.66,0,22Z"/><path class="cls-1" d="M71.57,293.63c-14,0-28,0-41.94,0-6.89,0-8.48-1.63-8.51-8.57q-.06-17.23,0-34.45c0-6.37,1.67-8.29,7.82-8.3q42.44-.12,84.88,0c6,0,7.7,1.88,7.74,7.89q.14,18,0,35.95c0,5.78-1.64,7.38-7.55,7.42-14.15.09-28.29,0-42.44,0Z"/><path class="cls-1" d="M267.74,232.42c-6.5,0-13,0-19.49,0-4.53,0-6.71-2.2-6.7-6.76,0-12.49-.08-25,0-37.48,0-5,1.94-7,7-7q19.24-.15,38.48,0c5.61,0,7.47,2,7.5,7.63q.11,18.24,0,36.48c0,5.52-1.62,7-7.27,7.13-6.49.12-13,0-19.49,0Z"/><path class="cls-1" d="M179.12,109.83c-6.66,0-13.32.09-20,0-5.76-.1-7.3-1.74-7.36-7.6s-.08-11.65,0-17.48c.07-5.34,1.63-7.14,6.74-7.18,14-.1,28,0,42,0,4.61,0,6.66,2.36,6.64,6.82q0,9.49,0,19c0,4.34-2.29,6.43-6.51,6.46C193.44,109.87,186.28,109.83,179.12,109.83Z"/><path class="cls-1" d="M735.11,394.87c0,7.5.06,15,0,22.49-.06,5.17-1.72,6.9-7,6.94q-19.49.15-39,0c-5.16,0-7-1.86-7.06-6.92q-.14-22.74,0-45.48c0-5.05,2-7,7-7q19.49-.13,39,0c5,0,6.93,2,7,7C735.17,379.54,735.11,387.21,735.11,394.87Z"/><path class="cls-1" d="M142,232.42c-6.5,0-13,.09-19.49,0-5.21-.1-6.88-1.75-6.92-7q-.15-18.49,0-37c0-5.34,1.89-7.18,7.31-7.23q19-.15,38,0c5.91,0,7.74,2,7.78,7.91q.13,17.74,0,35.48c0,6.3-1.7,7.82-8.16,7.87-6.16,0-12.33,0-18.49,0Z"/><path class="cls-1" d="M204.68,232.46c-6.33,0-12.66.08-19,0-5.45-.09-7.31-1.84-7.35-7.2-.1-12.33,0-24.65,0-37,0-4.71,2.39-7.09,7.08-7.1,13,0,26,0,39,0,4.6,0,7,2.25,7,7.1-.07,12.49,0,25,0,37.48,0,4.56-2.19,6.73-6.74,6.7-6.66,0-13.33,0-20,0Z"/><path class="cls-1" d="M330.92,232.44c-6.5,0-13,0-19.49,0-4.72,0-7.18-2.12-7.18-6.9q0-18.74,0-37.48c0-4.79,2.65-6.93,7.25-6.94,12.83,0,25.65-.09,38.48,0,5.36,0,7.24,2,7.27,7.27q.13,18.49,0,37c0,5.28-1.64,6.91-6.86,7C343.91,232.52,337.41,232.44,330.92,232.44Z"/><path class="cls-1" d="M110.64,171.12c-6.33,0-12.66.06-19,0-5.46-.07-7.37-1.8-7.41-7.11q-.16-18.49,0-37c0-5.1,1.91-7,7-7q19.49-.16,39,0c5.1,0,7,1.9,7.06,6.9q.13,18.74,0,37.48c0,5.09-1.81,6.72-7.1,6.79C123.64,171.2,117.14,171.12,110.64,171.12Z"/><path class="cls-1" d="M47.5,171.12c-6.16,0-12.32,0-18.49,0-5.85-.06-7.68-1.68-7.73-7.31q-.17-18.23,0-36.47c0-5.44,1.92-7.35,7.17-7.38q19.23-.13,38.47,0c5.63,0,7.36,1.88,7.38,7.6q.08,18,0,36c0,6-1.58,7.52-7.83,7.58s-12.66,0-19,0Z"/><path class="cls-1" d="M770.88,232.4c-6.5,0-13,0-19.49,0-4.51,0-6.77-2.08-6.75-6.68q.07-19,0-38c0-4.36,2.34-6.53,6.46-6.57q20-.16,40,0c4.11,0,6.55,2.34,6.57,6.58q.09,19.24,0,38.47c0,4.35-2.63,6.2-6.8,6.19-6.66,0-13.32,0-20,0Z"/><path class="cls-1" d="M173.93,171.11c-6.5,0-13-.05-19.49,0-4.53,0-6.85-2-6.85-6.61q0-19,0-38c0-4.6,2.39-6.63,6.86-6.62,13,0,26,0,39,0,5.29,0,7.12,1.86,7.17,7.38q.19,18.49,0,37c0,5.06-1.91,6.71-7.18,6.79-6.5.09-13,0-19.49,0Z"/><path class="cls-1" d="M803.44,119.91c6.16,0,12.32,0,18.48,0,5.69.06,7.72,1.86,7.77,7.35q.17,18.23,0,36.47c-.05,5.69-1.82,7.32-7.67,7.35q-19,.1-38,0c-5.75,0-7.37-1.7-7.39-7.55q-.08-18,0-36c0-6.05,1.65-7.62,7.79-7.67C790.79,119.87,797.11,119.91,803.44,119.91Z"/><path class="cls-1" d="M740,171.11c-6.5,0-13,0-19.49,0-4.53,0-6.74-2.18-6.73-6.73,0-12.66,0-25.32,0-38,0-4.3,2.21-6.46,6.49-6.46q20,0,40,0c4.29,0,6.51,2.39,6.54,6.54.1,12.66.09,25.32,0,38,0,4.46-2.31,6.71-6.87,6.67C753.33,171.07,746.66,171.12,740,171.11Z"/><path class="cls-1" d="M236.41,171.12c-6.33,0-12.66.05-19,0-5.51-.06-7.33-1.74-7.37-7.1q-.14-18.49,0-37c0-5.05,2-7,6.93-7.07q19.5-.11,39,0c5.25,0,7.08,2,7.11,7.4q.1,18.25,0,36.49c0,5.4-1.8,7.18-7.18,7.25C249.41,171.19,242.91,171.12,236.41,171.12Z"/><path class="cls-1" d="M393.69,232.49c-6.33,0-12.66.06-19,0-5.75-.07-7.57-1.82-7.6-7.43q-.1-18.24,0-36.48c0-5.29,2-7.33,7.24-7.38q19.24-.15,38.48,0c5.36,0,7.25,2,7.29,7.27q.11,18.49,0,37c0,5.21-1.67,6.85-6.91,6.95-6.5.12-13,0-19.49,0Z"/><path class="cls-1" d="M456.5,232.43c-6.5,0-13,.1-19.49,0-5.1-.11-6.92-2-6.95-7q-.1-18.49,0-37c0-5.06,1.93-7.14,6.88-7.2q19.49-.21,39,0c5.24,0,7.14,2.09,7.17,7.43.07,12.33,0,24.65,0,37,0,4.58-2.13,6.8-6.64,6.82-6.66,0-13.33,0-20,0Z"/><path class="cls-1" d="M582.66,232.43c-6.5,0-13,.09-19.49,0-5.22-.1-7-1.79-7-6.92q-.16-18.49,0-37c0-5.31,2-7.28,7.29-7.33q19.24-.18,38.48,0c5.32,0,7.23,2.06,7.26,7.34q.1,18.49,0,37c0,5.13-1.73,6.81-7,6.9-6.5.12-13,0-19.49,0Z"/><path class="cls-1" d="M677,171.12c-6.33,0-12.66.06-19,0-5.55-.07-7.26-1.68-7.3-7.12q-.13-18.49,0-37c0-5.35,1.86-7,7.38-7.07q19-.08,38,0c5.67,0,7.63,1.86,7.68,7.42q.18,18.24,0,36.48c0,5.48-1.85,7.19-7.25,7.27C690,171.2,683.5,171.12,677,171.12Z"/><path class="cls-1" d="M614.5,171.09h-20c-4.51,0-6.71-2.23-6.69-6.79,0-12.49,0-25,.06-37.48,0-5.06,1.87-6.84,7.06-6.87q19.24-.11,38.48,0c5.53,0,7.46,2,7.5,7.6q.11,18.24,0,36.48c0,5.13-1.83,7-6.92,7.06-6.49.13-13,0-19.49,0Z"/><path class="cls-1" d="M834.17,232.42c-6.33,0-12.66.08-19,0-5.57-.08-7.23-1.7-7.26-7.15q-.1-18.49,0-37c0-5,1.91-7,6.95-7.07q19.49-.18,39,0c5,0,7,2.18,7.07,7.06.1,12.49,0,25,.05,37.49,0,4.61-2.36,6.68-6.81,6.68Z"/><path class="cls-1" d="M645.5,232.43c-6.5,0-13,.09-19.49,0-5.08-.1-6.87-1.91-6.9-7q-.13-18.49,0-37c0-5,2-7.11,6.92-7.17q19.49-.21,39,0c5.24,0,7.09,2.13,7.11,7.47q.09,18.24,0,36.48c0,5.56-1.63,7.2-7.12,7.28C658.5,232.51,652,232.43,645.5,232.43Z"/><path class="cls-1" d="M244.47,109.84c-6.82,0-13.65.09-20.47,0-5.41-.09-7.14-1.89-7.21-7.28-.07-6.16,0-12.32,0-18.48,0-4.3,2.19-6.51,6.44-6.51q21.22,0,42.44,0c4.28,0,6.44,2.24,6.46,6.5,0,6.33-.05,12.65,0,19,0,4.58-2.21,6.76-6.69,6.78-7,0-14,0-21,0Z"/><path class="cls-1" d="M425.19,171.14c-6.17,0-12.33.05-18.5,0-5.77-.06-7.61-1.79-7.64-7.37q-.09-18.25,0-36.49c0-5.34,1.94-7.29,7.19-7.32q19.25-.1,38.49,0c5.6,0,7.33,1.91,7.35,7.65q.06,18,0,36c0,5.79-1.65,7.45-7.42,7.53C438.19,171.2,431.69,171.13,425.19,171.14Z"/><path class="cls-1" d="M362.24,171.12c-6.5,0-13,0-19.5,0-4.52,0-6.78-2.18-6.77-6.73,0-12.67,0-25.33,0-38,0-4.31,2.28-6.45,6.52-6.46q20,0,40,0c4.26,0,6.51,2.23,6.52,6.49,0,12.67,0,25.33,0,38,0,4.56-2.29,6.71-6.8,6.7C375.57,171.1,368.9,171.12,362.24,171.12Z"/><path class="cls-1" d="M897.22,232.45c-6.16,0-12.33,0-18.49,0s-7.84-1.54-7.87-7.58q-.1-18,0-36c0-5.89,1.84-7.7,7.84-7.73q18.49-.1,37,0c6.26,0,8.19,1.91,8.23,8q.11,18,0,36c0,5.45-1.76,7.18-7.2,7.26-6.5.1-13,0-19.49,0Z"/><path class="cls-1" d="M519.21,232.41c-6.33,0-12.66.08-19,0-5.24-.07-7.12-1.78-7.16-6.79-.11-12.49,0-25-.06-37.48,0-4.52,2.3-6.92,6.68-7q20-.13,40,.06c4.16,0,6.43,2.35,6.43,6.64q0,19,0,38c0,4.31-2.11,6.51-6.4,6.54C532.87,232.43,526,232.41,519.21,232.41Z"/><path class="cls-1" d="M708.46,232.41c-6.5,0-13,.09-19.5,0-5.12-.1-6.87-1.87-6.9-7.05q-.12-18.5,0-37c0-5.05,1.94-7.1,6.92-7.14q19.49-.18,39,0c5.27.05,7.09,2.08,7.11,7.44q.09,18.25,0,36.49c0,5.54-1.68,7.22-7.14,7.29-6.5.09-13,0-19.5,0Z"/><path class="cls-1" d="M114.5,109.83c-6.83,0-13.66.06-20.49,0-5.84-.06-7.59-1.7-7.71-7.34-.12-6-.14-12,0-18,.11-5.1,1.92-6.88,7.05-6.91,13.83-.08,27.65,0,41.48,0,4.85,0,7,2.45,7,7.08q0,9.25,0,18.49c0,4.53-2.38,6.7-6.85,6.7H114.5Z"/><path class="cls-1" d="M505.12,109.85c-6.66,0-13.32,0-20,0-5.47-.05-7.25-1.75-7.34-7.12-.1-6.16,0-12.32,0-18.48,0-4.62,2.3-6.72,6.76-6.72q21,0,42,0c4.51,0,6.69,2.26,6.64,6.82-.07,6.16.06,12.32,0,18.48-.08,5.11-1.78,6.84-7,6.93-7,.13-14,0-21,0Z"/><path class="cls-1" d="M49.15,77.54c6.66,0,13.33-.07,20,0,5.75.08,7.56,1.81,7.67,7.41.11,5.83.1,11.66,0,17.49-.09,5.42-1.88,7.31-7.19,7.35q-20.49.13-41,0c-5.51,0-7.23-1.79-7.35-7.18-.13-6-.15-12,0-18,.12-5.4,1.92-7.09,7.38-7.15,6.83-.07,13.66,0,20.49,0Z"/><path class="cls-1" d="M440.44,109.83c-6.83,0-13.65.07-20.48,0-5.48-.08-7.13-1.78-7.19-7.24-.07-6.16,0-12.32,0-18.48,0-4.27,2.06-6.55,6.38-6.55,14.32,0,28.63,0,43,.08,3.77,0,5.91,2.14,6,5.93.1,6.66.06,13.32,0,20,0,4.39-2.51,6.29-6.67,6.31C454.42,109.86,447.43,109.84,440.44,109.83Z"/><path class="cls-1" d="M299.67,171.13c-6.5,0-13,.08-19.5,0-5.38-.08-7.14-1.87-7.17-7.32q-.1-18.25,0-36.49c0-5.65,1.82-7.34,7.62-7.36q18.75-.07,37.49,0c6,0,7.9,1.81,7.93,7.64q.1,18,0,36c0,5.81-1.69,7.49-7.39,7.55C312.33,171.18,306,171.12,299.67,171.13Z"/><path class="cls-1" d="M221.13,293.6c-6.5,0-13,.11-19.49,0-5.42-.11-7.14-1.86-7.18-7.33q-.12-18.24,0-36.47c0-5.56,1.69-7.36,7.11-7.42q19.23-.24,38.47-.06c5.61.05,7.35,2,7.38,7.72q.1,17.74,0,35.47c0,6.72-1.43,8-8.36,8.1C233.12,293.64,227.12,293.59,221.13,293.6Z"/><path class="cls-1" d="M567,354.64c-6.33,0-12.66.11-19,0-5.62-.12-7.25-1.74-7.28-7.15-.07-12.32.06-24.65-.06-37,0-4.88,2.33-7.11,6.94-7.13q19.73-.06,39.47.07c4.51,0,6.68,2.52,6.69,6.93,0,12.49.07,25,0,37.47,0,4.39-2.25,6.81-6.81,6.8Q577,354.62,567,354.64Z"/><path class="cls-1" d="M283.9,293.63c-6.33,0-12.66.09-19,0-5.51-.1-7.23-1.78-7.27-7.2-.08-12.32,0-24.65-.06-37,0-4.78,2.25-7.13,7-7.14,13,0,26-.1,39,.08,5.33.08,7.12,2.09,7.16,7.48q.13,18.24,0,36.47c-.05,5.46-1.84,7.18-7.27,7.27C296.9,293.71,290.4,293.62,283.9,293.63Z"/><path class="cls-1" d="M504,354.69c-6.16,0-12.33.06-18.49,0s-7.79-1.72-7.82-7.69q-.07-17.74,0-35.48c0-6.43,1.62-8.1,7.87-8.14q18.24-.12,36.48,0c7,0,8.69,1.76,8.72,8.52q.08,17.49,0,35c0,5.9-1.9,7.78-7.77,7.85C516.71,354.75,510.38,354.69,504,354.69Z"/><path class="cls-1" d="M158,293.63c-6.33,0-12.66.08-19,0-5.6-.09-7.27-1.71-7.31-7.13-.08-12.33,0-24.66-.07-37,0-4.78,2.21-7.18,6.91-7.19,13,0,26-.12,39,0,5.26.06,7.14,2.09,7.2,7.46q.18,18.24,0,36.49c0,5.42-1.88,7.23-7.25,7.34C171,293.74,164.49,293.64,158,293.63Z"/><path class="cls-1" d="M441.26,354.65c-6.5,0-13,.1-19.49,0-5.21-.1-6.94-1.82-7-7-.08-12.5,0-25,0-37.49,0-4.65,2.31-6.77,6.71-6.79q19.74-.09,39.49,0c4.72,0,6.92,2.61,6.91,7.28q0,18.49,0,37c0,4.77-2.44,7-7.11,7Z"/><path class="cls-1" d="M346.7,293.63c-6.16,0-12.33.08-18.49,0s-7.81-1.76-7.86-7.73q-.14-17.74,0-35.48c0-6.27,1.79-8.06,8.07-8.11q18.49-.15,37,0c6.26,0,8,1.85,8,8.1q.06,17.74,0,35.48c0,6.08-1.62,7.7-7.68,7.77C359.36,293.69,353,293.63,346.7,293.63Z"/><path class="cls-1" d="M756.21,354.66c-6.5,0-13,.1-19.49,0-5.2-.1-6.94-1.82-7-7-.08-12.49,0-25,0-37.48,0-4.26,1.91-6.69,6.22-6.72q20-.15,40-.1c4.69,0,6.91,2.62,6.9,7.3q0,18.49,0,37c0,4.76-2.42,7-7.12,7-6.5,0-13,0-19.49,0Z"/><path class="cls-1" d="M693.2,354.65c-6.5,0-13,.11-19.49,0-5.2-.11-6.91-1.85-6.94-7-.08-12.32.05-24.65-.06-37,0-4.78,2.1-7.27,6.79-7.29q19.74-.09,39.47,0c4.7,0,6.88,2.64,6.86,7.32,0,12.33,0,24.65-.06,37,0,5-1.93,6.82-7.09,6.92-6.49.13-13,0-19.49,0Z"/><path class="cls-1" d="M551.37,171.11c-6.33,0-12.66.07-19,0C526.83,171,525,169.33,525,164q-.12-18.49,0-37c0-5.09,1.9-7,6.91-7.07q19.49-.14,39,0c5.23,0,7.12,2,7.15,7.39q.09,18.24,0,36.48c0,5.46-1.77,7.21-7.17,7.28-6.5.08-13,0-19.49,0Z"/><path class="cls-1" d="M630.39,354.67c-6.33,0-12.66.06-19,0-5.84-.08-7.56-1.73-7.59-7.38q-.09-18.24,0-36.48c0-5.57,1.58-7.3,7.08-7.38q19-.26,38-.1c6.13.05,8,2.1,8,8.25q.08,17.49,0,35c0,6.32-1.75,8.05-8,8.12S636.55,354.67,630.39,354.67Z"/><path class="cls-1" d="M409.19,293.62c-6.16,0-12.33.07-18.49,0-5.67-.08-7.51-1.89-7.55-7.53-.07-12.16,0-24.33,0-36.49,0-4.71,2.19-7.24,6.9-7.26q19.74-.09,39.48,0c4.41,0,6.73,2.3,6.72,6.86q-.05,19,0,38c0,4.39-2.33,6.4-6.52,6.43C422.85,293.66,416,293.61,409.19,293.62Z"/><path class="cls-1" d="M535.59,293.63c-6.33,0-12.66.1-19,0-5.7-.1-7.47-1.89-7.5-7.55q-.1-18,0-36c0-5.84,1.86-7.73,7.86-7.78q18.49-.15,37,0c6.76.08,8.2,1.68,8.22,8.36q0,17.24,0,34.48c0,7-1.4,8.36-8.56,8.43C547.58,293.67,541.58,293.62,535.59,293.63Z"/><path class="cls-1" d="M488.14,171.12c-6.17,0-12.33,0-18.5,0-5.81-.06-7.58-1.73-7.61-7.37q-.1-18.25,0-36.49c0-5.4,1.88-7.26,7.2-7.29q19.25-.11,38.49,0c5.41,0,7.28,1.85,7.31,7.16q.13,18.5,0,37c0,5.21-1.71,6.89-6.94,7C501.47,171.21,494.81,171.12,488.14,171.12Z"/><path class="cls-1" d="M472.83,293.63c-6.5,0-13,.1-19.5,0-5.37-.11-7.18-1.93-7.21-7.35q-.12-18.25,0-36.49c0-5.46,1.8-7.37,7.13-7.43q19.24-.2,38.49,0c5.58,0,7.37,2,7.39,7.7q.08,18.25,0,36.49c0,5.22-1.65,7-6.82,7.09C485.83,293.74,479.33,293.62,472.83,293.63Z"/><path class="cls-1" d="M189.32,354.68c-6.33,0-12.66.09-19,0-5.35-.11-7.22-2-7.25-7.32q-.12-18.24,0-36.48c0-5.43,1.77-7.42,7.1-7.49q19.49-.24,39,0c5,.06,6.9,2.17,6.93,7.14q.1,18.49,0,37c0,5.43-1.73,7.08-7.28,7.18C202.32,354.77,195.82,354.68,189.32,354.68Z"/><path class="cls-1" d="M252.61,354.67c-6.48,0-13,.1-19.45,0-5.43-.11-7.17-1.85-7.2-7.29-.08-12.3,0-24.61,0-36.91,0-4.8,2.33-7.06,7-7.08,13.13,0,26.27-.09,39.4,0,4.33,0,6.75,2.28,6.74,6.85,0,12.64,0,25.27,0,37.91,0,4.34-2.29,6.44-6.49,6.48-6.65.07-13.3,0-20,0Z"/><path class="cls-1" d="M378.26,354.67c-6.33,0-12.66.06-19,0-5.45-.08-7.28-1.84-7.31-7.2-.07-12.33,0-24.66,0-37,0-4.83,2.38-7.08,7-7.1,13,0,26-.13,39,0,5.3.06,7,2.1,7.07,7.51q.09,18.24,0,36.49c0,5.4-1.79,7.17-7.23,7.26C391.26,354.75,384.76,354.67,378.26,354.67Z"/><path class="cls-1" d="M724.37,293.63c-6.33,0-12.66.11-19,0-5.4-.12-7.23-2-7.27-7.29q-.13-18.24,0-36.48c0-5.56,1.89-7.47,7.61-7.53q19-.19,38,0c5.61.05,7.42,2,7.45,7.63q.1,18,0,36c0,6-1.65,7.61-7.79,7.72-6.33.11-12.66,0-19,0Z"/><path class="cls-1" d="M661.69,293.63c-6.5,0-13,.1-19.49,0-5.07-.1-7-2-7-7-.11-12.33,0-24.66-.06-37,0-4.68,2.2-7.25,6.9-7.28,13.16-.07,26.32-.11,39.48,0,4.32,0,6.74,2.25,6.72,6.87-.07,12.66,0,25.32,0,38,0,4.39-2.32,6.4-6.51,6.44-6.66.05-13.33,0-20,0Z"/><path class="cls-1" d="M315.63,354.66c-6.5,0-13,.1-19.49,0-5.18-.1-7-1.87-7.05-7-.1-12.49,0-25,0-37.48,0-4.57,2.36-6.79,6.77-6.81q19.74-.08,39.48,0c4.7,0,6.89,2.51,6.86,7.25-.07,12.33,0,24.65,0,37,0,5.09-1.77,6.87-7,7C328.62,354.77,322.13,354.65,315.63,354.66Z"/><path class="cls-1" d="M787.07,293.65c-6.16,0-12.33.05-18.49,0s-7.82-1.7-7.85-7.65q-.09-18,0-36c0-5.75,1.75-7.66,7.37-7.71q19-.19,38,0c5.66.05,7.65,2,7.69,7.51q.16,18.24,0,36.49c0,5.45-1.77,7.19-7.22,7.32-6.49.14-13,0-19.49,0Z"/><path class="cls-1" d="M701.14,109.83c-6.83,0-13.65.06-20.48,0-5.78-.06-7.56-1.8-7.63-7.38q-.11-8.74,0-17.48c.07-5.73,1.69-7.37,7.54-7.41q20.23-.13,40.46-.06c5.51,0,7.24,1.76,7.32,7.15.09,6.16,0,12.32,0,18.48,0,4.58-2.3,6.71-6.78,6.71Z"/><path class="cls-1" d="M766,77.48c6.66,0,13.32-.07,20,0,5.74.08,7.43,1.8,7.5,7.52.07,6,0,12,0,18,0,4.53-2.15,6.81-6.67,6.82q-21,0-41.95,0c-4.47,0-6.8-2.21-6.79-6.75,0-6.33,0-12.65,0-19,0-4.28,2.19-6.5,6.45-6.53,7.16,0,14.31,0,21.47,0Z"/><path class="cls-1" d="M635.39,77.53c6.66,0,13.32-.08,20,0,5.76.1,7.48,1.83,7.56,7.47.08,6,0,12,0,18,0,4.55-2.3,6.8-6.74,6.82q-21,.06-42,0c-4.47,0-6.78-2.21-6.77-6.76,0-6.33,0-12.66,0-19,0-4.59,2.46-6.61,6.91-6.6,7,0,14,0,21,0Z"/><path class="cls-1" d="M771.57,424.32c-6.32,0-12.64.06-19,0-5.52-.07-7.3-1.72-7.44-7-.13-5.15-.07-10.31,0-15.47,0-4.21,2.28-6.58,6.47-6.6,13.3-.09,26.61-.12,39.91,0,4.33,0,6.73,2.35,6.66,6.93-.07,5.15-.08,10.31,0,15.47.08,4.62-2.23,6.72-6.69,6.73-6.65,0-13.31,0-20,0Z"/><path class="cls-1" d="M897,424.32c-6.16,0-12.31.06-18.47,0s-7.57-1.62-7.64-7.79c-.06-4.82,0-9.65,0-14.47-.06-4.58,2.33-6.85,6.69-6.88q20-.12,39.93,0c4.14,0,6.44,2.35,6.46,6.62,0,5.32,0,10.65,0,16,0,4.25-2.2,6.48-6.48,6.5C910.61,424.34,903.79,424.31,897,424.32Z"/><path class="cls-1" d="M310,77.52c6.83,0,13.66-.1,20.48,0,5.37.1,7.22,2,7.32,7.26.11,6,0,12,0,18,0,4.72-2.35,7-7.09,7q-20.73,0-41.47,0c-4.8,0-7-2.37-7-7.07,0-6.16,0-12.32,0-18.49,0-4.43,2.18-6.79,6.77-6.75,7,0,14,0,21,0Z"/><path class="cls-1" d="M830.71,109.81H810.23c-4.5,0-6.79-2.22-6.81-6.73,0-6.16-.07-12.32,0-18.48,0-4.58,2.09-7.1,7-7.08,13.82.06,27.64-.08,41.45,0,5,0,6.94,2,7,7,.13,6,.11,12,0,18-.08,5.43-1.8,7.22-7.21,7.31-7,.12-14,0-21,0Z"/><path class="cls-1" d="M570.54,77.52c6.49,0,13-.06,19.48,0,6,.07,7.82,1.78,7.9,7.68s0,12,0,18c0,4.3-2.24,6.57-6.43,6.6q-21.23.13-42.47,0c-4.17,0-6.54-2.11-6.55-6.46q0-9.74,0-19.48c0-4.35,2.36-6.35,6.58-6.35Z"/><path class="cls-1" d="M375.23,77.53c6.66,0,13.33,0,20,0,5.59,0,7.5,1.86,7.61,7.48.12,6,0,12,0,18,0,4.44-2.24,6.81-6.77,6.81h-42c-4.52,0-6.79-2.29-6.82-6.75-.05-6.16-.13-12.33,0-18.49.09-5.08,1.92-6.93,7-7C361.23,77.43,368.23,77.53,375.23,77.53Z"/><path class="cls-1" d="M896,77.54c6.83,0,13.66-.07,20.48,0,5.41.08,7.29,1.91,7.38,7.16q.15,9,0,18c-.08,5.15-1.84,7.06-6.88,7.09-13.82.1-27.65,0-41.47,0-4.73,0-7.13-2.17-7.12-6.94,0-6.16,0-12.32,0-18.49,0-4.72,2.29-7,7.13-6.88,6.82.14,13.65,0,20.47,0Z"/></g></g></svg>