<svg id="Layer_1" data-name="Layer 1" xmlns="http://www.w3.org/2000/svg" width="945.5" height="463.5" viewBox="0 0 945.5 463.5"><defs><style>.cls-1{fill:#fff;}</style></defs><title>Untitled-1</title><path class="cls-1" d="M29,588V144H974V588ZM870.08,264.85c-1,2.08-2.7,4.14-2.74,6.23-.25,12.48-.16,25-.08,37.44,0,5.71,2.49,8.22,8.25,8.24q35.45.09,70.9,0c5.51,0,7.78-2.42,7.82-8.05q.12-19,0-37.94c0-5.69-2.22-7.84-7.89-7.86-23.63-.06-47.26-.09-70.9,0-1.85,0-3.7,1.37-5.55,2.1ZM602,387.42c-.73,1.92-2.05,3.82-2.08,5.75-.19,12.48-.14,25-.08,37.45,0,6.35,2.13,8.47,8.33,8.5q19.47.07,38.95,0c6.24,0,8.51-2.22,8.55-8.37q.11-18.48,0-37c0-6.32-2.44-8.63-8.87-8.65-12.82-.06-25.63-.12-38.45,0-2,0-4,1.21-5.94,1.85A5.42,5.42,0,0,1,602,387.42ZM470.45,507.81v-.08q-72.2,0-144.4,0c-7.44,0-9.22,1.76-9.24,9.05q-.06,21.49,0,43c0,8.58,1.67,10.26,10.17,10.26l287.8,0c7.22,0,9.29-2,9.3-9.11q0-21.49,0-43c0-8.76-1.35-10.08-10.21-10.08ZM39.92,153.88l-.35,1.63c1.63.46,3.26,1.3,4.89,1.31,13.77.1,27.55.16,41.32,0,16.75-.18,33.49-.58,50.23-.87,10.31-.18,20.61-.44,30.92-.46,11.72,0,23.45.36,35.17.29,12.6-.07,25.2-.61,37.81-.67,8.93,0,17.86.6,26.79.56,14.94-.07,29.87-.39,44.81-.7,6.64-.14,13.28-.67,19.93-.74,5.56-.06,11.12.35,16.68.41,2.31,0,4.63-.5,6.95-.48,14.08.11,28.16.32,42.23.46,8.78.09,17.57.11,26.35.15,4.16,0,8.31,0,12.47,0l0-.91ZM835.84,539h0c0,7.48,0,15,0,22.45,0,6.22,2.2,8.44,8.36,8.47q19.46.08,38.92,0c5.91,0,8.38-2.24,8.43-8q.19-22.95,0-45.9c0-6-2.38-8.09-8.26-8.12q-19.71-.07-39.42,0c-5.83,0-8,2.22-8,8.21C835.79,523.71,835.84,531.36,835.84,539ZM92.5,378.15c11.67,0,23.33,0,35,0,6.12,0,8.42-2.34,8.46-8.52q.12-18.5,0-37c0-6.37-2.42-8.67-8.87-8.68q-35-.06-70,0c-6.1,0-8.36,2.34-8.39,8.55q-.09,18.5,0,37c0,6.44,2.25,8.61,8.8,8.63C69.17,378.18,80.83,378.14,92.5,378.15ZM666.78,570c9,0,18,0,27,0,6.32,0,8.58-2.1,8.64-8.26q.21-22.72.11-45.44c0-6.27-2.26-8.38-8.46-8.4q-27.22-.07-54.44,0c-6.21,0-8.44,2.2-8.47,8.39q-.1,22.72,0,45.45c0,5.77,2.48,8.23,8.2,8.28C648.47,570,657.62,570,666.78,570ZM115.86,500.31v0H173.8c7.83,0,9.63-1.74,9.66-9.78.05-11.82,0-23.64,0-35.46,0-6.69-2.22-9-9-9Q116,446,57.53,446c-6.62,0-8.88,2.4-8.9,9.15q0,17.73,0,35.46c0,7.82,1.88,9.65,9.77,9.65Zm771.23-.18v0c19.64,0,39.29,0,58.93,0,6.07,0,8.1-2.11,8.13-8.11q.07-18.73,0-37.45c0-5.91-2.26-8.32-8.06-8.33q-58.93-.08-117.86,0c-6.13,0-8.35,2.3-8.38,8.51-.07,12,0,24,0,36,0,7.77,1.67,9.47,9.32,9.48Q858.13,500.16,887.09,500.13Zm15.92-61c14.16,0,28.32,0,42.48,0,6.59,0,8.6-2.06,8.62-8.68q.06-18.24,0-36.48c0-6.47-2.24-8.75-8.65-8.76q-42.48,0-85,0c-6.68,0-9,2.24-9,9-.07,12-.1,24,0,36,.06,7,2.08,8.88,9,8.89C874.69,439.11,888.85,439.08,903,439.09ZM174.82,538.37h0c0,7.82-.06,15.65,0,23.47.06,5.79,2.42,8.17,8.23,8.2q19.73.11,39.45,0c5.56,0,8.16-2.37,8.22-7.77q.23-23.47,0-46.94c0-5.28-2.53-7.55-7.83-7.58q-20.23-.11-40.45,0c-5.34,0-7.54,2.28-7.62,7.64C174.73,523.05,174.82,530.71,174.82,538.37Zm98.93-30.62v0c-9.15,0-18.31,0-27.46,0-6.32,0-8.51,2.12-8.53,8.31q-.08,23,0,45.93c0,5.58,2.34,8,7.81,8q27.71.11,55.42,0c5.57,0,8-2.41,8.05-7.85q.12-23.22,0-46.43c0-5.62-2.3-7.9-7.87-8C292.05,507.68,282.9,507.74,273.75,507.74Zm-169,31h0c0-7.33,0-14.65,0-22,0-6.87-2.23-9.1-8.88-9.12q-19.23,0-38.47,0c-6.57,0-8.66,2.08-8.68,8.7q-.09,22.48,0,45c0,6.46,2.32,8.67,8.78,8.69q19.23.06,38.47,0c6.39,0,8.7-2.31,8.79-8.77C104.79,553.78,104.71,546.28,104.71,538.79Zm7.12-.13h0c0,7.49,0,15,0,22.48,0,6.55,2.19,8.87,8.53,8.91q19.48.1,39,0c5.83,0,8.44-2.41,8.48-8.09q.18-23.23,0-46.46c0-5.23-2.51-7.74-7.66-7.77q-20.48-.14-41,0c-5,0-7.23,2.32-7.3,7.4C111.75,523,111.83,530.83,111.83,538.66ZM100.77,385c-14.48,0-29,0-43.44,0-6.25,0-8.57,2.27-8.61,8.33q-.12,18.73,0,37.45c0,6.25,2.23,8.43,8.46,8.44q42.95,0,85.89,0c6.71,0,8.92-2.26,9-9q.09-18,0-36c0-7-2.32-9.22-9.3-9.23Q121.75,385,100.77,385Zm196.68-61v0c-6.83,0-13.65-.08-20.48,0-5.4.08-7.93,2.58-8,8q-.12,19.23,0,38.46c0,5.15,2.55,7.62,7.77,7.65q20.23.14,40.46,0c5.21,0,7.68-2.5,7.72-7.71q.15-19.23,0-38.46c0-5.4-2.57-7.83-8.05-7.91C310.44,323.91,303.94,324,297.45,324ZM208.82,220.1v0c-7,0-14-.06-21,0-6,.07-8.61,2.61-8.69,8.45q-.14,9.24,0,18.48c.09,6.1,2.36,8.44,8.55,8.49q20.73.17,41.46,0c5.93,0,8.29-2.31,8.44-8.13q.25-9.48,0-19c-.15-6-2.62-8.23-8.81-8.3C222.14,220,215.48,220.1,208.82,220.1ZM709.76,538.81c0,7.82-.07,15.64,0,23.47.07,5.21,2.44,7.62,7.66,7.65q20,.13,39.94,0c5.59,0,8-2.3,8.07-7.84q.17-23.21,0-46.43c0-5.67-2.29-7.78-8-7.81q-20-.09-39.94,0c-5.63,0-7.68,2.16-7.74,8C709.71,523.5,709.77,531.15,709.76,538.81Zm-539-160.7c6.83,0,13.67.08,20.5,0,5.16-.08,7.66-2.51,7.7-7.72q.15-19.25,0-38.5c0-5.29-2.41-7.82-7.57-7.87q-20.5-.19-41,0c-4.85,0-7.4,2.6-7.44,7.49q-.18,19.5,0,39c0,5.15,2.6,7.54,7.81,7.61C157.48,378.18,164.15,378.12,170.81,378.11Zm62.67,0v0c6.49,0,13,0,19.48,0s8.91-2.28,8.94-8.58q.11-18.48,0-37c0-6.1-2.44-8.56-8.44-8.59q-19.48-.11-39,0c-6.18,0-8.57,2.34-8.6,8.35q-.1,18.73,0,37.47c0,6,2.41,8.3,8.6,8.36S227.16,378.16,233.49,378.16Zm126.37,0v0c6.82,0,13.64,0,20.46,0,4.6,0,7.4-2.55,7.47-7,.2-13.31.13-26.62,0-39.93-.05-4.52-2.72-7.12-7.28-7.15-13.81-.09-27.62-.1-41.43,0-4.52,0-7.12,2.58-7.14,7.22-.07,13-.11,26,0,38.93,0,5.49,2.49,7.83,8,7.9C346.55,378.18,353.2,378.11,359.86,378.11ZM140.15,262.75v-.06c-6.66,0-13.33-.06-20,0-6.2.07-8.32,2.22-8.35,8.53q-.09,18.49,0,37c0,6.16,2.33,8.63,8.34,8.68q19.74.14,39.48,0c5.39,0,8.17-2.65,8.22-7.91q.17-19.24,0-38.48c-.06-5.53-2.41-7.66-8.15-7.75C153.14,262.67,146.64,262.75,140.15,262.75Zm-63.47,0c-6.5,0-13-.05-19.5,0-6.2.07-8.32,2.21-8.34,8.51q-.08,18.75,0,37.5c0,5.55,2.4,8.08,7.84,8.12q20,.16,40,0c5.65,0,8.17-2.64,8.22-8.39q.14-19,0-38c0-5.13-2.55-7.62-7.71-7.73C90.34,262.62,83.51,262.74,76.68,262.74ZM799.94,378v0c6.82,0,13.65.08,20.47,0,4.88-.07,7.47-2.51,7.52-7.34q.18-19.47,0-38.94c0-5.14-2.55-7.6-7.76-7.64q-20-.14-39.94,0c-5.68,0-8.05,2.55-8.08,8.38q-.09,18.47,0,36.94c0,6.36,2.3,8.57,8.82,8.64C787.29,378.09,793.61,378,799.94,378ZM203.5,262.73v0c-7,0-14-.1-21,0-5,.09-7.45,2.48-7.49,7.36q-.16,19.49,0,39c0,5.13,2.61,7.74,7.73,7.79q20.24.18,40.48,0c5.39-.06,7.75-2.72,7.78-8.25q.1-19,0-38c0-5.48-2.46-7.81-8-7.89C216.5,262.66,210,262.73,203.5,262.73Zm628.49.11c-6.66,0-13.31-.06-20,0-5.46.07-7.85,2.46-7.87,8q-.09,19,0,37.94c0,5.49,2.44,7.94,8,8q20,.15,39.94,0c5.49-.05,7.84-2.53,7.87-8.08q.12-19,0-37.94c0-5.52-2.38-7.78-8-7.85C845.3,262.79,838.65,262.86,832,262.84Zm-62.64,54v0c6.66,0,13.32.09,20,0,5.22-.09,7.68-2.52,7.71-7.67q.12-19.22,0-38.45c0-5.6-2.26-7.74-8-7.77q-20-.1-39.95,0c-5.23,0-7.75,2.34-7.81,7.56q-.21,19.22,0,38.45c.05,5.45,2.6,7.83,8.12,7.91C756,316.89,762.69,316.81,769.35,316.81Zm-503.91-54v0c-6.49,0-13,0-19.47,0-6.23.06-8.31,2.14-8.35,8.49q-.11,18.72,0,37.44c0,5.7,2.44,8.17,8.29,8.21q19.72.14,39.44,0c5.52,0,8.1-2.43,8.15-7.85q.2-19.47,0-38.94c-.06-5-2.48-7.2-7.53-7.28C279.09,262.69,272.27,262.77,265.44,262.77Zm157,115.34v0c6.65,0,13.31.07,20,0,5.77-.08,8.16-2.4,8.21-8.23q.17-18.71,0-37.42c0-6.12-2.39-8.37-8.57-8.4q-19.46-.09-38.92,0c-6.09,0-8.32,2.26-8.36,8.51q-.11,18.71,0,37.42c0,5.9,2.28,8.08,8.18,8.16C409.43,378.17,415.92,378.11,422.4,378.11Zm62.83,0c6.83,0,13.66.09,20.49,0,5.25-.09,7.72-2.37,7.78-7.64q.24-19.24,0-38.48c-.06-5.53-2.57-7.86-8.1-7.89q-19.74-.13-39.48,0c-5.77,0-8.16,2.42-8.21,8.23q-.13,18.74-.06,37.48c0,6.12,2.3,8.29,8.56,8.36S478.9,378.09,485.23,378.08Zm126.28,0v0c6.83,0,13.66.09,20.48,0,5-.09,7.48-2.38,7.55-7.35q.26-19.48,0-39c-.06-5.25-2.55-7.59-7.83-7.63q-20.23-.14-40.47,0c-5,0-7.39,2.42-7.43,7.38q-.15,19.48,0,39c0,5.29,2.35,7.54,7.68,7.61C598.18,378.13,604.85,378.06,611.51,378.06Zm94.68-115.18v-.08c-6.66,0-13.32-.07-20,0-5.59.07-8,2.33-8,7.87q-.17,19.22,0,38.45c0,4.86,2.55,7.55,7.36,7.6q20.47.23,40.95,0c5.12-.06,7.48-2.71,7.51-7.93q.1-19,0-38c0-5.65-2.25-7.9-7.8-8C719.5,262.81,712.84,262.88,706.18,262.88Zm-62.84,0c-6.83,0-13.65-.08-20.48,0-5,.08-7.49,2.38-7.54,7.31q-.21,19.48,0,39c.06,5.12,2.7,7.62,7.87,7.66q20,.16,40,0c5.75-.05,8-2.51,8-8.46q.08-18.73,0-37.46c0-5.81-2.31-8-8.28-8C656.33,262.77,649.84,262.82,643.35,262.83Zm220,61.21c-6.66,0-13.31-.07-20,0-5.41.07-8,2.52-8,8q-.14,19,0,37.93c0,5.52,2.45,8,7.89,8q20,.13,39.93,0c5.55,0,7.86-2.39,7.89-7.93q.08-19,0-37.93c0-5.75-2.41-8-8.29-8.07C876.34,324,869.85,324,863.36,324ZM674.3,378c6.49,0,13,0,19.48,0s8.72-2.16,8.76-8.68q.12-18.48,0-37c0-5.88-2.33-8.29-8.13-8.33q-19.73-.14-39.46,0c-5.82,0-8.13,2.36-8.16,8.21q-.09,18.73,0,37.46c0,6.16,2.23,8.28,8.52,8.33S668,378.05,674.3,378ZM273.64,255.48c7,0,14,.12,21,0,5.65-.13,7.85-2.36,8-8,.15-6.32.12-12.65,0-19-.09-5.8-2.48-8.32-8.2-8.36q-21-.16-41.94,0c-5.76,0-8.17,2.54-8.29,8.31q-.19,9.23,0,18.47c.11,6.13,2.46,8.48,8.5,8.55C259.66,255.54,266.65,255.47,273.64,255.48Zm181.15,61.41v0c6.5,0,13,.08,19.5,0,5.74-.1,8.21-2.54,8.25-8.31q.13-18.75,0-37.49c0-5.94-2.31-8.18-8.2-8.21q-19.75-.11-39.49,0c-5.92,0-8.12,2.26-8.15,8.22q-.08,18.75,0,37.5c0,6,2.45,8.33,8.61,8.39C441.79,316.94,448.29,316.89,454.79,316.89Zm-63.29,0v0c6.48,0,13,.07,19.45,0,6-.09,8.3-2.33,8.33-8.08q.12-19,0-37.91c0-6-2.16-8.05-8.23-8.09q-19.7-.12-39.41,0c-5.74,0-8.12,2.14-8.18,7.7q-.21,19.2,0,38.41c.07,5.55,2.51,7.85,8,8C378.2,317,384.85,316.86,391.5,316.86ZM926.42,378v0c6.82,0,13.64.1,20.46,0,4.69-.09,7.14-2.44,7.18-7.07q.16-19.71,0-39.43c0-4.92-2.5-7.33-7.44-7.37q-20.21-.13-40.43,0c-5.23,0-7.76,2.39-7.81,7.61q-.2,19.21,0,38.43c.06,5.52,2.52,7.8,8.06,7.87C913.11,378.09,919.77,378,926.42,378ZM548.94,324c-6.83,0-13.66-.09-20.49,0-5.29.09-7.67,2.36-7.72,7.65q-.17,19.48,0,39c0,5,2.45,7.34,7.45,7.37q20.24.14,40.47,0c5.35,0,7.73-2.34,7.77-7.59q.17-19.23,0-38.47c0-5.52-2.51-7.84-8-7.92C561.93,324,555.43,324,548.94,324Zm188.4,54c6.66,0,13.32.07,20,0,5.73-.07,8-2.13,8.06-7.76q.18-19.22,0-38.45c-.06-5.6-2.35-7.7-8.07-7.73q-19.73-.11-39.45,0c-5.65,0-8,2.24-8,7.78q-.14,19.23,0,38.45c0,5.49,2.38,7.67,8.08,7.74C724.35,378.1,730.85,378,737.34,378Zm-593.92-158v0c-7.16,0-14.32-.08-21.48,0-5.13.08-7.91,2.38-8,6.92-.19,7.16-.15,14.32,0,21.48.09,4.34,2.63,6.93,6.92,7,14.65.14,29.31.16,44,0,5-.06,7.23-2.55,7.32-7.59.12-6.49.08-13,0-19.48-.07-5.73-2.47-8.18-8.21-8.27C157.08,220,150.25,220.09,143.42,220.09Zm390.69,35.36v-.07c7,0,14,.05,21,0,5.94-.06,8.31-2.25,8.42-8q.18-9.74-.09-19.49c-.15-5.26-2.5-7.62-7.78-7.66q-21.24-.17-42.49,0c-5.46,0-7.86,2.62-8,8.11-.11,6.16-.09,12.33,0,18.5.08,6.32,2.42,8.57,8.91,8.63C520.79,255.5,527.45,255.45,534.12,255.45Zm-456.33.1v0c7.16,0,14.33.11,21.49,0,5.52-.11,7.78-2.51,7.84-8.08.07-6.5.11-13,0-19.49-.09-5.13-2.54-7.74-7.69-7.79q-21.24-.21-42.48,0c-5.72,0-8,2.59-8.11,8.42-.08,6-.05,12,0,18,0,6.78,2.11,8.92,9,9C64.45,255.64,71.12,255.55,77.78,255.55ZM469,255.41c7.17,0,14.33.08,21.5,0,5.55-.08,7.9-2.4,8-8q.2-9.74,0-19.49c-.12-5.19-2.53-7.66-7.79-7.71q-21.24-.2-42.49,0c-5.5,0-7.89,2.57-8,8.05-.13,6.16-.06,12.33,0,18.5,0,6.32,2.36,8.62,8.82,8.68C455.67,255.45,462.34,255.41,469,255.41Zm-140.35,7.36v0c-6.65,0-13.31-.07-20,0-5.73.07-8.11,2.18-8.15,7.72q-.16,19.46.11,38.92c.07,5,2.44,7.38,7.44,7.43q20.46.2,40.92,0c4.95-.06,7.33-2.54,7.37-7.52q.16-19.46-.07-38.92c-.06-5.4-2.27-7.49-7.7-7.58C342,262.68,335.31,262.77,328.65,262.77Zm-79,176.42c6.83,0,13.65.08,20.48,0,5.16-.08,7.73-2.51,7.78-7.67q.19-19.23,0-38.46c0-5.4-2.6-7.93-8.06-8q-20-.15-40,0c-5.47,0-8,2.51-8,8q-.14,19.23,0,38.46c0,5.27,2.43,7.55,7.72,7.64C236.37,439.27,243,439.19,249.69,439.19Zm346.36,61c6.66,0,13.33.07,20,0,5.61-.08,7.91-2.33,7.95-7.92q.11-19,0-38c0-5.56-2.35-8-7.85-8.06q-20-.16-40,0c-5.51,0-8,2.5-8,8q-.15,19,0,38c0,5.6,2.4,7.91,7.94,8C582.72,500.24,589.39,500.16,596.05,500.17Zm-282.92-61v0c6.66,0,13.31.08,20,0,5.47-.08,7.88-2.47,7.91-8q.12-19,0-37.94c0-5.68-2.55-8.12-8.35-8.16q-19.72-.12-39.44,0c-5.43,0-8.12,2.54-8.17,7.86q-.16,19.22,0,38.44c.05,5.52,2.44,7.72,8.08,7.79C299.82,439.24,306.48,439.17,313.14,439.17Zm220,61c6.5,0,13,.05,19.5,0,6.16-.06,8.33-2.27,8.36-8.51q.07-18.5,0-37c0-6.12-2.36-8.5-8.44-8.53q-19.5-.09-39,0c-5.81,0-8.38,2.44-8.42,8.13q-.16,19,0,38c0,5.55,2.4,7.82,8,7.91C519.84,500.25,526.51,500.17,533.17,500.18Zm-346.38-61v0c6.66,0,13.33.06,20,0,5.89-.07,8.22-2.3,8.26-8.16q.13-19,0-38c0-5.47-2.53-8-7.94-8q-20-.13-40,0c-5.44,0-8.05,2.58-8.1,8q-.15,19.24,0,38.48c0,5.2,2.57,7.62,7.74,7.7C173.46,439.28,180.13,439.21,186.79,439.21Zm283.4,61c6.82,0,13.64.1,20.45,0,5-.1,7.37-2.44,7.41-7.38q.15-19.46,0-38.91c0-5-2.38-7.64-7.17-7.69-13.8-.15-27.61-.11-41.41,0-4.57,0-7.18,2.72-7.23,7.21q-.22,19.7,0,39.41c.05,4.92,2.6,7.26,7.53,7.36C456.55,500.26,463.37,500.17,470.19,500.17Zm-94.18-61c6.49,0,13,.06,19.47,0,6.08-.07,8.38-2.36,8.42-8.52q.1-18.47,0-36.94c0-6.12-2.45-8.59-8.4-8.63q-19.47-.11-38.93,0c-6.37,0-8.6,2.35-8.63,8.85q-.08,18.22,0,36.44c0,6.67,2.24,8.78,9.1,8.82C363.36,439.22,369.68,439.19,376,439.18Zm409.35,7v0c-6.66,0-13.32-.07-20,0-5.58.08-8.13,2.41-8.18,7.79q-.17,19.22,0,38.45c.05,5.24,2.54,7.64,7.72,7.67q20,.12,39.95,0c5.93,0,8.06-2.24,8.09-8.21q.09-18.73,0-37.45c0-5.9-2.56-8.27-8.66-8.3C798,446.12,791.68,446.15,785.35,446.15Zm-63,54c6.66,0,13.32.07,20,0,5.28-.08,7.62-2.36,7.66-7.64q.13-19.23,0-38.46c0-5.19-2.48-7.79-7.57-7.84q-20.23-.17-40.46,0c-5.15,0-7.68,2.57-7.72,7.74q-.17,19.23,0,38.46c0,5.45,2.54,7.69,8.15,7.76C709,500.21,715.7,500.16,722.36,500.14ZM580.5,262.85v-.07c-6.82,0-13.65,0-20.47,0-4.3,0-7.24,2-7.3,6.46-.19,13.48-.17,27-.07,40.44,0,4.6,2.77,7.08,7.3,7.11,13.65.1,27.3.13,40.94,0,4.91-.05,7.34-2.63,7.37-7.53q.14-19.47,0-38.95c0-5.31-2.29-7.37-7.78-7.44C593.81,262.79,587.15,262.85,580.5,262.85Zm78.92,237.3v0c6.49,0,13,.07,19.48,0,6-.08,8.13-2.19,8.16-8.12q.09-18.73,0-37.46c0-5.83-2.31-8.3-8.09-8.35q-20-.16-40,0c-5.1,0-7.69,2.58-7.75,7.75q-.19,19.23,0,38.46c.05,5.44,2.54,7.67,8.18,7.74C646.1,500.22,652.76,500.15,659.42,500.15Zm-220.9-61v0c6.82,0,13.64.09,20.45,0,5.12-.09,7.58-2.2,7.65-7.2q.3-19.7,0-39.4c-.06-4.93-2.65-7.35-7.56-7.39q-20.45-.18-40.9,0c-4.92,0-7.29,2.58-7.33,7.54q-.15,19.45,0,38.91c0,5.23,2.42,7.51,7.72,7.59C425.21,439.25,431.86,439.17,438.51,439.17Zm125.78,0v0c6.66,0,13.33.05,20,0,5.94-.06,8.24-2.23,8.29-8.11q.14-18.74,0-37.48c0-6.07-2.45-8.35-8.62-8.38q-19.24-.09-38.48,0c-6.44,0-8.68,2.27-8.7,8.74q-.06,18.49,0,37c0,6.2,2.17,8.26,8.51,8.31S558,439.16,564.29,439.16ZM517.56,262.83v0c-6.33,0-12.66,0-19,0-6.93,0-8.94,2-9,8.93q-.07,18,0,36c0,6.87,2.1,9.07,8.88,9.12q19.24.13,38.47,0c6,0,8.33-2.26,8.37-8.07q.15-19.23,0-38.47c0-5.36-2.24-7.37-7.76-7.44C530.89,262.77,524.22,262.83,517.56,262.83ZM501.84,439.16v0c6.67,0,13.33.08,20,0,5.19-.08,7.65-2.14,7.72-7.12q.28-19.74,0-39.49c-.06-4.85-2.72-7.33-7.61-7.37q-20.49-.18-41,0c-4.5,0-7.12,2.53-7.14,7.22,0,13.16-.1,26.33,0,39.49,0,5,2.44,7.22,7.49,7.3C488.17,439.24,495,439.16,501.84,439.16ZM218.25,500.22c6.82,0,13.65.09,20.47,0,5.38-.09,7.72-2.2,7.8-7.56q.26-19.47,0-38.94c-.06-5.12-2.74-7.58-7.91-7.62q-20.22-.13-40.45,0c-5,0-7.4,2.5-7.45,7.42q-.2,19.47-.07,38.95c0,5.31,2.33,7.61,7.62,7.73C204.94,500.34,211.6,500.23,218.25,500.22Zm63.12,0v0c6.66,0,13.32.07,20,0,5.68-.08,7.89-2.26,7.93-7.86q.12-19,0-38c0-5.86-2.4-8.26-8.12-8.29q-19.72-.1-39.45,0c-5.7,0-8.22,2.47-8.27,8.25q-.17,19,0,38c0,5.62,2.41,7.88,8,7.95C268.06,500.3,274.72,500.24,281.38,500.24Zm125.7,0v0c7,0,14,.05,21,0,4.57,0,7.23-2.38,7.25-7q.09-20,0-39.91c0-4.68-2.75-7-7.25-7.08-13.64-.1-27.27-.13-40.91,0-4.91,0-7.56,2.59-7.61,7.38q-.22,19.45,0,38.91c.07,5.6,2.47,7.72,8.15,7.8C394.1,500.32,400.59,500.25,407.08,500.25Zm346.4-61.15v0c6.66,0,13.31.06,20,0,5.66-.07,8.06-2.23,8.11-7.79q.18-19.22-.06-38.44c-.07-5.26-2.53-7.65-7.72-7.69q-20-.16-39.94,0c-5.61,0-8,2.38-8,7.88q-.12,19.22,0,38.44c0,5.32,2.29,7.52,7.65,7.6C740.16,439.18,746.82,439.1,753.48,439.1Zm-62.67,0v0c6.66,0,13.32.07,20,0,5.35-.07,7.74-2.2,7.81-7.54q.24-19.22,0-38.45c-.05-5.49-2.58-7.9-8.08-7.93q-19.72-.13-39.45,0c-5.88,0-8.19,2.33-8.22,8.19q-.11,19,0,38c0,5.58,2.29,7.75,8,7.82C677.49,439.19,684.15,439.13,690.81,439.13Zm-346,61.1v0c6.49,0,13,.07,19.46,0,5.72-.08,8.15-2.17,8.22-7.69q.24-19.21,0-38.42c-.06-5.5-2.55-7.9-8-8q-20-.17-39.91,0c-5.44,0-7.8,2.49-7.84,8.05q-.14,19,0,37.92c0,6,2.28,8.09,8.21,8.13C331.54,500.26,338.19,500.23,344.84,500.23ZM816.09,439.1c6.66,0,13.32.06,20,0,5.64-.07,7.9-2.29,7.93-7.87q.1-19,0-38c0-5.56-2.35-8-7.83-8.08q-20-.16-40,0c-5.48,0-8,2.49-8,8q-.15,19,0,38c0,5.71,2.49,8,8.4,8C803.1,439.15,809.59,439.1,816.09,439.1ZM729.67,255.33c7.16,0,14.31.1,21.47,0,5.23-.1,7.56-2.46,7.67-7.71.13-6.32.07-12.65,0-19-.06-5.76-2.44-8.37-8.13-8.41q-21-.17-41.93,0c-5.64,0-7.95,2.35-8,7.85q-.18,9.73,0,19.47c.09,5.63,2.22,7.7,8,7.77C715.69,255.4,722.68,255.33,729.67,255.33Zm65.15,0v0c7,0,14,.08,21,0,5.6-.08,7.94-2.36,8-7.84q.18-9.73,0-19.46c-.1-5.16-2.5-7.7-7.73-7.75q-21.46-.2-42.91,0c-5.18.05-7.37,2.56-7.46,7.92q-.15,9.48,0,19c.09,6,2.13,8.09,8.14,8.17C780.85,255.41,787.84,255.33,794.82,255.33Zm-131,0v0c7.32,0,14.65.13,22,0,5.11-.13,7.23-2.37,7.32-7.45.11-6.49.09-13,0-19.48-.07-5.82-2.31-8.12-8.25-8.16q-21-.14-42,0c-5.44,0-7.79,2.54-7.87,8.07q-.13,9.49,0,19c.08,5.78,2.37,8,8.3,8.09C650.19,255.44,657,255.37,663.84,255.37ZM800.29,569.94c6.83,0,13.66.07,20.5,0,5-.07,7.6-2.31,7.8-7.14.24-5.82.21-11.67,0-17.49-.17-4.44-2.58-7.19-7.26-7.2-13.66-.05-27.33-.09-41,0-5,0-7.31,2.38-7.42,7.38-.12,5.5-.11,11,0,16.5s2.33,7.88,7.9,7.95C787.29,570,793.79,569.95,800.29,569.94Zm125.69,0c6.66,0,13.32.05,20,0,5.82-.06,8.08-2.35,8.15-8.24.07-5.33.08-10.66,0-16s-2.41-7.56-7.73-7.6q-20-.13-40,0c-5.48,0-7.86,2.44-8,8q-.17,8,0,16c.13,5.53,2.47,7.79,8.06,7.86C913,570,919.49,569.94,926,569.94ZM338.84,255.45v0c6.82,0,13.64.06,20.46,0,6.6-.08,8.7-2.19,8.76-8.66q.08-9,0-18c0-6.31-2.38-8.69-8.81-8.73q-20.46-.1-40.92,0c-6.11,0-8.42,2.44-8.48,8.48s0,12,0,18c0,6.9,1.91,8.78,9,8.86C325.53,255.51,332.19,255.45,338.84,255.45Zm521.24-.16v0c7,0,14,.08,21,0,6-.08,8-2.17,8.05-8.23.07-6.32.08-12.64,0-19-.08-5.24-2.38-7.83-7.52-7.88q-21.45-.2-42.9,0c-5.12,0-7.52,2.65-7.6,7.83q-.15,9.73,0,19.46c.08,5.33,2.29,7.63,7.57,7.73C845.78,255.39,852.93,255.3,860.08,255.3Zm-260.58.12v-.07c7.16,0,14.32.06,21.47,0,4.62-.06,7.1-2.54,7.15-7.17.08-6.82.11-13.65,0-20.48-.08-4.88-2.5-7.43-7.43-7.47q-21.47-.18-43,0c-5.37.05-7.66,2.68-7.72,8.25q-.1,9.24,0,18.48c.06,6.12,2.33,8.39,8.51,8.46C585.52,255.48,592.51,255.42,599.5,255.42Zm-195.55,0v0c7.15,0,14.3.1,21.45,0,5.29-.1,7.58-2.44,7.66-7.67q.14-9.72,0-19.45c-.08-5.5-2.46-8-7.87-8.07q-21.2-.15-42.39,0c-5.44,0-7.85,2.63-7.92,8-.08,6.32-.06,12.64,0,19,.07,5.9,2.23,8.15,8.12,8.24C390,255.51,397,255.43,404,255.43Zm521.35-.11v0c7.15,0,14.3.12,21.44,0,5.09-.11,7.26-2.35,7.34-7.4q.17-10,0-19.95c-.08-5.13-2.53-7.63-7.73-7.67q-21.19-.15-42.39,0c-5.41,0-7.85,2.62-7.92,8q-.11,9.47,0,19c.08,5.82,2.29,8,8.28,8.07C911.34,255.38,918.32,255.32,925.31,255.32ZM542.25,153.86l.17-.28h-63v.28Z" transform="translate(-28.5 -124.5)"/><path class="cls-1" d="M602,387.42a5.42,5.42,0,0,0,.39-.39c15-.24,29.93-.54,44.89-.7,4.64-.05,7,2.32,6.93,7.15-.1,12.49-.07,25,0,37.48,0,4.35-2.1,6.59-6.33,6.61q-20.24.1-40.48,0c-4,0-6.27-2.33-6.22-6.28C601.4,416.65,601.75,402,602,387.42Z" transform="translate(-28.5 -124.5)"/><path d="M470.45,507.81h143.4c8.86,0,10.2,1.32,10.21,10.08q0,21.49,0,43c0,7.11-2.08,9.1-9.3,9.11L327,570c-8.5,0-10.16-1.68-10.17-10.26q0-21.49,0-43c0-7.29,1.8-9.05,9.24-9.05q72.2,0,144.4,0Zm.05,60.53q71.7,0,143.4,0c7.51,0,9-1.53,9-9.1q0-20.74,0-41.47c0-7.24-1.63-8.88-8.75-8.88q-143.9,0-287.8,0c-6.48,0-8.19,1.73-8.21,8.38,0,13.49,0,27,0,40.47,0,9.73.86,10.59,10.5,10.59Z" transform="translate(-28.5 -124.5)"/><path d="M39.92,153.88H436.07l0,.91c-4.16,0-8.31,0-12.47,0-8.78,0-17.57-.06-26.35-.15-14.08-.14-28.15-.35-42.23-.46-2.31,0-4.63.5-6.95.48-5.56-.06-11.13-.47-16.68-.41-6.64.07-13.28.6-19.93.74-14.93.31-29.87.63-44.81.7-8.93,0-17.86-.6-26.79-.56-12.6.06-25.2.6-37.81.67-11.72.07-23.45-.3-35.17-.29-10.31,0-20.61.28-30.92.46-16.74.29-33.49.69-50.23.87-13.77.15-27.55.09-41.32,0-1.63,0-3.26-.85-4.89-1.31Z" transform="translate(-28.5 -124.5)"/><path d="M835.84,539c0-7.65,0-15.3,0-23,.05-6,2.21-8.19,8-8.21q19.71-.05,39.42,0c5.88,0,8.21,2.17,8.26,8.12q.18,22.95,0,45.9c0,5.8-2.51,8-8.43,8q-19.46.08-38.92,0c-6.15,0-8.31-2.24-8.36-8.47-.05-7.48,0-15,0-22.45Zm1.3.7c0,7.93-.07,15.22,0,22.51.05,3.72,2,6,5.86,6,13.8.07,27.6.2,41.38-.18,1.91-.05,5.25-2.78,5.37-4.45.57-7.86.26-15.79.26-23.91Zm52.95-2.4c0-8.09.14-15.53-.06-23-.1-3.89-2.8-5.43-6.42-5.43q-20,0-39.9,0c-4.19,0-6.54,2.15-6.58,6.42-.06,6.15,0,12.3-.06,18.45,0,2.49.77,3.58,3.42,3.57C856.78,537.27,873.06,537.31,890.08,537.31Z" transform="translate(-28.5 -124.5)"/><path d="M92.5,378.15c-11.67,0-23.33,0-35,0-6.55,0-8.78-2.19-8.8-8.63q-.08-18.5,0-37c0-6.22,2.29-8.54,8.39-8.55q35-.07,70,0c6.45,0,8.83,2.31,8.87,8.68q.12,18.5,0,37c0,6.17-2.34,8.48-8.46,8.52C115.83,378.2,104.17,378.15,92.5,378.15Zm-.56-1.69v0c11.66,0,23.32,0,35,0,5.87,0,7.47-1.62,7.5-7.42q.09-18,0-36c0-5.9-1.88-7.84-7.77-7.86q-34.48-.08-69,0c-5.62,0-7.51,2-7.55,7.56q-.1,18,0,36c0,6,1.78,7.68,7.84,7.72C69.28,376.51,80.61,376.46,91.94,376.46Z" transform="translate(-28.5 -124.5)"/><path d="M666.78,570c-9.16,0-18.31.06-27.47,0-5.71,0-8.17-2.51-8.2-8.28q-.09-22.72,0-45.45c0-6.2,2.26-8.38,8.47-8.39q27.22,0,54.44,0c6.2,0,8.43,2.13,8.46,8.4q.1,22.72-.11,45.44c-.06,6.16-2.32,8.22-8.64,8.26C684.76,570,675.77,570,666.78,570Zm.22-1.65c9,0,18,.08,27,0,5.51-.06,7.08-1.69,7.11-7.27q.09-22.48,0-45c0-5.28-2-7.13-7.36-7.15q-26.73-.07-53.45,0c-5.77,0-7.56,1.72-7.58,7.36q-.1,22.23,0,44.46c0,6.05,1.58,7.53,7.85,7.57C649.35,568.36,658.18,568.31,667,568.31Z" transform="translate(-28.5 -124.5)"/><path d="M869.89,265c1.85-.73,3.69-2.09,5.55-2.1,23.63-.13,47.26-.1,70.9,0,5.67,0,7.85,2.17,7.89,7.86q.13,19,0,37.94c0,5.63-2.3,8-7.82,8.05q-35.45.12-70.9,0c-5.76,0-8.22-2.52-8.25-8.24-.07-12.48-.17-25,.08-37.44,0-2.1,1.78-4.16,2.74-6.23-.45,2.08-1.26,4.17-1.28,6.25-.12,12.32-.1,24.64,0,37,0,5.42,1.69,7,7.35,7q34.72.08,69.44,0c5.74,0,7.4-1.74,7.43-7.52.06-11.66,0-23.31,0-35,0-7.16-1.56-8.68-8.88-8.69-21.65,0-43.29,0-64.94,0A82.56,82.56,0,0,0,869.89,265Z" transform="translate(-28.5 -124.5)"/><path d="M115.86,500.31H58.41c-7.9,0-9.76-1.83-9.77-9.65q0-17.73,0-35.46c0-6.75,2.28-9.14,8.9-9.15q58.44,0,116.89,0c6.8,0,9,2.28,9,9,0,11.82.08,23.64,0,35.46,0,8-1.83,9.78-9.66,9.78H115.86Zm.36-1.62v0c19.32,0,38.64,0,58,0,6.14,0,7.83-1.68,7.86-7.62q.08-18,0-36c0-5.66-1.79-7.66-7.41-7.67q-58.45-.14-116.91-.05c-5.89,0-7.61,2-7.64,8-.05,11.49,0,23,0,34.47,0,7.32,1.53,8.88,8.73,8.89Q87.49,498.71,116.21,498.68Z" transform="translate(-28.5 -124.5)"/><path d="M887.09,500.13q-29,0-57.93,0c-7.66,0-9.31-1.7-9.32-9.48,0-12,0-24,0-36,0-6.21,2.26-8.51,8.38-8.51q58.93-.05,117.86,0c5.8,0,8,2.42,8.06,8.33q.05,18.73,0,37.45c0,6-2.05,8.09-8.13,8.11-19.64.06-39.29,0-58.93,0Zm-.23-1.47c19,0,38,0,57,0,7.82,0,9.15-1.36,9.16-8.92,0-11.5,0-23,0-34.49,0-5.88-1.82-7.77-7.76-7.9-6.66-.14-13.33,0-20,0q-47.23,0-94.46,0c-8.13,0-9.64,1.45-9.65,9q0,16.49,0,33c0,8,1.31,9.35,9.27,9.36Q858.62,498.7,886.86,498.66Z" transform="translate(-28.5 -124.5)"/><path d="M903,439.09c-14.16,0-28.32,0-42.48,0-6.94,0-9-1.93-9-8.89-.1-12-.08-24,0-36,0-6.8,2.31-9,9-9q42.48,0,85,0c6.41,0,8.64,2.29,8.65,8.76q0,18.24,0,36.48c0,6.62-2,8.66-8.62,8.68C931.33,439.12,917.17,439.09,903,439.09Zm0-1.42v0c14,0,28,0,42,0,6.3,0,7.91-1.73,7.94-8.1q.06-17.48,0-35c0-6.4-1.85-8.27-8.42-8.28q-41.71-.08-83.42,0c-6.44,0-8.13,1.85-8.15,8.48,0,11.16,0,22.31,0,33.47,0,8.23,1.18,9.42,9.64,9.44C876,437.69,889.54,437.66,903,437.66Z" transform="translate(-28.5 -124.5)"/><path d="M174.82,538.37c0-7.66-.08-15.31,0-23,.08-5.36,2.28-7.6,7.62-7.64q20.23-.15,40.45,0c5.3,0,7.79,2.31,7.83,7.58q.2,23.47,0,46.94c-.05,5.4-2.66,7.74-8.22,7.77q-19.73.12-39.45,0c-5.81,0-8.16-2.41-8.23-8.2-.08-7.82,0-15.65,0-23.47Zm54.41.28h0c0-7.5.06-15,0-22.49-.06-5.37-1.89-7.24-7.24-7.27q-19.24-.11-38.48,0c-5.34,0-7.27,1.86-7.31,7.23q-.15,22.48,0,45c0,5.34,1.91,7.18,7.3,7.21q19.24.11,38.48,0c5.56,0,7.17-1.67,7.23-7.15C229.29,553.64,229.22,546.14,229.22,538.65Z" transform="translate(-28.5 -124.5)"/><path d="M273.75,507.74c9.15,0,18.31-.07,27.46,0,5.57.06,7.84,2.34,7.87,8q.1,23.22,0,46.43c0,5.45-2.49,7.83-8.05,7.85q-27.71.1-55.42,0c-5.47,0-7.78-2.46-7.81-8q-.1-23,0-45.93c0-6.19,2.21-8.28,8.53-8.31,9.15,0,18.31,0,27.46,0Zm-.19,1.13c-8.83,0-17.66,0-26.49,0-6.08,0-7.9,1.74-7.93,7.62q-.09,22.24,0,44.49c0,5.45,1.83,7.29,7.19,7.31q27,.11,54,0c5.62,0,7.47-1.91,7.49-7.57q.09-22,0-44c0-6.09-1.94-7.84-8.25-7.87C290.89,508.85,282.22,508.88,273.56,508.88Z" transform="translate(-28.5 -124.5)"/><path d="M104.71,538.79c0,7.49.08,15,0,22.48-.09,6.47-2.4,8.75-8.79,8.77q-19.23.08-38.47,0c-6.46,0-8.74-2.23-8.78-8.69q-.11-22.48,0-45c0-6.62,2.11-8.68,8.68-8.7q19.23-.08,38.47,0c6.65,0,8.83,2.24,8.88,9.12.05,7.33,0,14.65,0,22Zm-1.59-.11c0-7.5.06-15,0-22.49-.05-5.37-1.9-7.26-7.2-7.29q-19.25-.09-38.49,0c-5.39,0-7.31,1.87-7.34,7.18q-.12,22.49,0,45c0,5.44,1.81,7.17,7.27,7.2q19.24.13,38.49,0c5.7,0,7.23-1.71,7.27-7.63C103.15,553.35,103.11,546,103.12,538.68Z" transform="translate(-28.5 -124.5)"/><path d="M111.83,538.66c0-7.83-.08-15.65,0-23.48.07-5.07,2.26-7.35,7.3-7.4q20.48-.17,41,0c5.15,0,7.63,2.54,7.66,7.77q.15,23.23,0,46.46c0,5.68-2.65,8.07-8.48,8.09q-19.48.09-39,0c-6.34,0-8.51-2.36-8.53-8.91,0-7.49,0-15,0-22.48Zm54.42-.16h0c0-7.33.05-14.66,0-22-.06-5.76-1.78-7.57-7.42-7.6q-19.25-.11-38.49,0c-5.14,0-7.12,1.81-7.16,6.84-.12,15.33-.07,30.66,0,46,0,4.22,2.17,6.54,6.47,6.54,13.33,0,26.66,0,40,0,4.57,0,6.68-2.25,6.65-6.79C166.21,553.83,166.25,546.17,166.25,538.5Z" transform="translate(-28.5 -124.5)"/><path d="M100.77,385q21,0,41.95,0c7,0,9.28,2.27,9.3,9.23q.06,18,0,36c0,6.76-2.25,9-9,9q-42.95.07-85.89,0c-6.23,0-8.42-2.19-8.46-8.44q-.11-18.73,0-37.45c0-6.07,2.36-8.3,8.61-8.33C71.81,385,86.29,385,100.77,385Zm-.2,52.62v0c14.15,0,28.29.06,42.44,0,5.91,0,7.51-1.64,7.55-7.42q.13-18,0-35.95c0-6-1.78-7.87-7.74-7.89q-42.44-.13-84.88,0c-6.15,0-7.8,1.93-7.82,8.3q-.06,17.23,0,34.45c0,6.94,1.62,8.55,8.51,8.57C72.61,437.65,86.59,437.63,100.57,437.63Z" transform="translate(-28.5 -124.5)"/><path d="M297.45,324c6.49,0,13-.07,19.48,0,5.48.08,8,2.51,8.05,7.91q.14,19.23,0,38.46c0,5.21-2.51,7.67-7.72,7.71q-20.23.15-40.46,0c-5.22,0-7.73-2.5-7.77-7.65q-.16-19.23,0-38.46c0-5.44,2.56-7.94,8-8,6.82-.1,13.65,0,20.48,0Zm-.71,52.43v0c6.5,0,13,.09,19.49,0,5.66-.1,7.23-1.62,7.27-7.13q.15-18.24,0-36.48c0-5.65-1.89-7.58-7.5-7.63q-19.24-.15-38.48,0c-5.07,0-7,2-7,7-.08,12.49,0,25,0,37.48,0,4.56,2.16,6.77,6.7,6.76C283.75,376.41,290.24,376.42,296.74,376.42Z" transform="translate(-28.5 -124.5)"/><path d="M208.82,220.1c6.66,0,13.32-.05,20,0,6.19.06,8.66,2.31,8.81,8.3q.24,9.48,0,19c-.16,5.82-2.52,8.1-8.44,8.13q-20.73.12-41.46,0c-6.19,0-8.46-2.39-8.55-8.49s-.1-12.32,0-18.48c.09-5.84,2.71-8.38,8.69-8.45,7-.08,14,0,21,0Zm-.69,33.73c7.16,0,14.32,0,21.48,0,4.21,0,6.51-2.12,6.51-6.46q0-9.49,0-19c0-4.46-2-6.82-6.64-6.82-14,0-28-.11-42,0-5.11,0-6.67,1.83-6.74,7.18-.08,5.83-.06,11.65,0,17.48s1.6,7.5,7.36,7.6C194.8,253.91,201.46,253.82,208.12,253.83Z" transform="translate(-28.5 -124.5)"/><path d="M709.77,538.81c0-7.66-.06-15.31,0-23,.06-5.83,2.11-8,7.74-8q20-.1,39.94,0c5.68,0,7.93,2.14,8,7.81q.17,23.21,0,46.43c0,5.54-2.48,7.81-8.07,7.84q-20,.11-39.94,0c-5.22,0-7.6-2.44-7.66-7.65C709.69,554.45,709.76,546.63,709.77,538.81Zm54.34.06c0-7.66.07-15.33,0-23-.06-5-2-6.94-7-7q-19.49-.12-39,0c-5,0-7,1.93-7,7q-.14,22.74,0,45.48c0,5.06,1.9,6.88,7.06,6.92q19.49.14,39,0c5.24,0,6.89-1.76,7-6.94C764.17,553.86,764.1,546.37,764.11,538.87Z" transform="translate(-28.5 -124.5)"/><path d="M170.81,378.11c-6.67,0-13.33.07-20,0-5.21-.07-7.77-2.46-7.81-7.61q-.17-19.5,0-39c0-4.9,2.59-7.45,7.44-7.49q20.5-.17,41,0c5.16,0,7.53,2.58,7.57,7.87q.14,19.25,0,38.5c0,5.2-2.54,7.64-7.7,7.72C184.48,378.18,177.65,378.11,170.81,378.11Zm.19-1.69v0c6.16,0,12.33,0,18.49,0,6.47-.05,8.12-1.57,8.16-7.87q.12-17.74,0-35.48c0-6-1.87-7.86-7.78-7.91q-19-.16-38,0c-5.41,0-7.27,1.88-7.31,7.23q-.14,18.49,0,37c0,5.26,1.71,6.91,6.92,7C158,376.51,164.51,376.42,171,376.42Z" transform="translate(-28.5 -124.5)"/><path d="M233.49,378.16c-6.33,0-12.66,0-19,0s-8.56-2.31-8.6-8.36q-.11-18.73,0-37.47c0-6,2.42-8.33,8.6-8.35q19.48-.08,39,0c6,0,8.4,2.5,8.44,8.59q.1,18.48,0,37c0,6.3-2.45,8.54-8.94,8.58s-13,0-19.48,0Zm.19-1.69v0c6.66,0,13.33,0,20,0,4.55,0,6.75-2.14,6.74-6.7,0-12.49-.08-25,0-37.48,0-4.85-2.41-7.08-7-7.1-13-.06-26,0-39,0-4.69,0-7.08,2.39-7.08,7.1,0,12.33-.09,24.65,0,37,0,5.36,1.91,7.11,7.35,7.2C221,376.54,227.35,376.46,233.68,376.46Z" transform="translate(-28.5 -124.5)"/><path d="M359.86,378.11c-6.65,0-13.31.07-20,0-5.5-.07-8-2.42-8-7.9-.09-13,0-26,0-38.93,0-4.64,2.62-7.18,7.14-7.22,13.81-.12,27.62-.1,41.43,0,4.56,0,7.23,2.63,7.28,7.15.15,13.31.23,26.62,0,39.93-.07,4.44-2.87,7-7.47,7-6.82,0-13.64,0-20.46,0Zm.06-1.67c6.5,0,13,.08,19.49,0,5.22-.09,6.83-1.72,6.86-7q.11-18.49,0-37c0-5.3-1.91-7.22-7.27-7.27-12.83-.11-25.65,0-38.48,0-4.59,0-7.24,2.15-7.25,6.94q0,18.74,0,37.48c0,4.78,2.46,6.95,7.18,6.9C346.92,376.39,353.42,376.44,359.92,376.44Z" transform="translate(-28.5 -124.5)"/><path d="M140.15,262.75c6.5,0,13-.07,19.49,0,5.74.09,8.09,2.22,8.15,7.75q.21,19.24,0,38.48c0,5.25-2.83,7.87-8.22,7.91q-19.74.13-39.48,0c-6,0-8.32-2.52-8.34-8.68q-.06-18.49,0-37c0-6.3,2.15-8.45,8.35-8.53,6.66-.08,13.33,0,20,0Zm-.5,52.38c6.5,0,13,.07,19.49,0,5.28-.08,7.06-1.71,7.1-6.79q.15-18.74,0-37.48c0-5-2-6.87-7.06-6.9q-19.49-.1-39,0c-5,0-6.92,1.94-7,7q-.15,18.49,0,37c0,5.3,1.95,7,7.41,7.11C127,315.18,133.31,315.12,139.64,315.12Z" transform="translate(-28.5 -124.5)"/><path d="M76.68,262.74c6.83,0,13.67-.11,20.49,0,5.17.11,7.67,2.6,7.71,7.73q.16,19,0,38c0,5.75-2.56,8.34-8.22,8.39q-20,.15-40,0c-5.44,0-7.81-2.57-7.84-8.12q-.1-18.75,0-37.5c0-6.3,2.15-8.45,8.34-8.51C63.68,262.69,70.18,262.74,76.68,262.74Zm-.18,52.39v0c6.33,0,12.66,0,19,0s7.81-1.54,7.83-7.58q.07-18,0-36c0-5.72-1.75-7.57-7.38-7.6q-19.23-.12-38.47,0c-5.26,0-7.13,1.94-7.17,7.38q-.15,18.24,0,36.47c.05,5.62,1.88,7.25,7.73,7.31C64.18,315.17,70.34,315.12,76.5,315.12Z" transform="translate(-28.5 -124.5)"/><path d="M799.94,378c-6.32,0-12.65,0-19,0-6.52-.06-8.8-2.28-8.82-8.64q-.07-18.47,0-36.94c0-5.83,2.4-8.34,8.08-8.38q20-.12,39.94,0c5.21,0,7.72,2.5,7.76,7.64q.14,19.47,0,38.94c0,4.83-2.63,7.26-7.52,7.34-6.82.1-13.65,0-20.47,0Zm-.06-1.63v0c6.66,0,13.32,0,20,0,4.17,0,6.77-1.84,6.8-6.19q.12-19.24,0-38.47c0-4.24-2.46-6.55-6.57-6.58q-20-.17-40,0c-4.12,0-6.47,2.21-6.46,6.57q0,19,0,38c0,4.6,2.24,6.7,6.75,6.68C786.89,376.38,793.38,376.4,799.88,376.4Z" transform="translate(-28.5 -124.5)"/><path d="M203.5,262.73c6.5,0,13-.07,19.49,0,5.56.08,8,2.41,8,7.89q.13,19,0,38c0,5.53-2.39,8.19-7.78,8.25q-20.24.22-40.48,0c-5.12,0-7.69-2.66-7.73-7.79q-.16-19.49,0-39c0-4.88,2.52-7.27,7.49-7.36,7-.13,14,0,21,0Zm-.57,52.38v0c6.5,0,13,.07,19.49,0,5.27-.08,7.13-1.73,7.18-6.79q.18-18.49,0-37c-.06-5.52-1.89-7.35-7.17-7.38-13-.09-26,0-39,0-4.47,0-6.86,2-6.86,6.62q0,19,0,38c0,4.56,2.32,6.65,6.85,6.61C189.94,315.06,196.43,315.11,202.93,315.11Z" transform="translate(-28.5 -124.5)"/><path d="M832,262.85c6.66,0,13.31-.06,20,0,5.62.07,8,2.33,8,7.85q.12,19,0,37.94c0,5.54-2.38,8-7.87,8.08q-20,.19-39.94,0c-5.53,0-7.93-2.49-8-8q-.14-19,0-37.94c0-5.53,2.41-7.92,7.87-8C818.67,262.78,825.33,262.84,832,262.85Zm.45,1.06c-6.33,0-12.66,0-19,0-6.14,0-7.77,1.62-7.79,7.67q-.08,18,0,36c0,5.85,1.64,7.52,7.39,7.55q19,.1,38,0c5.85,0,7.61-1.66,7.67-7.35q.17-18.23,0-36.47c-.05-5.49-2.09-7.3-7.77-7.35C844.77,263.87,838.6,263.91,832.44,263.91Z" transform="translate(-28.5 -124.5)"/><path d="M769.35,316.81c-6.66,0-13.32.08-20,0-5.51-.09-8.06-2.47-8.12-7.91q-.18-19.22,0-38.45c.06-5.22,2.58-7.54,7.81-7.56q20-.08,39.95,0c5.71,0,7.93,2.16,8,7.77q.13,19.22,0,38.45c0,5.15-2.5,7.58-7.71,7.67-6.66.12-13.32,0-20,0Zm-.35-1.69c6.66,0,13.33,0,20,0,4.56,0,6.86-2.21,6.87-6.67,0-12.66.05-25.32,0-38,0-4.15-2.25-6.53-6.54-6.54q-20,0-40,0c-4.27,0-6.48,2.16-6.49,6.46,0,12.66,0,25.32,0,38,0,4.55,2.2,6.75,6.73,6.73C756,315.09,762.5,315.11,769,315.12Z" transform="translate(-28.5 -124.5)"/><path d="M265.44,262.77c6.82,0,13.65-.08,20.47,0,5.05.08,7.47,2.26,7.53,7.28q.24,19.47,0,38.94c-.06,5.41-2.64,7.8-8.15,7.85q-19.72.15-39.44,0c-5.85,0-8.26-2.51-8.29-8.21q-.08-18.72,0-37.44c0-6.34,2.12-8.43,8.35-8.49,6.49-.06,13,0,19.47,0Zm0,52.35c6.5,0,13,.07,19.5,0,5.38-.07,7.15-1.85,7.18-7.25q.08-18.25,0-36.49c0-5.43-1.86-7.36-7.11-7.4q-19.5-.13-39,0c-4.95,0-6.89,2-6.93,7.07q-.13,18.5,0,37c0,5.36,1.86,7,7.37,7.1C252.74,315.17,259.08,315.12,265.41,315.12Z" transform="translate(-28.5 -124.5)"/><path d="M422.4,378.11c-6.49,0-13,.06-19.46,0-5.91-.07-8.15-2.26-8.18-8.16q-.12-18.71,0-37.42c0-6.25,2.26-8.49,8.36-8.51q19.46-.07,38.92,0c6.18,0,8.53,2.28,8.57,8.4q.13,18.71,0,37.42c-.05,5.83-2.44,8.15-8.21,8.23-6.65.09-13.31,0-20,0Zm.29-1.62v-.06c6.5,0,13,.09,19.49,0,5.24-.09,6.88-1.74,6.91-6.95q.12-18.49,0-37c0-5.3-1.93-7.23-7.29-7.27q-19.24-.16-38.48,0c-5.25,0-7.2,2.08-7.24,7.38q-.13,18.24,0,36.48c0,5.61,1.85,7.36,7.6,7.43C410,376.55,416.36,376.49,422.69,376.49Z" transform="translate(-28.5 -124.5)"/><path d="M485.23,378.08c-6.33,0-12.66.06-19,0s-8.54-2.25-8.56-8.36q-.07-18.74.06-37.48c0-5.81,2.44-8.2,8.21-8.23q19.74-.08,39.48,0c5.53,0,8,2.37,8.1,7.89q.21,19.24,0,38.48c-.07,5.28-2.54,7.56-7.78,7.64C498.89,378.16,492.06,378.08,485.23,378.08Zm.27-1.65v0c6.66,0,13.33,0,20,0,4.51,0,6.66-2.23,6.64-6.82-.07-12.33,0-24.65,0-37,0-5.34-1.93-7.38-7.17-7.43q-19.49-.17-39,0c-5,.05-6.85,2.14-6.88,7.2q-.12,18.49,0,37c0,5.07,1.85,6.92,6.95,7C472.51,376.54,479,376.43,485.5,376.43Z" transform="translate(-28.5 -124.5)"/><path d="M611.51,378.06c-6.66,0-13.32.07-20,0-5.34-.08-7.65-2.32-7.68-7.61q-.12-19.48,0-39c0-5,2.42-7.34,7.43-7.38q20.23-.16,40.47,0c5.29,0,7.77,2.38,7.83,7.63q.21,19.48,0,39c-.07,5-2.59,7.26-7.55,7.35-6.83.12-13.66,0-20.48,0Zm.16-1.63v0c6.5,0,13,.09,19.49,0,5.25-.1,6.95-1.77,7-6.9q.11-18.49,0-37c0-5.28-1.93-7.29-7.26-7.34q-19.24-.18-38.48,0c-5.34,0-7.26,2-7.29,7.33q-.13,18.49,0,37c0,5.13,1.81,6.82,7,6.92C598.67,376.52,605.17,376.43,611.66,376.43Z" transform="translate(-28.5 -124.5)"/><path d="M706.18,262.88c6.66,0,13.32-.07,20,0,5.55.07,7.77,2.33,7.8,8q.1,19,0,38c0,5.23-2.38,7.88-7.51,7.93q-20.47.22-40.95,0c-4.81-.05-7.32-2.74-7.36-7.6q-.15-19.22,0-38.45c0-5.54,2.46-7.8,8-7.87,6.66-.09,13.32,0,20,0ZM706,315.12c6.5,0,13,.07,19.49,0,5.4-.08,7.2-1.79,7.25-7.27q.17-18.24,0-36.48c-.05-5.56-2-7.39-7.68-7.42q-19-.11-38,0c-5.52,0-7.34,1.72-7.38,7.07q-.12,18.49,0,37c0,5.43,1.74,7,7.3,7.12C693.34,315.18,699.67,315.11,706,315.12Z" transform="translate(-28.5 -124.5)"/><path d="M643.35,262.83c6.49,0,13-.05,19.48,0,6,.06,8.25,2.23,8.28,8q.1,18.73,0,37.46c0,5.94-2.23,8.4-8,8.46q-20,.19-40,0c-5.16,0-7.81-2.54-7.87-7.66q-.22-19.47,0-39c.05-4.93,2.57-7.23,7.54-7.31C629.7,262.76,636.52,262.83,643.35,262.83Zm.15,52.26v0c6.5,0,13,.1,19.49,0,5.09-.1,6.89-1.93,6.92-7.06q.12-18.24,0-36.48c0-5.62-2-7.57-7.5-7.6q-19.24-.1-38.48,0c-5.18,0-7,1.8-7.06,6.87-.09,12.49,0,25-.06,37.48,0,4.56,2.18,6.78,6.69,6.79Z" transform="translate(-28.5 -124.5)"/><path d="M863.36,324c6.49,0,13,0,19.47,0,5.88.06,8.26,2.32,8.29,8.07q.11,19,0,37.93c0,5.54-2.34,7.9-7.89,7.93q-20,.11-39.93,0c-5.44,0-7.85-2.5-7.89-8q-.14-19,0-37.93c0-5.45,2.59-7.9,8-8C850.05,324,856.71,324,863.36,324Zm-.2,52.37h20c4.44,0,6.82-2.07,6.81-6.68,0-12.5,0-25-.05-37.49,0-4.88-2.12-7-7.07-7.06q-19.49-.18-39,0c-5,0-6.91,2-6.95,7.07q-.11,18.49,0,37c0,5.45,1.69,7.07,7.26,7.15C850.5,376.5,856.84,376.42,863.17,376.42Z" transform="translate(-28.5 -124.5)"/><path d="M674.3,378c-6.33,0-12.65,0-19,0s-8.5-2.17-8.52-8.33q-.08-18.73,0-37.46c0-5.85,2.34-8.19,8.16-8.21q19.73-.08,39.46,0c5.8,0,8.11,2.45,8.13,8.33q.08,18.48,0,37c0,6.52-2.23,8.62-8.76,8.68S680.79,378,674.3,378Zm.2-1.62c6.5,0,13,.08,19.49,0,5.48-.09,7.09-1.73,7.12-7.28q.09-18.24,0-36.48c0-5.34-1.87-7.42-7.11-7.47q-19.49-.18-39,0c-5,.05-6.89,2.15-6.92,7.17q-.1,18.49,0,37c0,5.14,1.82,7,6.9,7C661.5,376.52,668,376.42,674.5,376.43Z" transform="translate(-28.5 -124.5)"/><path d="M273.64,255.48c-7,0-14,.06-21,0-6-.07-8.4-2.42-8.5-8.55s-.12-12.32,0-18.47c.12-5.77,2.53-8.26,8.29-8.31q21-.16,41.94,0c5.72,0,8.11,2.56,8.2,8.36.1,6.32.13,12.65,0,19-.13,5.62-2.33,7.84-8,8C287.63,255.6,280.63,255.48,273.64,255.48Zm-.17-1.63v0c7,0,14,0,21,0,4.48,0,6.74-2.19,6.69-6.78-.07-6.32,0-12.65,0-19,0-4.27-2.17-6.5-6.46-6.5q-21.22,0-42.44,0c-4.25,0-6.45,2.21-6.44,6.51,0,6.16-.06,12.32,0,18.48.06,5.39,1.8,7.19,7.21,7.28C259.82,253.93,266.65,253.84,273.47,253.84Z" transform="translate(-28.5 -124.5)"/><path d="M454.79,316.89c-6.5,0-13,.05-19.5,0-6.15-.06-8.57-2.37-8.61-8.39q-.11-18.75,0-37.5c0-6,2.23-8.19,8.15-8.22q19.75-.08,39.49,0c5.89,0,8.16,2.27,8.2,8.21q.14,18.75,0,37.49c0,5.78-2.51,8.22-8.25,8.31-6.5.11-13,0-19.5,0Zm-.6-1.76c6.5,0,13,.07,19.5,0,5.77-.08,7.4-1.74,7.42-7.53q.07-18,0-36c0-5.74-1.75-7.61-7.35-7.65q-19.25-.12-38.49,0c-5.25,0-7.16,2-7.19,7.32q-.11,18.25,0,36.49c0,5.58,1.86,7.31,7.64,7.37C441.86,315.19,448,315.14,454.19,315.13Z" transform="translate(-28.5 -124.5)"/><path d="M391.5,316.86c-6.65,0-13.3.1-20,0-5.51-.1-8-2.4-8-8q-.24-19.2,0-38.41c.06-5.56,2.44-7.67,8.18-7.7q19.7-.1,39.41,0c6.06,0,8.19,2.1,8.23,8.09q.12,19,0,37.91c0,5.75-2.37,8-8.33,8.08-6.48.1-13,0-19.45,0Zm-.27-1.74c6.67,0,13.33,0,20,0,4.51,0,6.81-2.14,6.8-6.7,0-12.67,0-25.33,0-38,0-4.26-2.26-6.48-6.52-6.49q-20,0-40,0c-4.24,0-6.51,2.15-6.52,6.46,0,12.67,0,25.33,0,38,0,4.55,2.25,6.74,6.77,6.73C378.24,315.1,384.74,315.11,391.24,315.12Z" transform="translate(-28.5 -124.5)"/><path d="M926.42,378c-6.65,0-13.31.06-20,0-5.54-.07-8-2.35-8.06-7.87q-.2-19.21,0-38.43c.06-5.22,2.58-7.58,7.81-7.61q20.21-.12,40.43,0c4.94,0,7.4,2.44,7.44,7.37q.16,19.71,0,39.43c0,4.63-2.48,7-7.18,7.07-6.82.13-13.64,0-20.46,0Zm-.2-1.58v0c6.5,0,13,.08,19.49,0,5.44-.09,7.16-1.81,7.2-7.26q.11-18,0-36c0-6.07-2-7.94-8.23-8q-18.49-.11-37,0c-6,0-7.81,1.85-7.84,7.73q-.09,18,0,36c0,6,1.67,7.54,7.87,7.58S920.06,376.45,926.22,376.45Z" transform="translate(-28.5 -124.5)"/><path d="M548.94,324c6.5,0,13-.06,19.49,0,5.52.07,8,2.39,8,7.92q.16,19.23,0,38.47c0,5.25-2.42,7.55-7.77,7.59q-20.23.15-40.47,0c-5,0-7.4-2.39-7.45-7.37q-.18-19.48,0-39c0-5.29,2.42-7.56,7.72-7.65C535.28,323.92,542.11,324,548.94,324Zm-.73,52.39c6.83,0,13.66,0,20.49,0,4.29,0,6.4-2.23,6.4-6.54q0-19,0-38c0-4.29-2.27-6.6-6.43-6.64q-20-.19-40-.06c-4.38,0-6.69,2.43-6.68,7,0,12.49,0,25,.06,37.48,0,5,1.92,6.71,7.16,6.79C535.55,376.49,541.88,376.42,548.21,376.41Z" transform="translate(-28.5 -124.5)"/><path d="M737.34,378c-6.49,0-13,.06-19.48,0-5.7-.07-8-2.25-8.08-7.74q-.12-19.23,0-38.45c0-5.54,2.37-7.75,8-7.78q19.73-.08,39.45,0c5.72,0,8,2.14,8.07,7.73q.21,19.22,0,38.45c-.05,5.63-2.33,7.69-8.06,7.76C750.66,378.11,744,378,737.34,378Zm.12-1.63v0c6.5,0,13,.07,19.5,0,5.46-.08,7.11-1.75,7.14-7.29q.09-18.25,0-36.49c0-5.37-1.84-7.39-7.11-7.44q-19.49-.19-39,0c-5,0-6.88,2.09-6.92,7.14q-.12,18.5,0,37c0,5.18,1.78,7,6.9,7.05C724.46,376.5,731,376.41,737.46,376.41Z" transform="translate(-28.5 -124.5)"/><path d="M143.42,220.09c6.83,0,13.66-.08,20.48,0,5.74.08,8.15,2.53,8.21,8.27.07,6.49.11,13,0,19.48-.09,5-2.28,7.52-7.32,7.59-14.65.18-29.31.16-44,0-4.29,0-6.83-2.63-6.92-7-.15-7.16-.2-14.33,0-21.48.12-4.55,2.91-6.85,8-6.92,7.16-.11,14.32,0,21.48,0Zm.08,33.74v0H164c4.47,0,6.84-2.17,6.85-6.7q0-9.25,0-18.49c0-4.63-2.16-7.1-7-7.08-13.83.06-27.65,0-41.48,0-5.13,0-6.94,1.81-7.05,6.91-.13,6-.12,12,0,18,.12,5.63,1.87,7.27,7.71,7.34C129.84,253.89,136.67,253.83,143.5,253.83Z" transform="translate(-28.5 -124.5)"/><path d="M534.12,255.45c-6.66,0-13.33.05-20,0-6.5-.06-8.83-2.32-8.91-8.63-.08-6.16-.1-12.33,0-18.5.1-5.48,2.5-8.06,8-8.11q21.24-.19,42.49,0c5.28,0,7.62,2.4,7.78,7.66q.28,9.74.09,19.49c-.11,5.78-2.47,8-8.42,8-7,.07-14,0-21,0Zm0-1.6v0c7,0,14,.09,21,0,5.21-.09,6.91-1.82,7-6.93.09-6.16,0-12.32,0-18.48.05-4.57-2.13-6.82-6.64-6.82q-21,0-42,0c-4.45,0-6.8,2.1-6.76,6.72.06,6.16-.07,12.32,0,18.48.09,5.37,1.87,7.07,7.34,7.12C520.8,253.9,527.46,253.85,534.12,253.85Z" transform="translate(-28.5 -124.5)"/><path d="M77.78,255.55c-6.66,0-13.33.08-20,0-6.88-.11-9-2.25-9-9,0-6-.06-12,0-18,.08-5.83,2.39-8.38,8.11-8.42q21.24-.17,42.48,0c5.14.05,7.59,2.66,7.69,7.79.12,6.5.08,13,0,19.49-.06,5.57-2.32,8-7.84,8.08-7.16.14-14.33,0-21.49,0Zm.36-34v-.07c-6.83,0-13.66-.05-20.49,0-5.45.06-7.26,1.75-7.38,7.15-.14,6-.11,12,0,18,.11,5.39,1.84,7.14,7.35,7.18q20.49.15,41,0c5.31,0,7.1-1.93,7.19-7.35.1-5.83.11-11.66,0-17.49-.11-5.6-1.92-7.33-7.67-7.41C91.48,221.47,84.81,221.54,78.15,221.54Z" transform="translate(-28.5 -124.5)"/><path d="M469,255.41c-6.67,0-13.33,0-20,0-6.46-.06-8.79-2.36-8.82-8.68,0-6.17-.11-12.33,0-18.5.12-5.49,2.51-8,8-8.05q21.24-.18,42.49,0c5.26,0,7.67,2.52,7.79,7.71q.22,9.74,0,19.49c-.12,5.57-2.47,7.89-8,8C483.34,255.49,476.17,255.41,469,255.41Zm.43-1.57c7,0,14,0,21,0,4.15,0,6.65-1.92,6.67-6.31,0-6.66.07-13.32,0-20-.06-3.79-2.19-5.9-6-5.93-14.32-.09-28.63-.08-43-.08-4.32,0-6.39,2.28-6.38,6.55,0,6.16-.05,12.32,0,18.48.06,5.46,1.72,7.16,7.19,7.24C455.78,253.91,462.61,253.83,469.44,253.84Z" transform="translate(-28.5 -124.5)"/><path d="M328.65,262.77c6.65,0,13.31-.09,20,0,5.43.1,7.64,2.18,7.7,7.58q.22,19.46.07,38.92c0,5-2.42,7.47-7.37,7.52q-20.46.23-40.92,0c-5,0-7.37-2.42-7.44-7.43q-.27-19.46-.11-38.92c0-5.54,2.42-7.64,8.15-7.72,6.65-.09,13.31,0,20,0Zm0,52.36c6.33,0,12.67.05,19,0,5.7-.06,7.36-1.74,7.39-7.55q.08-18,0-36c0-5.83-1.92-7.62-7.93-7.64q-18.75-.06-37.49,0c-5.8,0-7.59,1.71-7.62,7.36q-.11,18.25,0,36.49c0,5.45,1.79,7.23,7.17,7.32C315.67,315.21,322.17,315.13,328.67,315.12Z" transform="translate(-28.5 -124.5)"/><path d="M249.69,439.19c-6.66,0-13.32.08-20,0-5.29-.09-7.67-2.37-7.72-7.64q-.18-19.23,0-38.46c0-5.49,2.52-8,8-8q20-.14,40,0c5.46,0,8,2.56,8.06,8q.16,19.23,0,38.46c-.05,5.17-2.62,7.6-7.78,7.67C263.34,439.27,256.52,439.19,249.69,439.19Zm.43-1.59c6,0,12,0,18,0,6.93-.07,8.32-1.38,8.36-8.1q.09-17.74,0-35.47c0-5.73-1.77-7.67-7.38-7.72q-19.23-.18-38.47.06c-5.42.07-7.07,1.87-7.11,7.42q-.15,18.24,0,36.47c0,5.47,1.75,7.22,7.18,7.33C237.13,437.7,243.63,437.6,250.13,437.59Z" transform="translate(-28.5 -124.5)"/><path d="M596.05,500.16c-6.66,0-13.33.07-20,0-5.54-.08-7.91-2.4-7.94-8q-.13-19,0-38c0-5.5,2.49-8,8-8q20-.15,40,0c5.51,0,7.82,2.5,7.85,8.06q.1,19,0,38c0,5.59-2.34,7.84-7.95,7.92C609.38,500.24,602.72,500.17,596.05,500.16Zm-.08-1.53h20c4.55,0,6.79-2.4,6.81-6.8.05-12.49,0-25,0-37.47,0-4.41-2.18-6.91-6.69-6.93q-19.73-.1-39.47-.07c-4.6,0-7,2.25-6.94,7.13.12,12.32,0,24.65.06,37,0,5.41,1.66,7,7.28,7.15C583.32,498.74,589.65,498.64,596,498.63Z" transform="translate(-28.5 -124.5)"/><path d="M313.14,439.17c-6.66,0-13.31.06-20,0-5.64-.07-8-2.28-8.08-7.79q-.18-19.22,0-38.44c0-5.32,2.74-7.83,8.17-7.86q19.72-.09,39.44,0c5.8,0,8.31,2.47,8.35,8.16q.13,19,0,37.94c0,5.52-2.44,7.91-7.91,8-6.66.1-13.31,0-20,0Zm-.23-1.55c6.5,0,13,.09,19.48,0,5.44-.09,7.22-1.81,7.27-7.27q.17-18.23,0-36.47c0-5.39-1.83-7.4-7.16-7.48-13-.18-26-.1-39-.08-4.7,0-7,2.36-7,7.14.07,12.32,0,24.65.06,37,0,5.42,1.76,7.11,7.27,7.2C300.25,437.72,306.58,437.64,312.9,437.62Z" transform="translate(-28.5 -124.5)"/><path d="M533.17,500.17c-6.67,0-13.33.08-20,0-5.62-.09-8-2.36-8-7.91q-.14-19,0-38c0-5.68,2.62-8.1,8.42-8.13q19.5-.08,39,0c6.08,0,8.42,2.4,8.44,8.53q.06,18.5,0,37c0,6.24-2.2,8.44-8.36,8.51C546.17,500.23,539.67,500.18,533.17,500.17Zm-.13-1.48c6.33,0,12.66.06,19,0,5.88-.07,7.75-2,7.77-7.85q.07-17.49,0-35c0-6.75-1.75-8.47-8.72-8.52q-18.24-.11-36.48,0c-6.26,0-7.84,1.71-7.87,8.14q-.08,17.74,0,35.48c0,6,1.7,7.62,7.82,7.69S526.89,498.68,533,498.69Z" transform="translate(-28.5 -124.5)"/><path d="M186.79,439.21c-6.66,0-13.33.07-20,0-5.17-.07-7.69-2.49-7.74-7.7q-.18-19.24,0-38.48c0-5.39,2.66-7.93,8.1-8q20-.13,40,0c5.41,0,7.9,2.58,7.94,8q.13,19,0,38c0,5.86-2.37,8.09-8.26,8.16-6.66.08-13.33,0-20,0Zm.2-1.57c6.5,0,13,.1,19.49,0,5.37-.11,7.21-1.91,7.25-7.34q.15-18.24,0-36.49c-.05-5.37-1.94-7.4-7.2-7.46-13-.15-26-.07-39,0-4.7,0-6.94,2.42-6.91,7.19.08,12.33,0,24.66.07,37,0,5.42,1.71,7,7.31,7.13C174.33,437.71,180.66,437.63,187,437.64Z" transform="translate(-28.5 -124.5)"/><path d="M470.19,500.17c-6.82,0-13.64.09-20.45,0-4.93-.09-7.47-2.44-7.53-7.36q-.22-19.7,0-39.41c.05-4.49,2.67-7.18,7.23-7.21,13.8-.11,27.61-.15,41.41,0,4.79.05,7.14,2.69,7.17,7.69q.14,19.46,0,38.91c0,4.95-2.43,7.29-7.41,7.38C483.83,500.27,477,500.17,470.19,500.17Zm.07-1.52h19.49c4.68,0,7.12-2.25,7.11-7q0-18.49,0-37c0-4.67-2.2-7.26-6.91-7.28q-19.74-.08-39.49,0c-4.4,0-6.74,2.14-6.71,6.79.08,12.5,0,25,0,37.49,0,5.15,1.76,6.87,7,7C457.26,498.76,463.76,498.66,470.26,498.65Z" transform="translate(-28.5 -124.5)"/><path d="M376,439.19c-6.32,0-12.65,0-19,0-6.86,0-9.07-2.15-9.1-8.82q-.07-18.22,0-36.44c0-6.51,2.26-8.82,8.63-8.85q19.47-.1,38.93,0c6,0,8.37,2.51,8.4,8.63q.11,18.47,0,36.94c0,6.16-2.34,8.45-8.42,8.52C389,439.24,382.5,439.18,376,439.19Zm-.3-1.55c6.33,0,12.66.06,19,0,6.06-.07,7.66-1.7,7.68-7.77q.06-17.74,0-35.48c0-6.25-1.74-8.06-8-8.1q-18.49-.12-37,0c-6.27,0-8,1.84-8.07,8.11q-.1,17.74,0,35.48c0,6,1.75,7.62,7.86,7.73S369.54,437.62,375.7,437.63Z" transform="translate(-28.5 -124.5)"/><path d="M785.35,446.15c6.33,0,12.65,0,19,0,6.1,0,8.64,2.4,8.66,8.3q.08,18.73,0,37.45c0,6-2.16,8.17-8.09,8.21q-20,.12-39.95,0c-5.18,0-7.67-2.44-7.72-7.67q-.19-19.22,0-38.45c0-5.38,2.6-7.71,8.18-7.79,6.66-.1,13.32,0,20,0Zm-.15,52.52v0c6.5,0,13,0,19.49,0,4.7,0,7.12-2.23,7.12-7q0-18.49,0-37c0-4.68-2.21-7.29-6.9-7.3q-20-.07-40,.1c-4.31,0-6.24,2.46-6.22,6.72,0,12.49,0,25,0,37.48,0,5.15,1.76,6.87,7,7C772.21,498.76,778.71,498.66,785.21,498.66Z" transform="translate(-28.5 -124.5)"/><path d="M722.36,500.15c-6.66,0-13.32.06-20,0-5.61-.06-8.1-2.31-8.15-7.76q-.18-19.23,0-38.46c0-5.17,2.58-7.7,7.72-7.74q20.23-.15,40.46,0c5.09,0,7.54,2.65,7.57,7.84q.11,19.23,0,38.46c0,5.28-2.38,7.56-7.66,7.64C735.68,500.22,729,500.14,722.36,500.15Zm-.16-1.5v0c6.5,0,13,.1,19.49,0,5.16-.1,7-1.88,7.09-6.92.11-12.32,0-24.65.06-37,0-4.68-2.17-7.29-6.86-7.32q-19.74-.14-39.47,0c-4.69,0-6.84,2.52-6.79,7.29.11,12.32,0,24.65.06,37,0,5.15,1.75,6.89,6.94,7C709.21,498.76,715.71,498.65,722.2,498.65Z" transform="translate(-28.5 -124.5)"/><path d="M580.5,262.85c6.66,0,13.32-.07,20,0,5.49.07,7.74,2.13,7.78,7.44q.16,19.47,0,38.95c0,4.9-2.46,7.48-7.37,7.53-13.65.14-27.3.11-40.94,0-4.53,0-7.27-2.52-7.3-7.11-.1-13.48-.12-27,.07-40.44.06-4.42,3-6.44,7.3-6.46,6.82,0,13.65,0,20.47,0Zm-.12,52.26v0c6.5,0,13,.06,19.49,0,5.4-.07,7.14-1.82,7.17-7.28q.1-18.24,0-36.48c0-5.36-1.92-7.35-7.15-7.39q-19.49-.13-39,0c-5,0-6.88,2-6.91,7.07q-.12,18.49,0,37c0,5.32,1.84,7,7.38,7.08C567.71,315.18,574,315.11,580.37,315.11Z" transform="translate(-28.5 -124.5)"/><path d="M659.42,500.15c-6.66,0-13.32.07-20,0-5.64-.07-8.13-2.31-8.18-7.74q-.19-19.23,0-38.46c.05-5.17,2.65-7.72,7.75-7.75q20-.15,40,0c5.78,0,8.07,2.51,8.09,8.35q.07,18.73,0,37.46c0,5.94-2.16,8-8.16,8.12-6.49.09-13,0-19.48,0Zm0-1.48c6.16,0,12.33.05,18.49,0s8-1.79,8-8.12q.07-17.49,0-35c0-6.15-1.86-8.2-8-8.25q-19-.17-38,.1c-5.5.07-7,1.81-7.08,7.38q-.1,18.24,0,36.48c0,5.65,1.75,7.3,7.59,7.38C646.73,498.73,653.06,498.67,659.39,498.67Z" transform="translate(-28.5 -124.5)"/><path d="M438.51,439.17c-6.65,0-13.3.08-20,0-5.3-.08-7.68-2.35-7.72-7.59q-.14-19.45,0-38.91c0-5,2.41-7.49,7.33-7.54q20.45-.2,40.9,0c4.91,0,7.49,2.46,7.56,7.39q.26,19.7,0,39.4c-.08,5-2.54,7.11-7.65,7.2-6.82.12-13.63,0-20.45,0Zm-.32-1.56c6.83,0,13.66,0,20.49,0,4.19,0,6.53-2,6.52-6.43q0-19,0-38c0-4.56-2.31-6.84-6.72-6.86q-19.74-.1-39.48,0c-4.7,0-6.92,2.55-6.9,7.26.05,12.16,0,24.33,0,36.49,0,5.64,1.88,7.45,7.55,7.53C425.86,437.69,432,437.62,438.19,437.61Z" transform="translate(-28.5 -124.5)"/><path d="M564.29,439.16c-6.33,0-12.66,0-19,0s-8.48-2.12-8.51-8.31q-.09-18.49,0-37c0-6.47,2.27-8.72,8.7-8.74q19.24-.06,38.48,0c6.17,0,8.57,2.31,8.62,8.38q.14,18.74,0,37.48c0,5.88-2.35,8-8.29,8.11-6.66.07-13.33,0-20,0Zm.3-1.54c6,0,12,0,18,0,7.15-.07,8.54-1.46,8.56-8.43q0-17.24,0-34.48c0-6.68-1.46-8.29-8.22-8.36q-18.49-.21-37,0c-6,0-7.83,1.94-7.86,7.78q-.08,18,0,36c0,5.66,1.8,7.45,7.5,7.55C551.92,437.72,558.26,437.64,564.59,437.62Z" transform="translate(-28.5 -124.5)"/><path d="M517.56,262.83c6.66,0,13.32-.06,20,0,5.53.07,7.72,2.08,7.76,7.44q.17,19.23,0,38.47c0,5.81-2.41,8-8.37,8.07q-19.24.12-38.47,0c-6.78,0-8.85-2.24-8.88-9.12q-.08-18,0-36c0-6.93,2-8.88,9-8.93,6.33,0,12.66,0,19,0Zm-.42,52.29c6.67,0,13.33.09,20,0,5.23-.1,6.91-1.78,6.94-7q.1-18.5,0-37c0-5.31-1.91-7.13-7.31-7.16q-19.25-.11-38.49,0c-5.32,0-7.17,1.89-7.2,7.29q-.12,18.25,0,36.49c0,5.64,1.8,7.31,7.61,7.37C504.81,315.17,511,315.11,517.14,315.12Z" transform="translate(-28.5 -124.5)"/><path d="M501.84,439.16c-6.83,0-13.66.08-20.49,0-5.06-.08-7.45-2.3-7.49-7.3-.12-13.16-.05-26.33,0-39.49,0-4.7,2.63-7.18,7.14-7.22q20.49-.19,41,0c4.89,0,7.55,2.53,7.61,7.37q.25,19.74,0,39.49c-.07,5-2.53,7-7.72,7.12-6.66.1-13.33,0-20,0Zm0-1.54c6.5,0,13,.12,19.5,0,5.17-.12,6.8-1.87,6.82-7.09q.09-18.25,0-36.49c0-5.68-1.82-7.65-7.39-7.7q-19.24-.17-38.49,0c-5.33.06-7.09,2-7.13,7.43q-.14,18.25,0,36.49c0,5.43,1.84,7.25,7.21,7.35C488.83,437.73,495.33,437.63,501.83,437.62Z" transform="translate(-28.5 -124.5)"/><path d="M218.25,500.23c-6.66,0-13.32.11-20,0-5.29-.11-7.59-2.42-7.62-7.73q-.12-19.47.07-38.95c.05-4.92,2.49-7.37,7.45-7.42q20.22-.19,40.45,0c5.18,0,7.85,2.49,7.91,7.62q.24,19.47,0,38.94c-.07,5.35-2.42,7.46-7.8,7.56C231.9,500.31,225.08,500.22,218.25,500.23Zm.07-1.55c6.5,0,13,.09,19.49,0,5.55-.1,7.24-1.75,7.28-7.18q.12-18.49,0-37c0-5-1.93-7.08-6.93-7.14q-19.49-.22-39,0c-5.33.07-7.07,2.06-7.1,7.49q-.11,18.24,0,36.48c0,5.34,1.9,7.21,7.25,7.32C205.66,498.77,212,498.68,218.32,498.68Z" transform="translate(-28.5 -124.5)"/><path d="M281.38,500.24c-6.66,0-13.32.07-20,0-5.55-.07-7.91-2.33-8-7.95q-.16-19,0-38c.05-5.78,2.58-8.22,8.27-8.25q19.72-.09,39.45,0c5.73,0,8.09,2.43,8.12,8.29q.1,19,0,38c0,5.61-2.25,7.78-7.93,7.86-6.66.1-13.32,0-20,0Zm.23-1.57v0c6.65,0,13.3.05,20,0,4.19,0,6.49-2.14,6.49-6.48,0-12.64,0-25.27,0-37.91,0-4.57-2.41-6.82-6.74-6.85-13.13-.09-26.27,0-39.4,0-4.65,0-7,2.27-7,7.08.06,12.3,0,24.61,0,36.91,0,5.44,1.77,7.18,7.2,7.29C268.64,498.77,275.12,498.67,281.61,498.67Z" transform="translate(-28.5 -124.5)"/><path d="M407.08,500.25c-6.49,0-13,.07-19.46,0-5.68-.08-8.08-2.2-8.15-7.8q-.24-19.45,0-38.91c.05-4.79,2.7-7.33,7.61-7.38,13.63-.12,27.27-.09,40.91,0,4.5,0,7.22,2.39,7.25,7.08q.11,20,0,39.91c0,4.66-2.67,7-7.25,7-7,.07-14,0-21,0Zm.19-1.58c6.5,0,13,.09,19.49,0,5.45-.09,7.21-1.86,7.23-7.26q.1-18.24,0-36.49c0-5.41-1.78-7.45-7.07-7.51-13-.16-26-.07-39,0-4.63,0-7,2.26-7,7.1.07,12.33,0,24.66,0,37,0,5.36,1.86,7.12,7.31,7.2C394.6,498.73,400.93,498.66,407.26,498.67Z" transform="translate(-28.5 -124.5)"/><path d="M753.48,439.1c-6.66,0-13.31.07-20,0-5.36-.08-7.62-2.28-7.65-7.6q-.13-19.22,0-38.44c0-5.51,2.38-7.85,8-7.88q20-.13,39.94,0c5.19,0,7.65,2.43,7.72,7.69q.24,19.22.06,38.44c-.05,5.56-2.46,7.72-8.11,7.79-6.66.08-13.31,0-20,0Zm-.11-1.47v0c6.33,0,12.66.08,19,0,6.14-.11,7.77-1.73,7.79-7.72q.07-18,0-36c0-5.63-1.84-7.58-7.45-7.63q-19-.18-38,0c-5.72.06-7.58,2-7.61,7.53q-.12,18.24,0,36.48c0,5.34,1.87,7.17,7.27,7.29C740.71,437.74,747,437.63,753.37,437.63Z" transform="translate(-28.5 -124.5)"/><path d="M602,387.42c-.29,14.62-.64,29.23-.82,43.85,0,3.95,2.18,6.26,6.22,6.28q20.24.1,40.48,0c4.23,0,6.35-2.26,6.33-6.61-.06-12.49-.08-25,0-37.48,0-4.83-2.3-7.2-6.93-7.15-15,.16-29.93.46-44.89.7,2-.65,4-1.83,5.94-1.85,12.81-.16,25.63-.1,38.45,0,6.43,0,8.83,2.33,8.87,8.65q.12,18.48,0,37c0,6.14-2.31,8.34-8.55,8.37q-19.47.09-38.95,0c-6.19,0-8.29-2.15-8.33-8.5-.06-12.48-.11-25,.08-37.45C600,391.24,601.31,389.34,602,387.42Z" transform="translate(-28.5 -124.5)"/><path d="M690.81,439.13c-6.66,0-13.32.06-20,0-5.67-.07-7.93-2.24-8-7.82q-.11-19,0-38c0-5.86,2.34-8.16,8.22-8.19q19.72-.11,39.45,0c5.5,0,8,2.44,8.08,7.93q.19,19.22,0,38.45c-.07,5.34-2.45,7.47-7.81,7.54-6.66.09-13.32,0-20,0Zm-.12-1.49v0c6.66,0,13.33,0,20,0,4.19,0,6.52-2,6.51-6.44,0-12.66,0-25.32,0-38,0-4.63-2.4-6.84-6.72-6.87-13.16-.1-26.32-.06-39.48,0-4.7,0-6.92,2.6-6.9,7.28,0,12.33-.05,24.66.06,37,0,5.07,2,6.92,7,7C677.69,437.73,684.19,437.63,690.69,437.63Z" transform="translate(-28.5 -124.5)"/><path d="M344.84,500.23c-6.65,0-13.31,0-20,0-5.92,0-8.16-2.14-8.21-8.13q-.14-19,0-37.92c0-5.56,2.4-8,7.84-8.05q20-.14,39.91,0c5.5,0,8,2.45,8,8q.22,19.21,0,38.42c-.07,5.52-2.49,7.62-8.22,7.69-6.49.09-13,0-19.46,0Zm-.21-1.58c6.5,0,13,.12,19.49,0,5.22-.13,7-1.9,7-7,.08-12.33,0-24.65,0-37,0-4.74-2.16-7.23-6.86-7.25q-19.74-.09-39.48,0c-4.41,0-6.77,2.25-6.77,6.81,0,12.49-.06,25,0,37.48,0,5.09,1.88,6.85,7.05,7C331.63,498.76,338.13,498.66,344.63,498.65Z" transform="translate(-28.5 -124.5)"/><path d="M816.09,439.1c-6.49,0-13,0-19.48,0-5.91-.05-8.36-2.3-8.4-8q-.13-19,0-38c0-5.47,2.52-7.93,8-8q20-.13,40,0c5.48,0,7.8,2.51,7.83,8.08q.09,19,0,38c0,5.57-2.29,7.8-7.93,7.87C829.4,439.16,822.74,439.1,816.09,439.1Zm0-1.44v0c6.5,0,13,.11,19.49,0,5.45-.12,7.18-1.86,7.22-7.32q.14-18.24,0-36.49c0-5.5-2-7.46-7.69-7.51q-19-.17-38,0c-5.62.06-7.34,2-7.37,7.71q-.1,18,0,36c0,6,1.74,7.59,7.85,7.65S809.91,437.65,816.07,437.65Z" transform="translate(-28.5 -124.5)"/><path d="M729.67,255.33c-7,0-14,.07-21,0-5.8-.08-7.94-2.14-8-7.77q-.15-9.73,0-19.47c.1-5.5,2.4-7.81,8-7.85q21-.15,41.93,0c5.7,0,8.07,2.65,8.13,8.41.07,6.32.13,12.65,0,19-.11,5.25-2.44,7.62-7.67,7.71C744,255.43,736.83,255.33,729.67,255.33Zm.46-1.5h20.48c4.48,0,6.81-2.12,6.78-6.71,0-6.16,0-12.32,0-18.48-.08-5.39-1.8-7.13-7.32-7.15q-20.23-.07-40.46.06c-5.85,0-7.47,1.67-7.54,7.41s-.07,11.66,0,17.48c.07,5.59,1.85,7.32,7.63,7.38C716.48,253.89,723.31,253.84,730.14,253.82Z" transform="translate(-28.5 -124.5)"/><path d="M794.82,255.33c-7,0-14,.07-21,0-6-.08-8-2.14-8.14-8.17q-.14-9.48,0-19c.09-5.36,2.28-7.87,7.46-7.92q21.45-.23,42.91,0c5.23,0,7.63,2.59,7.73,7.75q.18,9.73,0,19.46c-.1,5.48-2.44,7.76-8,7.84-7,.1-14,0-21,0Zm.13-33.85v.09c-7.16,0-14.32,0-21.47,0-4.26,0-6.44,2.25-6.45,6.53,0,6.33,0,12.65,0,19,0,4.54,2.33,6.74,6.79,6.75q21,0,41.95,0c4.52,0,6.7-2.29,6.67-6.82,0-6,.06-12,0-18-.07-5.72-1.75-7.44-7.5-7.52C808.27,221.41,801.61,221.48,795,221.48Z" transform="translate(-28.5 -124.5)"/><path d="M663.84,255.37c-6.83,0-13.65.07-20.48,0-5.94-.08-8.22-2.31-8.3-8.09q-.13-9.49,0-19c.08-5.53,2.43-8,7.87-8.07q21-.15,42,0c5.93,0,8.18,2.33,8.25,8.16.08,6.49.1,13,0,19.48-.09,5.08-2.2,7.32-7.32,7.45-7.32.18-14.65,0-22,0Zm.55-33.83v0c-7,0-14,0-21,0-4.44,0-6.9,2-6.91,6.6,0,6.33,0,12.66,0,19,0,4.55,2.3,6.75,6.77,6.76q21,0,42,0c4.44,0,6.76-2.26,6.74-6.82,0-6,.05-12,0-18-.08-5.64-1.8-7.38-7.56-7.47C677.71,221.45,671,221.53,664.39,221.53Z" transform="translate(-28.5 -124.5)"/><path d="M800.29,569.94c-6.5,0-13,.07-19.5,0-5.57-.07-7.81-2.33-7.9-7.95s-.11-11,0-16.5c.11-5,2.38-7.35,7.42-7.38,13.66-.1,27.33-.07,41,0,4.68,0,7.09,2.76,7.26,7.2.22,5.82.25,11.67,0,17.49-.2,4.83-2.8,7.08-7.8,7.14C814,570,807.12,569.94,800.29,569.94Zm.28-1.62v0c6.65,0,13.31,0,20,0,4.46,0,6.77-2.11,6.69-6.73-.09-5.15-.08-10.31,0-15.47.07-4.58-2.33-6.89-6.66-6.93-13.3-.11-26.61-.08-39.91,0-4.19,0-6.42,2.4-6.47,6.6-.06,5.16-.12,10.31,0,15.47.14,5.33,1.92,7,7.44,7C787.93,568.38,794.25,568.32,800.57,568.32Z" transform="translate(-28.5 -124.5)"/><path d="M926,569.94c-6.5,0-13,.06-19.49,0-5.58-.07-7.92-2.33-8.06-7.86q-.19-8,0-16c.12-5.55,2.5-8,8-8q20-.1,40,0c5.32,0,7.61,2.35,7.73,7.6s.1,10.66,0,16c-.07,5.89-2.33,8.18-8.15,8.24C939.31,570,932.65,569.94,926,569.94Zm0-1.63c6.82,0,13.64,0,20.46,0,4.28,0,6.45-2.25,6.48-6.5,0-5.32,0-10.65,0-16,0-4.27-2.32-6.58-6.46-6.62q-20-.18-39.93,0c-4.36,0-6.75,2.3-6.69,6.88.07,4.82,0,9.65,0,14.47.07,6.17,1.59,7.73,7.64,7.79S919.81,568.33,926,568.31Z" transform="translate(-28.5 -124.5)"/><path d="M338.84,255.45c-6.65,0-13.31.06-20,0-7.1-.08-9-2-9-8.86,0-6,0-12,0-18s2.37-8.44,8.48-8.48q20.46-.13,40.92,0c6.43,0,8.76,2.41,8.81,8.73q.07,9,0,18c-.06,6.48-2.16,8.59-8.76,8.66-6.82.08-13.64,0-20.46,0Zm.16-33.93v0c-7,0-14,0-21,0-4.59,0-6.74,2.32-6.77,6.75,0,6.16,0,12.32,0,18.49,0,4.69,2.22,7.08,7,7.07q20.73,0,41.47,0c4.74,0,7.08-2.32,7.09-7,0-6,.11-12,0-18-.1-5.31-1.94-7.16-7.32-7.26C352.65,221.42,345.82,221.52,339,221.52Z" transform="translate(-28.5 -124.5)"/><path d="M860.08,255.3c-7.15,0-14.3.1-21.45,0-5.28-.1-7.48-2.4-7.57-7.73q-.15-9.73,0-19.46c.08-5.18,2.48-7.79,7.6-7.83q21.45-.19,42.9,0c5.14,0,7.45,2.64,7.52,7.88.09,6.32.08,12.64,0,19-.07,6.06-2.08,8.15-8.05,8.23-7,.1-14,0-21,0Zm-.37-1.49v0c7,0,14,.09,21,0,5.41-.09,7.13-1.88,7.21-7.31.09-6,.1-12,0-18-.11-5-2-7-7-7-13.82-.08-27.64.07-41.45,0-4.91,0-7,2.49-7,7.08,0,6.16,0,12.32,0,18.48,0,4.51,2.32,6.73,6.81,6.73Z" transform="translate(-28.5 -124.5)"/><path d="M599.5,255.42c-7,0-14,.06-21,0-6.18-.07-8.45-2.34-8.51-8.46s-.07-12.32,0-18.48c.06-5.57,2.35-8.2,7.72-8.25q21.47-.2,43,0c4.93,0,7.35,2.59,7.43,7.47.11,6.82.08,13.65,0,20.48-.05,4.63-2.53,7.12-7.15,7.17-7.16.09-14.32,0-21.47,0Zm0-33.89H578.06c-4.23,0-6.57,2-6.58,6.35q0,9.74,0,19.48c0,4.35,2.38,6.44,6.55,6.46q21.23.07,42.47,0c4.19,0,6.43-2.29,6.43-6.6,0-6,.09-12,0-18s-1.86-7.61-7.9-7.68C612.53,221.46,606,221.52,599.54,221.52Z" transform="translate(-28.5 -124.5)"/><path d="M404,255.43c-7,0-14,.08-20.95,0-5.89-.09-8.05-2.34-8.12-8.24-.07-6.32-.09-12.64,0-19,.07-5.42,2.48-8,7.92-8q21.2-.17,42.39,0c5.41,0,7.79,2.57,7.87,8.07q.13,9.72,0,19.45c-.08,5.23-2.37,7.57-7.66,7.67-7.15.14-14.3,0-21.45,0Zm.27-33.9c-7,0-14-.09-21,0-5.06.09-6.89,1.94-7,7-.11,6.16,0,12.33,0,18.49,0,4.46,2.3,6.76,6.82,6.75h42c4.53,0,6.74-2.37,6.77-6.81,0-6,.11-12,0-18-.11-5.62-2-7.43-7.61-7.48C417.55,221.49,410.89,221.53,404.23,221.53Z" transform="translate(-28.5 -124.5)"/><path d="M925.31,255.32c-7,0-14,.07-20.95,0-6-.08-8.2-2.24-8.28-8.07q-.13-9.47,0-19c.07-5.41,2.5-8,7.92-8q21.19-.15,42.39,0c5.2,0,7.65,2.54,7.73,7.67q.16,10,0,19.95c-.09,5-2.26,7.28-7.34,7.4-7.14.16-14.3,0-21.44,0ZM925,221.54v0c-6.82,0-13.65.1-20.47,0-4.84-.1-7.12,2.16-7.13,6.88,0,6.16,0,12.32,0,18.49,0,4.78,2.38,7,7.12,6.94,13.82,0,27.65.05,41.47,0,5,0,6.8-1.95,6.88-7.09q.14-9,0-18c-.09-5.25-2-7.08-7.38-7.16C938.69,221.46,931.87,221.54,925,221.54Z" transform="translate(-28.5 -124.5)"/><path d="M542.25,153.86H479.43v-.28h63Z" transform="translate(-28.5 -124.5)"/><path class="cls-1" d="M470.5,568.34H328.6c-9.64,0-10.5-.86-10.5-10.59,0-13.49,0-27,0-40.47,0-6.65,1.73-8.38,8.21-8.38q143.9,0,287.8,0c7.12,0,8.73,1.64,8.75,8.88q.06,20.74,0,41.47c0,7.57-1.49,9.09-9,9.1Q542.2,568.36,470.5,568.34Z" transform="translate(-28.5 -124.5)"/><path class="cls-1" d="M837.13,539.7H890c0,8.13.32,16.05-.26,23.91-.12,1.67-3.45,4.39-5.37,4.45-13.78.39-27.59.26-41.38.18-3.82,0-5.81-2.32-5.86-6C837.06,554.93,837.13,547.64,837.13,539.7Z" transform="translate(-28.5 -124.5)"/><path class="cls-1" d="M890.08,537.31c-17,0-33.31,0-49.59,0-2.66,0-3.46-1.08-3.42-3.57.1-6.15,0-12.3.06-18.45,0-4.28,2.39-6.41,6.58-6.42q19.95-.06,39.9,0c3.62,0,6.32,1.55,6.42,5.43C890.22,521.77,890.08,529.22,890.08,537.31Z" transform="translate(-28.5 -124.5)"/><path class="cls-1" d="M91.94,376.46c-11.33,0-22.66,0-34,0-6.06,0-7.81-1.76-7.84-7.72q-.09-18,0-36c0-5.58,1.92-7.54,7.55-7.56q34.48-.12,69,0c5.89,0,7.74,2,7.77,7.86q.09,18,0,36c0,5.8-1.62,7.38-7.5,7.42-11.66.07-23.32,0-35,0Z" transform="translate(-28.5 -124.5)"/><path class="cls-1" d="M667,568.31c-8.83,0-17.65,0-26.48,0-6.27,0-7.83-1.52-7.85-7.57q-.08-22.23,0-44.46c0-5.65,1.81-7.35,7.58-7.36q26.73-.06,53.45,0c5.39,0,7.33,1.87,7.36,7.15q.11,22.48,0,45c0,5.58-1.6,7.21-7.11,7.27C685,568.38,676,568.31,667,568.31Z" transform="translate(-28.5 -124.5)"/><path class="cls-1" d="M869.89,265A82.56,82.56,0,0,1,879.2,264c21.65-.1,43.29-.07,64.94,0,7.32,0,8.87,1.52,8.88,8.69,0,11.66,0,23.31,0,35,0,5.77-1.69,7.5-7.43,7.52q-34.72.08-69.44,0c-5.66,0-7.32-1.6-7.35-7-.08-12.32-.1-24.64,0-37,0-2.09.83-4.17,1.28-6.25Z" transform="translate(-28.5 -124.5)"/><path class="cls-1" d="M116.21,498.68q-28.73,0-57.46,0c-7.2,0-8.72-1.58-8.73-8.89,0-11.49,0-23,0-34.47,0-6,1.75-8,7.64-8q58.45-.09,116.91.05c5.62,0,7.39,2,7.41,7.67q.08,18,0,36c0,5.94-1.72,7.6-7.86,7.62-19.32.05-38.64,0-58,0Z" transform="translate(-28.5 -124.5)"/><path class="cls-1" d="M886.86,498.66q-28.24,0-56.48,0c-8,0-9.26-1.36-9.27-9.36q0-16.49,0-33c0-7.58,1.52-9,9.65-9q47.23,0,94.46,0c6.66,0,13.33-.1,20,0,5.93.13,7.73,2,7.76,7.9.05,11.5,0,23,0,34.49,0,7.56-1.34,8.9-9.16,8.92C924.85,498.69,905.86,498.66,886.86,498.66Z" transform="translate(-28.5 -124.5)"/><path class="cls-1" d="M903,437.66c-13.49,0-27,0-40.46,0-8.46,0-9.63-1.21-9.64-9.44,0-11.16,0-22.31,0-33.47,0-6.63,1.71-8.47,8.15-8.48q41.71-.08,83.42,0c6.57,0,8.4,1.88,8.42,8.28q.06,17.48,0,35c0,6.36-1.64,8.07-7.94,8.1-14,.07-28,0-42,0Z" transform="translate(-28.5 -124.5)"/><path class="cls-1" d="M229.22,538.65c0,7.5.07,15,0,22.49-.06,5.49-1.67,7.12-7.23,7.15q-19.24.13-38.48,0c-5.39,0-7.28-1.87-7.3-7.21q-.12-22.49,0-45c0-5.37,2-7.2,7.31-7.23q19.24-.1,38.48,0c5.35,0,7.18,1.9,7.24,7.27.08,7.49,0,15,0,22.49Z" transform="translate(-28.5 -124.5)"/><path class="cls-1" d="M273.56,508.88c8.66,0,17.33,0,26,0,6.31,0,8.22,1.78,8.25,7.87q.11,22,0,44c0,5.66-1.86,7.55-7.49,7.57q-27,.1-54,0c-5.36,0-7.16-1.86-7.19-7.31q-.12-22.24,0-44.49c0-5.88,1.85-7.59,7.93-7.62C255.9,508.84,264.73,508.88,273.56,508.88Z" transform="translate(-28.5 -124.5)"/><path class="cls-1" d="M103.11,538.68c0,7.33,0,14.66,0,22,0,5.92-1.57,7.6-7.27,7.63q-19.25.11-38.49,0c-5.46,0-7.24-1.76-7.27-7.2q-.13-22.49,0-45c0-5.31,1.95-7.15,7.34-7.18q19.25-.1,38.49,0c5.3,0,7.15,1.92,7.2,7.29C103.17,523.69,103.12,531.18,103.11,538.68Z" transform="translate(-28.5 -124.5)"/><path class="cls-1" d="M166.25,538.5c0,7.67,0,15.33,0,23,0,4.54-2.08,6.8-6.65,6.79-13.33,0-26.66,0-40,0-4.3,0-6.46-2.32-6.47-6.54,0-15.33-.09-30.66,0-46,0-5,2-6.81,7.16-6.84q19.25-.11,38.49,0c5.63,0,7.36,1.84,7.42,7.6.07,7.33,0,14.66,0,22Z" transform="translate(-28.5 -124.5)"/><path class="cls-1" d="M100.57,437.63c-14,0-28,0-41.94,0-6.89,0-8.48-1.63-8.51-8.57q-.06-17.23,0-34.45c0-6.37,1.67-8.29,7.82-8.3q42.44-.12,84.88,0c6,0,7.7,1.88,7.74,7.89q.14,18,0,35.95c0,5.78-1.64,7.38-7.55,7.42-14.15.09-28.29,0-42.44,0Z" transform="translate(-28.5 -124.5)"/><path class="cls-1" d="M296.74,376.42c-6.5,0-13,0-19.49,0-4.53,0-6.71-2.2-6.7-6.76,0-12.49-.08-25,0-37.48,0-5,1.94-7,7-7q19.24-.15,38.48,0c5.61,0,7.47,2,7.5,7.63q.11,18.24,0,36.48c0,5.52-1.62,7-7.27,7.13-6.49.12-13,0-19.49,0Z" transform="translate(-28.5 -124.5)"/><path class="cls-1" d="M208.12,253.83c-6.66,0-13.32.09-20,0-5.76-.1-7.3-1.74-7.36-7.6s-.08-11.65,0-17.48c.07-5.34,1.63-7.14,6.74-7.18,14-.1,28,0,42,0,4.61,0,6.66,2.36,6.64,6.82q0,9.49,0,19c0,4.34-2.29,6.43-6.51,6.46C222.44,253.87,215.28,253.83,208.12,253.83Z" transform="translate(-28.5 -124.5)"/><path class="cls-1" d="M764.11,538.87c0,7.5.06,15,0,22.49-.06,5.17-1.72,6.9-7,6.94q-19.49.15-39,0c-5.16,0-7-1.86-7.06-6.92q-.14-22.74,0-45.48c0-5.05,2-7,7-7q19.49-.13,39,0c5,0,6.93,2,7,7C764.17,523.54,764.11,531.21,764.11,538.87Z" transform="translate(-28.5 -124.5)"/><path class="cls-1" d="M171,376.42c-6.5,0-13,.09-19.49,0-5.21-.1-6.88-1.75-6.92-7q-.15-18.49,0-37c0-5.34,1.89-7.18,7.31-7.23q19-.15,38,0c5.91,0,7.74,2,7.78,7.91q.13,17.74,0,35.48c0,6.3-1.7,7.82-8.16,7.87-6.16,0-12.33,0-18.49,0Z" transform="translate(-28.5 -124.5)"/><path class="cls-1" d="M233.68,376.46c-6.33,0-12.66.08-19,0-5.45-.09-7.31-1.84-7.35-7.2-.1-12.33,0-24.65,0-37,0-4.71,2.39-7.09,7.08-7.1,13,0,26,0,39,0,4.6,0,7,2.25,7,7.1-.07,12.49,0,25,0,37.48,0,4.56-2.19,6.73-6.74,6.7-6.66,0-13.33,0-20,0Z" transform="translate(-28.5 -124.5)"/><path class="cls-1" d="M359.92,376.44c-6.5,0-13,0-19.49,0-4.72,0-7.18-2.12-7.18-6.9q0-18.74,0-37.48c0-4.79,2.65-6.93,7.25-6.94,12.83,0,25.65-.09,38.48,0,5.36,0,7.24,2,7.27,7.27q.13,18.49,0,37c0,5.28-1.64,6.91-6.86,7C372.91,376.52,366.41,376.44,359.92,376.44Z" transform="translate(-28.5 -124.5)"/><path class="cls-1" d="M139.64,315.12c-6.33,0-12.66.06-19,0-5.46-.07-7.37-1.8-7.41-7.11q-.16-18.49,0-37c0-5.1,1.91-7,7-7q19.49-.16,39,0c5.1,0,7,1.9,7.06,6.9q.13,18.74,0,37.48c0,5.09-1.81,6.72-7.1,6.79C152.64,315.2,146.14,315.12,139.64,315.12Z" transform="translate(-28.5 -124.5)"/><path class="cls-1" d="M76.5,315.12c-6.16,0-12.32,0-18.49,0-5.85-.06-7.68-1.68-7.73-7.31q-.17-18.23,0-36.47c0-5.44,1.92-7.35,7.17-7.38q19.23-.13,38.47,0c5.63,0,7.36,1.88,7.38,7.6q.08,18,0,36c0,6-1.58,7.52-7.83,7.58s-12.66,0-19,0Z" transform="translate(-28.5 -124.5)"/><path class="cls-1" d="M799.88,376.4c-6.5,0-13,0-19.49,0-4.51,0-6.77-2.08-6.75-6.68q.07-19,0-38c0-4.36,2.34-6.53,6.46-6.57q20-.16,40,0c4.11,0,6.55,2.34,6.57,6.58q.09,19.24,0,38.47c0,4.35-2.63,6.2-6.8,6.19-6.66,0-13.32,0-20,0Z" transform="translate(-28.5 -124.5)"/><path class="cls-1" d="M202.93,315.11c-6.5,0-13-.05-19.49,0-4.53,0-6.85-2-6.85-6.61q0-19,0-38c0-4.6,2.39-6.63,6.86-6.62,13,0,26,0,39,0,5.29,0,7.12,1.86,7.17,7.38q.19,18.49,0,37c0,5.06-1.91,6.71-7.18,6.79-6.5.09-13,0-19.49,0Z" transform="translate(-28.5 -124.5)"/><path class="cls-1" d="M832.44,263.91c6.16,0,12.32,0,18.48,0,5.69.06,7.72,1.86,7.77,7.35q.17,18.23,0,36.47c-.05,5.69-1.82,7.32-7.67,7.35q-19,.1-38,0c-5.75,0-7.37-1.7-7.39-7.55q-.08-18,0-36c0-6.05,1.65-7.62,7.79-7.67C819.79,263.87,826.11,263.91,832.44,263.91Z" transform="translate(-28.5 -124.5)"/><path class="cls-1" d="M769,315.11c-6.5,0-13,0-19.49,0-4.53,0-6.74-2.18-6.73-6.73,0-12.66,0-25.32,0-38,0-4.3,2.21-6.46,6.49-6.46q20,0,40,0c4.29,0,6.51,2.39,6.54,6.54.1,12.66.09,25.32,0,38,0,4.46-2.31,6.71-6.87,6.67C782.33,315.07,775.66,315.12,769,315.11Z" transform="translate(-28.5 -124.5)"/><path class="cls-1" d="M265.41,315.12c-6.33,0-12.66.05-19,0-5.51-.06-7.33-1.74-7.37-7.1q-.14-18.49,0-37c0-5.05,2-7,6.93-7.07q19.5-.11,39,0c5.25,0,7.08,2,7.11,7.4q.1,18.25,0,36.49c0,5.4-1.8,7.18-7.18,7.25C278.41,315.19,271.91,315.12,265.41,315.12Z" transform="translate(-28.5 -124.5)"/><path class="cls-1" d="M422.69,376.49c-6.33,0-12.66.06-19,0-5.75-.07-7.57-1.82-7.6-7.43q-.1-18.24,0-36.48c0-5.29,2-7.33,7.24-7.38q19.24-.15,38.48,0c5.36,0,7.25,2,7.29,7.27q.11,18.49,0,37c0,5.21-1.67,6.85-6.91,6.95-6.5.12-13,0-19.49,0Z" transform="translate(-28.5 -124.5)"/><path class="cls-1" d="M485.5,376.43c-6.5,0-13,.1-19.49,0-5.1-.11-6.92-2-6.95-7q-.1-18.49,0-37c0-5.06,1.93-7.14,6.88-7.2q19.49-.21,39,0c5.24,0,7.14,2.09,7.17,7.43.07,12.33,0,24.65,0,37,0,4.58-2.13,6.8-6.64,6.82-6.66,0-13.33,0-20,0Z" transform="translate(-28.5 -124.5)"/><path class="cls-1" d="M611.66,376.43c-6.5,0-13,.09-19.49,0-5.22-.1-7-1.79-7-6.92q-.16-18.49,0-37c0-5.31,2-7.28,7.29-7.33q19.24-.18,38.48,0c5.32,0,7.23,2.06,7.26,7.34q.1,18.49,0,37c0,5.13-1.73,6.81-7,6.9-6.5.12-13,0-19.49,0Z" transform="translate(-28.5 -124.5)"/><path class="cls-1" d="M706,315.12c-6.33,0-12.66.06-19,0-5.55-.07-7.26-1.68-7.3-7.12q-.13-18.49,0-37c0-5.35,1.86-7,7.38-7.07q19-.08,38,0c5.67,0,7.63,1.86,7.68,7.42q.18,18.24,0,36.48c0,5.48-1.85,7.19-7.25,7.27C719,315.2,712.5,315.12,706,315.12Z" transform="translate(-28.5 -124.5)"/><path class="cls-1" d="M643.5,315.09h-20c-4.51,0-6.71-2.23-6.69-6.79,0-12.49,0-25,.06-37.48,0-5.06,1.87-6.84,7.06-6.87q19.24-.11,38.48,0c5.53,0,7.46,2,7.5,7.6q.11,18.24,0,36.48c0,5.13-1.83,7-6.92,7.06-6.49.13-13,0-19.49,0Z" transform="translate(-28.5 -124.5)"/><path class="cls-1" d="M863.17,376.42c-6.33,0-12.66.08-19,0-5.57-.08-7.23-1.7-7.26-7.15q-.1-18.49,0-37c0-5,1.91-7,6.95-7.07q19.49-.18,39,0c5,0,7,2.18,7.07,7.06.1,12.49,0,25,.05,37.49,0,4.61-2.36,6.68-6.81,6.68Z" transform="translate(-28.5 -124.5)"/><path class="cls-1" d="M674.5,376.43c-6.5,0-13,.09-19.49,0-5.08-.1-6.87-1.91-6.9-7q-.13-18.49,0-37c0-5,2-7.11,6.92-7.17q19.49-.21,39,0c5.24,0,7.09,2.13,7.11,7.47q.09,18.24,0,36.48c0,5.56-1.63,7.2-7.12,7.28C687.5,376.51,681,376.43,674.5,376.43Z" transform="translate(-28.5 -124.5)"/><path class="cls-1" d="M273.47,253.84c-6.82,0-13.65.09-20.47,0-5.41-.09-7.14-1.89-7.21-7.28-.07-6.16,0-12.32,0-18.48,0-4.3,2.19-6.51,6.44-6.51q21.22,0,42.44,0c4.28,0,6.44,2.24,6.46,6.5,0,6.33-.05,12.65,0,19,0,4.58-2.21,6.76-6.69,6.78-7,0-14,0-21,0Z" transform="translate(-28.5 -124.5)"/><path class="cls-1" d="M454.19,315.14c-6.17,0-12.33.05-18.5,0-5.77-.06-7.61-1.79-7.64-7.37q-.09-18.25,0-36.49c0-5.34,1.94-7.29,7.19-7.32q19.25-.1,38.49,0c5.6,0,7.33,1.91,7.35,7.65q.06,18,0,36c0,5.79-1.65,7.45-7.42,7.53C467.19,315.2,460.69,315.13,454.19,315.14Z" transform="translate(-28.5 -124.5)"/><path class="cls-1" d="M391.24,315.12c-6.5,0-13,0-19.5,0-4.52,0-6.78-2.18-6.77-6.73,0-12.67,0-25.33,0-38,0-4.31,2.28-6.45,6.52-6.46q20,0,40,0c4.26,0,6.51,2.23,6.52,6.49,0,12.67,0,25.33,0,38,0,4.56-2.29,6.71-6.8,6.7C404.57,315.1,397.9,315.12,391.24,315.12Z" transform="translate(-28.5 -124.5)"/><path class="cls-1" d="M926.22,376.45c-6.16,0-12.33,0-18.49,0s-7.84-1.54-7.87-7.58q-.1-18,0-36c0-5.89,1.84-7.7,7.84-7.73q18.49-.1,37,0c6.26,0,8.19,1.91,8.23,8q.11,18,0,36c0,5.45-1.76,7.18-7.2,7.26-6.5.1-13,0-19.49,0Z" transform="translate(-28.5 -124.5)"/><path class="cls-1" d="M548.21,376.41c-6.33,0-12.66.08-19,0-5.24-.07-7.12-1.78-7.16-6.79-.11-12.49,0-25-.06-37.48,0-4.52,2.3-6.92,6.68-7q20-.13,40,.06c4.16,0,6.43,2.35,6.43,6.64q0,19,0,38c0,4.31-2.11,6.51-6.4,6.54C561.87,376.43,555,376.41,548.21,376.41Z" transform="translate(-28.5 -124.5)"/><path class="cls-1" d="M737.46,376.41c-6.5,0-13,.09-19.5,0-5.12-.1-6.87-1.87-6.9-7.05q-.12-18.5,0-37c0-5.05,1.94-7.1,6.92-7.14q19.49-.18,39,0c5.27.05,7.09,2.08,7.11,7.44q.09,18.25,0,36.49c0,5.54-1.68,7.22-7.14,7.29-6.5.09-13,0-19.5,0Z" transform="translate(-28.5 -124.5)"/><path class="cls-1" d="M143.5,253.83c-6.83,0-13.66.06-20.49,0-5.84-.06-7.59-1.7-7.71-7.34-.12-6-.14-12,0-18,.11-5.1,1.92-6.88,7.05-6.91,13.83-.08,27.65,0,41.48,0,4.85,0,7,2.45,7,7.08q0,9.25,0,18.49c0,4.53-2.38,6.7-6.85,6.7H143.5Z" transform="translate(-28.5 -124.5)"/><path class="cls-1" d="M534.12,253.85c-6.66,0-13.32,0-20,0-5.47-.05-7.25-1.75-7.34-7.12-.1-6.16,0-12.32,0-18.48,0-4.62,2.3-6.72,6.76-6.72q21,0,42,0c4.51,0,6.69,2.26,6.64,6.82-.07,6.16.06,12.32,0,18.48-.08,5.11-1.78,6.84-7,6.93-7,.13-14,0-21,0Z" transform="translate(-28.5 -124.5)"/><path class="cls-1" d="M78.15,221.54c6.66,0,13.33-.07,20,0,5.75.08,7.56,1.81,7.67,7.41.11,5.83.1,11.66,0,17.49-.09,5.42-1.88,7.31-7.19,7.35q-20.49.13-41,0c-5.51,0-7.23-1.79-7.35-7.18-.13-6-.15-12,0-18,.12-5.4,1.92-7.09,7.38-7.15,6.83-.07,13.66,0,20.49,0Z" transform="translate(-28.5 -124.5)"/><path class="cls-1" d="M469.44,253.83c-6.83,0-13.65.07-20.48,0-5.48-.08-7.13-1.78-7.19-7.24-.07-6.16,0-12.32,0-18.48,0-4.27,2.06-6.55,6.38-6.55,14.32,0,28.63,0,43,.08,3.77,0,5.91,2.14,6,5.93.1,6.66.06,13.32,0,20,0,4.39-2.51,6.29-6.67,6.31C483.42,253.86,476.43,253.84,469.44,253.83Z" transform="translate(-28.5 -124.5)"/><path class="cls-1" d="M328.67,315.13c-6.5,0-13,.08-19.5,0-5.38-.08-7.14-1.87-7.17-7.32q-.1-18.25,0-36.49c0-5.65,1.82-7.34,7.62-7.36q18.75-.07,37.49,0c6,0,7.9,1.81,7.93,7.64q.1,18,0,36c0,5.81-1.69,7.49-7.39,7.55C341.33,315.18,335,315.12,328.67,315.13Z" transform="translate(-28.5 -124.5)"/><path class="cls-1" d="M250.13,437.6c-6.5,0-13,.11-19.49,0-5.42-.11-7.14-1.86-7.18-7.33q-.12-18.24,0-36.47c0-5.56,1.69-7.36,7.11-7.42q19.23-.24,38.47-.06c5.61.05,7.35,2,7.38,7.72q.1,17.74,0,35.47c0,6.72-1.43,8-8.36,8.1C262.12,437.64,256.12,437.59,250.13,437.6Z" transform="translate(-28.5 -124.5)"/><path class="cls-1" d="M596,498.64c-6.33,0-12.66.11-19,0-5.62-.12-7.25-1.74-7.28-7.15-.07-12.32.06-24.65-.06-37,0-4.88,2.33-7.11,6.94-7.13q19.73-.06,39.47.07c4.51,0,6.68,2.52,6.69,6.93,0,12.49.07,25,0,37.47,0,4.39-2.25,6.81-6.81,6.8Q606,498.62,596,498.64Z" transform="translate(-28.5 -124.5)"/><path class="cls-1" d="M312.9,437.63c-6.33,0-12.66.09-19,0-5.51-.1-7.23-1.78-7.27-7.2-.08-12.32,0-24.65-.06-37,0-4.78,2.25-7.13,7-7.14,13,0,26-.1,39,.08,5.33.08,7.12,2.09,7.16,7.48q.13,18.24,0,36.47c-.05,5.46-1.84,7.18-7.27,7.27C325.9,437.71,319.4,437.62,312.9,437.63Z" transform="translate(-28.5 -124.5)"/><path class="cls-1" d="M533,498.69c-6.16,0-12.33.06-18.49,0s-7.79-1.72-7.82-7.69q-.07-17.74,0-35.48c0-6.43,1.62-8.1,7.87-8.14q18.24-.12,36.48,0c7,0,8.69,1.76,8.72,8.52q.08,17.49,0,35c0,5.9-1.9,7.78-7.77,7.85C545.71,498.75,539.38,498.69,533,498.69Z" transform="translate(-28.5 -124.5)"/><path class="cls-1" d="M187,437.63c-6.33,0-12.66.08-19,0-5.6-.09-7.27-1.71-7.31-7.13-.08-12.33,0-24.66-.07-37,0-4.78,2.21-7.18,6.91-7.19,13,0,26-.12,39,0,5.26.06,7.14,2.09,7.2,7.46q.18,18.24,0,36.49c0,5.42-1.88,7.23-7.25,7.34C200,437.74,193.49,437.64,187,437.63Z" transform="translate(-28.5 -124.5)"/><path class="cls-1" d="M470.26,498.65c-6.5,0-13,.1-19.49,0-5.21-.1-6.94-1.82-7-7-.08-12.5,0-25,0-37.49,0-4.65,2.31-6.77,6.71-6.79q19.74-.09,39.49,0c4.72,0,6.92,2.61,6.91,7.28q0,18.49,0,37c0,4.77-2.44,7-7.11,7Z" transform="translate(-28.5 -124.5)"/><path class="cls-1" d="M375.7,437.63c-6.16,0-12.33.08-18.49,0s-7.81-1.76-7.86-7.73q-.14-17.74,0-35.48c0-6.27,1.79-8.06,8.07-8.11q18.49-.15,37,0c6.26,0,8,1.85,8,8.1q.06,17.74,0,35.48c0,6.08-1.62,7.7-7.68,7.77C388.36,437.69,382,437.63,375.7,437.63Z" transform="translate(-28.5 -124.5)"/><path class="cls-1" d="M785.21,498.66c-6.5,0-13,.1-19.49,0-5.2-.1-6.94-1.82-7-7-.08-12.49,0-25,0-37.48,0-4.26,1.91-6.69,6.22-6.72q20-.15,40-.1c4.69,0,6.91,2.62,6.9,7.3q0,18.49,0,37c0,4.76-2.42,7-7.12,7-6.5,0-13,0-19.49,0Z" transform="translate(-28.5 -124.5)"/><path class="cls-1" d="M722.2,498.65c-6.5,0-13,.11-19.49,0-5.2-.11-6.91-1.85-6.94-7-.08-12.32.05-24.65-.06-37,0-4.78,2.1-7.27,6.79-7.29q19.74-.09,39.47,0c4.7,0,6.88,2.64,6.86,7.32,0,12.33,0,24.65-.06,37,0,5-1.93,6.82-7.09,6.92-6.49.13-13,0-19.49,0Z" transform="translate(-28.5 -124.5)"/><path class="cls-1" d="M580.37,315.11c-6.33,0-12.66.07-19,0C555.83,315,554,313.33,554,308q-.12-18.49,0-37c0-5.09,1.9-7,6.91-7.07q19.49-.14,39,0c5.23,0,7.12,2,7.15,7.39q.09,18.24,0,36.48c0,5.46-1.77,7.21-7.17,7.28-6.5.08-13,0-19.49,0Z" transform="translate(-28.5 -124.5)"/><path class="cls-1" d="M659.39,498.67c-6.33,0-12.66.06-19,0-5.84-.08-7.56-1.73-7.59-7.38q-.09-18.24,0-36.48c0-5.57,1.58-7.3,7.08-7.38q19-.26,38-.1c6.13.05,8,2.1,8,8.25q.08,17.49,0,35c0,6.32-1.75,8.05-8,8.12S665.55,498.67,659.39,498.67Z" transform="translate(-28.5 -124.5)"/><path class="cls-1" d="M438.19,437.62c-6.16,0-12.33.07-18.49,0-5.67-.08-7.51-1.89-7.55-7.53-.07-12.16,0-24.33,0-36.49,0-4.71,2.19-7.24,6.9-7.26q19.74-.09,39.48,0c4.41,0,6.73,2.3,6.72,6.86q-.05,19,0,38c0,4.39-2.33,6.4-6.52,6.43C451.85,437.66,445,437.61,438.19,437.62Z" transform="translate(-28.5 -124.5)"/><path class="cls-1" d="M564.59,437.63c-6.33,0-12.66.1-19,0-5.7-.1-7.47-1.89-7.5-7.55q-.1-18,0-36c0-5.84,1.86-7.73,7.86-7.78q18.49-.15,37,0c6.76.08,8.2,1.68,8.22,8.36q0,17.24,0,34.48c0,7-1.4,8.36-8.56,8.43C576.58,437.67,570.58,437.62,564.59,437.63Z" transform="translate(-28.5 -124.5)"/><path class="cls-1" d="M517.14,315.12c-6.17,0-12.33,0-18.5,0-5.81-.06-7.58-1.73-7.61-7.37q-.1-18.25,0-36.49c0-5.4,1.88-7.26,7.2-7.29q19.25-.11,38.49,0c5.41,0,7.28,1.85,7.31,7.16q.13,18.5,0,37c0,5.21-1.71,6.89-6.94,7C530.47,315.21,523.81,315.12,517.14,315.12Z" transform="translate(-28.5 -124.5)"/><path class="cls-1" d="M501.83,437.63c-6.5,0-13,.1-19.5,0-5.37-.11-7.18-1.93-7.21-7.35q-.12-18.25,0-36.49c0-5.46,1.8-7.37,7.13-7.43q19.24-.2,38.49,0c5.58,0,7.37,2,7.39,7.7q.08,18.25,0,36.49c0,5.22-1.65,7-6.82,7.09C514.83,437.74,508.33,437.62,501.83,437.63Z" transform="translate(-28.5 -124.5)"/><path class="cls-1" d="M218.32,498.68c-6.33,0-12.66.09-19,0-5.35-.11-7.22-2-7.25-7.32q-.12-18.24,0-36.48c0-5.43,1.77-7.42,7.1-7.49q19.49-.24,39,0c5,.06,6.9,2.17,6.93,7.14q.1,18.49,0,37c0,5.43-1.73,7.08-7.28,7.18C231.32,498.77,224.82,498.68,218.32,498.68Z" transform="translate(-28.5 -124.5)"/><path class="cls-1" d="M281.61,498.67c-6.48,0-13,.1-19.45,0-5.43-.11-7.17-1.85-7.2-7.29-.08-12.3,0-24.61,0-36.91,0-4.8,2.33-7.06,7-7.08,13.13,0,26.27-.09,39.4,0,4.33,0,6.75,2.28,6.74,6.85,0,12.64,0,25.27,0,37.91,0,4.34-2.29,6.44-6.49,6.48-6.65.07-13.3,0-20,0Z" transform="translate(-28.5 -124.5)"/><path class="cls-1" d="M407.26,498.67c-6.33,0-12.66.06-19,0-5.45-.08-7.28-1.84-7.31-7.2-.07-12.33,0-24.66,0-37,0-4.83,2.38-7.08,7-7.1,13,0,26-.13,39,0,5.3.06,7,2.1,7.07,7.51q.09,18.24,0,36.49c0,5.4-1.79,7.17-7.23,7.26C420.26,498.75,413.76,498.67,407.26,498.67Z" transform="translate(-28.5 -124.5)"/><path class="cls-1" d="M753.37,437.63c-6.33,0-12.66.11-19,0-5.4-.12-7.23-2-7.27-7.29q-.13-18.24,0-36.48c0-5.56,1.89-7.47,7.61-7.53q19-.19,38,0c5.61.05,7.42,2,7.45,7.63q.1,18,0,36c0,6-1.65,7.61-7.79,7.72-6.33.11-12.66,0-19,0Z" transform="translate(-28.5 -124.5)"/><path class="cls-1" d="M690.69,437.63c-6.5,0-13,.1-19.49,0-5.07-.1-7-2-7-7-.11-12.33,0-24.66-.06-37,0-4.68,2.2-7.25,6.9-7.28,13.16-.07,26.32-.11,39.48,0,4.32,0,6.74,2.25,6.72,6.87-.07,12.66,0,25.32,0,38,0,4.39-2.32,6.4-6.51,6.44-6.66.05-13.33,0-20,0Z" transform="translate(-28.5 -124.5)"/><path class="cls-1" d="M344.63,498.66c-6.5,0-13,.1-19.49,0-5.18-.1-7-1.87-7.05-7-.1-12.49,0-25,0-37.48,0-4.57,2.36-6.79,6.77-6.81q19.74-.08,39.48,0c4.7,0,6.89,2.51,6.86,7.25-.07,12.33,0,24.65,0,37,0,5.09-1.77,6.87-7,7C357.62,498.77,351.13,498.65,344.63,498.66Z" transform="translate(-28.5 -124.5)"/><path class="cls-1" d="M816.07,437.65c-6.16,0-12.33.05-18.49,0s-7.82-1.7-7.85-7.65q-.09-18,0-36c0-5.75,1.75-7.66,7.37-7.71q19-.19,38,0c5.66.05,7.65,2,7.69,7.51q.16,18.24,0,36.49c0,5.45-1.77,7.19-7.22,7.32-6.49.14-13,0-19.49,0Z" transform="translate(-28.5 -124.5)"/><path class="cls-1" d="M730.14,253.83c-6.83,0-13.65.06-20.48,0-5.78-.06-7.56-1.8-7.63-7.38q-.11-8.74,0-17.48c.07-5.73,1.69-7.37,7.54-7.41q20.23-.13,40.46-.06c5.51,0,7.24,1.76,7.32,7.15.09,6.16,0,12.32,0,18.48,0,4.58-2.3,6.71-6.78,6.71Z" transform="translate(-28.5 -124.5)"/><path class="cls-1" d="M795,221.48c6.66,0,13.32-.07,20,0,5.74.08,7.43,1.8,7.5,7.52.07,6,0,12,0,18,0,4.53-2.15,6.81-6.67,6.82q-21,0-41.95,0c-4.47,0-6.8-2.21-6.79-6.75,0-6.33,0-12.65,0-19,0-4.28,2.19-6.5,6.45-6.53,7.16,0,14.31,0,21.47,0Z" transform="translate(-28.5 -124.5)"/><path class="cls-1" d="M664.39,221.53c6.66,0,13.32-.08,20,0,5.76.1,7.48,1.83,7.56,7.47.08,6,0,12,0,18,0,4.55-2.3,6.8-6.74,6.82q-21,.06-42,0c-4.47,0-6.78-2.21-6.77-6.76,0-6.33,0-12.66,0-19,0-4.59,2.46-6.61,6.91-6.6,7,0,14,0,21,0Z" transform="translate(-28.5 -124.5)"/><path class="cls-1" d="M800.57,568.32c-6.32,0-12.64.06-19,0-5.52-.07-7.3-1.72-7.44-7-.13-5.15-.07-10.31,0-15.47,0-4.21,2.28-6.58,6.47-6.6,13.3-.09,26.61-.12,39.91,0,4.33,0,6.73,2.35,6.66,6.93-.07,5.15-.08,10.31,0,15.47.08,4.62-2.23,6.72-6.69,6.73-6.65,0-13.31,0-20,0Z" transform="translate(-28.5 -124.5)"/><path class="cls-1" d="M926,568.32c-6.16,0-12.31.06-18.47,0s-7.57-1.62-7.64-7.79c-.06-4.82,0-9.65,0-14.47-.06-4.58,2.33-6.85,6.69-6.88q20-.12,39.93,0c4.14,0,6.44,2.35,6.46,6.62,0,5.32,0,10.65,0,16,0,4.25-2.2,6.48-6.48,6.5C939.61,568.34,932.79,568.31,926,568.32Z" transform="translate(-28.5 -124.5)"/><path class="cls-1" d="M339,221.52c6.83,0,13.66-.1,20.48,0,5.37.1,7.22,2,7.32,7.26.11,6,0,12,0,18,0,4.72-2.35,7-7.09,7q-20.73,0-41.47,0c-4.8,0-7-2.37-7-7.07,0-6.16,0-12.32,0-18.49,0-4.43,2.18-6.79,6.77-6.75,7,0,14,0,21,0Z" transform="translate(-28.5 -124.5)"/><path class="cls-1" d="M859.71,253.81H839.23c-4.5,0-6.79-2.22-6.81-6.73,0-6.16-.07-12.32,0-18.48,0-4.58,2.09-7.1,7-7.08,13.82.06,27.64-.08,41.45,0,5,0,6.94,2,7,7,.13,6,.11,12,0,18-.08,5.43-1.8,7.22-7.21,7.31-7,.12-14,0-21,0Z" transform="translate(-28.5 -124.5)"/><path class="cls-1" d="M599.54,221.52c6.49,0,13-.06,19.48,0,6,.07,7.82,1.78,7.9,7.68s0,12,0,18c0,4.3-2.24,6.57-6.43,6.6q-21.23.13-42.47,0c-4.17,0-6.54-2.11-6.55-6.46q0-9.74,0-19.48c0-4.35,2.36-6.35,6.58-6.35Z" transform="translate(-28.5 -124.5)"/><path class="cls-1" d="M404.23,221.53c6.66,0,13.33,0,20,0,5.59,0,7.5,1.86,7.61,7.48.12,6,0,12,0,18,0,4.44-2.24,6.81-6.77,6.81h-42c-4.52,0-6.79-2.29-6.82-6.75-.05-6.16-.13-12.33,0-18.49.09-5.08,1.92-6.93,7-7C390.23,221.43,397.23,221.53,404.23,221.53Z" transform="translate(-28.5 -124.5)"/><path class="cls-1" d="M925,221.54c6.83,0,13.66-.07,20.48,0,5.41.08,7.29,1.91,7.38,7.16q.15,9,0,18c-.08,5.15-1.84,7.06-6.88,7.09-13.82.1-27.65,0-41.47,0-4.73,0-7.13-2.17-7.12-6.94,0-6.16,0-12.32,0-18.49,0-4.72,2.29-7,7.13-6.88,6.82.14,13.65,0,20.47,0Z" transform="translate(-28.5 -124.5)"/><path class="cls-1" d="M137,164.12c-5.63-.74-11.33-1.59-17-2.59a70.09,70.09,0,0,1-9.94-.29,84,84,0,0,1-18.84-3.89l-1.36.13a15.73,15.73,0,0,1-6-.44,26,26,0,0,1-5.69,1.75c.08,2.91.15,5.08,2.54,6.14a14.81,14.81,0,0,0,1.57.58h67.56C145.49,165.17,141.22,164.68,137,164.12Z" transform="translate(-28.5 -124.5)"/><path class="cls-1" d="M253.16,161.82c-14.84,1-29.72.11-44.55-1.06q-7.32-.58-14.64-1.09,7.51,2.18,14.89,4.69a5.12,5.12,0,0,1,1.88,1.15h80.88c-10.76-1.08-21.51-2.16-32.28-3.15C257.28,162.16,255.22,162,253.16,161.82Z" transform="translate(-28.5 -124.5)"/><path class="cls-1" d="M566.11,164.34c.78.37,1.55.76,2.31,1.16h10.39A98.1,98.1,0,0,0,566.11,164.34Z" transform="translate(-28.5 -124.5)"/><path class="cls-1" d="M64.35,158.33c-9.58-.45-19.73-4.13-27.17-7.45a4.13,4.13,0,0,1-2.41-3.61L31,147.22a5,5,0,0,1-2.5-.68v19H69.1a25.94,25.94,0,0,1-1-6.46A33.52,33.52,0,0,1,64.35,158.33Z" transform="translate(-28.5 -124.5)"/><path class="cls-1" d="M28.5,124.5v13.34a5,5,0,0,1,2.5-.62h.65A5,5,0,0,1,34,135.66a90.76,90.76,0,0,1,23.94-4c9.07-8.19,28-6,38.28-4.71a115.46,115.46,0,0,1,26.86,6.33c.86.33,1.76.69,2.67,1.06a54.78,54.78,0,0,1,16-4c10.68-1.25,21.53-.61,32.2.4,12.21,1.16,24.6,2.24,36.86,4H212c11.14-.2,22.2-.3,33.27-.15,11.38-5.05,26.63-3.27,38-1.45q3.65.59,7.29,1.36a4.38,4.38,0,0,1,3.12-.81l4.49.38a121.63,121.63,0,0,0,36.79-3.68c4.44-1.09,7,3.44,6,6.72,23.28-.19,46.58-.28,69.8-1.51,16.5-.88,32.75-4,49.33-3.81,6.89.06,13.55,1.18,20.37,2,6.33.78,13.44,1.55,19.42-1.17,5.82-2.65,10.9,6,5,8.63a33.88,33.88,0,0,1-10,2.75,5.57,5.57,0,0,1-.38,1.16c6.34.53,12.59,1.33,18.48,2a4.31,4.31,0,0,1,2.43-.43c10.69,1,21.52,5.64,30.52,12.2l.4,0a4.17,4.17,0,0,1,3.41-3.35c13.78-2.36,27.4-.87,40.83,2.07V124.5Z" transform="translate(-28.5 -124.5)"/><path class="cls-1" d="M448.33,154.33a39.86,39.86,0,0,1,8.24-5q-24.83,1-49.65,2.19l-40.72,1.89a136.77,136.77,0,0,1,27.9,10.68l2.59.27c16-6.16,34.16-3.44,51.36-3.41C446.73,159.06,446.2,156,448.33,154.33Z" transform="translate(-28.5 -124.5)"/><path class="cls-1" d="M535.88,165.5a5.66,5.66,0,0,1-.22-1.38,51.36,51.36,0,0,0-16.53-6.76,4.19,4.19,0,0,1-2,.29c-10.59-1-21.15-2.43-31.8-2.59-8.56-.13-19,0-26.85,4.35a11.23,11.23,0,0,0,2.19,2.75,4.21,4.21,0,0,1,1.53,3.34Z" transform="translate(-28.5 -124.5)"/><path class="cls-1" d="M330.29,159.3q13.65,1.22,27.33,2.25a140.15,140.15,0,0,0-25.69-4.15A5.45,5.45,0,0,1,330.29,159.3Z" transform="translate(-28.5 -124.5)"/><path class="cls-1" d="M313.88,155.7l-15.33.57q10.62,1.06,21.25,2.07c-1.06-.29-2.11-.59-3.17-.87A4.77,4.77,0,0,1,313.88,155.7Z" transform="translate(-28.5 -124.5)"/></svg>